<mxfile host="app.diagrams.net" modified="2022-06-16T23:32:13.238Z" agent="5.0 (Macintosh; Intel Mac OS X 10_15_7) AppleWebKit/537.36 (KHTML, like Gecko) Chrome/102.0.5005.124 Safari/537.36 Edg/102.0.1245.41" etag="0nRUDeW4HQgdj0UM-zBk" version="20.0.1" type="github">
  <diagram name="Page-1" id="7a6c530e-6e37-e111-ec74-82921da8cc10">
    <mxGraphModel dx="898" dy="646" grid="1" gridSize="10" guides="1" tooltips="1" connect="1" arrows="1" fold="1" page="1" pageScale="1.5" pageWidth="1169" pageHeight="826" background="#184380" math="0" shadow="0">
      <root>
        <mxCell id="0" style=";html=1;" />
        <mxCell id="1" style=";html=1;" parent="0" />
        <mxCell id="KOKp6EKpK6rq5gHab_TY-50" value="Mobile" style="rounded=1;whiteSpace=wrap;html=1;shadow=0;strokeWidth=2;fillColor=#dae8fc;fontSize=12;align=center;strokeColor=#6c8ebf;arcSize=6;verticalAlign=top;" vertex="1" parent="1">
          <mxGeometry x="1100.5" y="640" width="239.5" height="100" as="geometry" />
        </mxCell>
        <mxCell id="KOKp6EKpK6rq5gHab_TY-47" value="External Services" style="rounded=1;whiteSpace=wrap;html=1;shadow=0;strokeWidth=2;fillColor=#f8cecc;fontSize=12;align=center;strokeColor=#b85450;arcSize=6;verticalAlign=top;" vertex="1" parent="1">
          <mxGeometry x="600" y="640" width="221.25" height="102" as="geometry" />
        </mxCell>
        <mxCell id="KOKp6EKpK6rq5gHab_TY-43" value="Identity" style="rounded=1;whiteSpace=wrap;html=1;shadow=0;strokeWidth=2;fillColor=#f5f5f5;fontSize=12;align=center;strokeColor=#666666;arcSize=6;verticalAlign=top;fontColor=#333333;" vertex="1" parent="1">
          <mxGeometry x="837" y="640" width="250" height="100" as="geometry" />
        </mxCell>
        <mxCell id="23046e2b9bb16c14-113" value="MetroIN" style="text;strokeColor=none;fillColor=none;html=1;fontSize=24;fontStyle=1;verticalAlign=middle;align=center;rounded=0;shadow=0;fontColor=#FFFFFF;" parent="1" vertex="1">
          <mxGeometry x="120" y="40" width="1510" height="40" as="geometry" />
        </mxCell>
        <mxCell id="23046e2b9bb16c14-114" value="Subtitle" style="text;html=1;strokeColor=none;fillColor=none;align=center;verticalAlign=middle;whiteSpace=wrap;rounded=0;shadow=0;fontSize=10;fontColor=#009BFF;" parent="1" vertex="1">
          <mxGeometry x="114" y="90" width="1526" height="20" as="geometry" />
        </mxCell>
        <mxCell id="KOKp6EKpK6rq5gHab_TY-8" value="TG" style="rounded=1;whiteSpace=wrap;html=1;shadow=0;strokeWidth=2;fillColor=#dae8fc;fontSize=12;align=center;strokeColor=#6c8ebf;arcSize=6;verticalAlign=top;" vertex="1" parent="1">
          <mxGeometry x="600" y="280" width="100" height="334" as="geometry" />
        </mxCell>
        <mxCell id="KOKp6EKpK6rq5gHab_TY-9" value="MetroIN" style="shape=image;verticalLabelPosition=bottom;labelBackgroundColor=#ffffff;verticalAlign=top;aspect=fixed;imageAspect=0;image=data:image/svg+xml,PHN2ZyB4bWxuczpjYz0iaHR0cDovL2NyZWF0aXZlY29tbW9ucy5vcmcvbnMjIiB4bWxuczpkYz0iaHR0cDovL3B1cmwub3JnL2RjL2VsZW1lbnRzLzEuMS8iIHhtbG5zOmlua3NjYXBlPSJodHRwOi8vd3d3Lmlua3NjYXBlLm9yZy9uYW1lc3BhY2VzL2lua3NjYXBlIiB4bWxuczpyZGY9Imh0dHA6Ly93d3cudzMub3JnLzE5OTkvMDIvMjItcmRmLXN5bnRheC1ucyMiIHhtbG5zOnNvZGlwb2RpPSJodHRwOi8vc29kaXBvZGkuc291cmNlZm9yZ2UubmV0L0RURC9zb2RpcG9kaS0wLmR0ZCIgeG1sbnM6c3ZnPSJodHRwOi8vd3d3LnczLm9yZy8yMDAwL3N2ZyIgeG1sbnM9Imh0dHA6Ly93d3cudzMub3JnLzIwMDAvc3ZnIiB4bWxuczp4bGluaz0iaHR0cDovL3d3dy53My5vcmcvMTk5OS94bGluayIgdmVyc2lvbj0iMS4xIiBpZD0ic3ZnMTAyNzIyIiBpbmtzY2FwZTp2ZXJzaW9uPSIwLjkyLjMgKDI0MDU1NDYsIDIwMTgtMDMtMTEpIiBzb2RpcG9kaTpkb2NuYW1lPSJwb3N0Z3Jlc3FsLnN2ZyIgeD0iMHB4IiB5PSIwcHgiIHZpZXdCb3g9IjAgMCA0Ni4wMyA2MC40NyIgc3R5bGU9ImVuYWJsZS1iYWNrZ3JvdW5kOm5ldyAwIDAgNDYuMDMgNjAuNDc7IiB4bWw6c3BhY2U9InByZXNlcnZlIj4mI3hhOzxzb2RpcG9kaTpuYW1lZHZpZXcgYm9yZGVyY29sb3I9IiM2NjY2NjYiIGJvcmRlcm9wYWNpdHk9IjEiIGZpdC1tYXJnaW4tYm90dG9tPSIwIiBmaXQtbWFyZ2luLWxlZnQ9IjAiIGZpdC1tYXJnaW4tcmlnaHQ9IjAiIGZpdC1tYXJnaW4tdG9wPSIwIiBncmlkdG9sZXJhbmNlPSIxMCIgZ3VpZGV0b2xlcmFuY2U9IjEwIiBpZD0ibmFtZWR2aWV3MTAyNzI0IiBpbmtzY2FwZTpjdXJyZW50LWxheWVyPSJzdmcxMDI3MjIiIGlua3NjYXBlOmN4PSIzMC42ODk5ODMiIGlua3NjYXBlOmN5PSI0MC4zMTQ2NDUiIGlua3NjYXBlOnBhZ2VvcGFjaXR5PSIwIiBpbmtzY2FwZTpwYWdlc2hhZG93PSIyIiBpbmtzY2FwZTp3aW5kb3ctaGVpZ2h0PSIxMDE3IiBpbmtzY2FwZTp3aW5kb3ctbWF4aW1pemVkPSIxIiBpbmtzY2FwZTp3aW5kb3ctd2lkdGg9IjE5MjAiIGlua3NjYXBlOndpbmRvdy14PSItOCIgaW5rc2NhcGU6d2luZG93LXk9Ii04IiBpbmtzY2FwZTp6b29tPSIxMC40OTMzMTUiIG9iamVjdHRvbGVyYW5jZT0iMTAiIHBhZ2Vjb2xvcj0iI2ZmZmZmZiIgc2hvd2dyaWQ9ImZhbHNlIj4mI3hhOwk8L3NvZGlwb2RpOm5hbWVkdmlldz4mI3hhOzxnIGlkPSJnMTAyNzIwIiB0cmFuc2Zvcm09InRyYW5zbGF0ZSgtMC43NSwtMC43NTQ4KSI+JiN4YTsJPHRpdGxlIGlkPSJ0aXRsZTEwMjYwNSI+UGFnZS0xPC90aXRsZT4mI3hhOwk8ZyBpZD0iZ3JvdXAzNzA0LTEiIHRyYW5zZm9ybT0idHJhbnNsYXRlKDAuNzUsLTAuNzUpIj4mI3hhOwkJPHRpdGxlIGlkPSJ0aXRsZTEwMjYwNyI+UG9zdGdyZVNRTC42MzM8L3RpdGxlPiYjeGE7CQk8ZyBpZD0iZ3JvdXAzNzA1LTIiPiYjeGE7CQkJPHRpdGxlIGlkPSJ0aXRsZTEwMjYwOSI+Q0hlY2ttYXJrXzI8L3RpdGxlPiYjeGE7CQkJPGcgaWQ9InNoYXBlMzcwNi0zIj4mI3hhOwkJCQk8dGl0bGUgaWQ9InRpdGxlMTAyNjExIj5wYXRoMzY4NjwvdGl0bGU+JiN4YTsJCQkJPGcgaWQ9InNoYWRvdzM3MDYtNCI+JiN4YTsJCQkJPC9nPiYjeGE7CQkJCTxwYXRoIGlkPSJwYXRoMTAyNjE0IiBpbmtzY2FwZTpjb25uZWN0b3ItY3VydmF0dXJlPSIwIiBzdHlsZT0iZmlsbDojMzk5OEM1OyIgZD0iTTAsOS41NHY0NC4zMmMwLDQuNjYsMTAuMjgsOC4xMSwyMi44OCw4LjExICAgICAgVjkuNTRIMHoiLz4mI3hhOwkJCTwvZz4mI3hhOwkJCTxnIGlkPSJzaGFwZTM3MDctNiIgdHJhbnNmb3JtPSJ0cmFuc2xhdGUoMjIuODc5MykiPiYjeGE7CQkJCTx0aXRsZSBpZD0idGl0bGUxMDI2MTciPnBhdGgzNjg4PC90aXRsZT4mI3hhOwkJCQk8ZyBpZD0ic2hhZG93MzcwNy03Ij4mI3hhOwkJCQk8L2c+JiN4YTsJCQkJPHBhdGggaWQ9InBhdGgxMDI2MjAiIGlua3NjYXBlOmNvbm5lY3Rvci1jdXJ2YXR1cmU9IjAiIHN0eWxlPSJmaWxsOiM1OUIzRDg7IiBkPSJNMCw2MS45N2gwLjEyYzEyLjUyLDAsMjIuNzYtMy42NiwyMi43Ni04LjMxICAgICAgVjkuNTRIMFY2MS45N3oiLz4mI3hhOwkJCTwvZz4mI3hhOwkJCTxnIGlkPSJzaGFwZTM3MDgtOSIgdHJhbnNmb3JtPSJ0cmFuc2xhdGUoMCwtNDMuNzg1MikiPiYjeGE7CQkJCTx0aXRsZSBpZD0idGl0bGUxMDI2MjMiPnBhdGgzNjkwPC90aXRsZT4mI3hhOwkJCQk8ZyBpZD0ic2hhZG93MzcwOC0xMCI+JiN4YTsJCQkJPC9nPiYjeGE7CQkJCTxwYXRoIGlkPSJwYXRoMTAyNjI2IiBpbmtzY2FwZTpjb25uZWN0b3ItY3VydmF0dXJlPSIwIiBzdHlsZT0iZmlsbDojRkZGRkZGOyIgZD0iTTQ2LjAzLDUzLjY0YzAsNC41MS0xMC4zMSw4LjMzLTIyLjk1LDguMzMgICAgICBTMCw1OC4xNSwwLDUzLjY0YzAtNC41MiwxMC4zMS04LjM1LDIyLjk2LTguMzVDMzUuNiw0NS4yOSw0Ni4wMyw0OS4xLDQ2LjAzLDUzLjY0eiIvPiYjeGE7CQkJPC9nPiYjeGE7CQkJPGcgaWQ9InNoYXBlMzcwOS0xMiIgdHJhbnNmb3JtPSJ0cmFuc2xhdGUoNC42NjE2NSwtNDcuMDkzMikiPiYjeGE7CQkJCTx0aXRsZSBpZD0idGl0bGUxMDI2MjkiPnBhdGgzNjkyPC90aXRsZT4mI3hhOwkJCQk8ZyBpZD0ic2hhZG93MzcwOS0xMyI+JiN4YTsJCQkJPC9nPiYjeGE7CQkJCTxwYXRoIGlkPSJwYXRoMTAyNjMyIiBpbmtzY2FwZTpjb25uZWN0b3ItY3VydmF0dXJlPSIwIiBzdHlsZT0iZmlsbDojN0ZCOTAwOyIgZD0iTTM2LjcxLDU2LjQ1YzAsMy4wNy04LjIzLDUuNTItMTguMjksNS41MiAgICAgIEM4LjM1LDYxLjk3LDAsNTkuNTYsMCw1Ni40NXM4LjIzLTUuNTIsMTguMjktNS41MkMyOC4zNiw1MC45MywzNi43MSw1My4zOCwzNi43MSw1Ni40NXoiLz4mI3hhOwkJCTwvZz4mI3hhOwkJCTxnIGlkPSJzaGFwZTM3MTAtMTUiIHRyYW5zZm9ybT0idHJhbnNsYXRlKDQuNjYxNjUsLTQ5LjI5NTMpIj4mI3hhOwkJCQk8dGl0bGUgaWQ9InRpdGxlMTAyNjM1Ij5wYXRoMzY5NDwvdGl0bGU+JiN4YTsJCQkJPGcgaWQ9InNoYWRvdzM3MTAtMTYiPiYjeGE7CQkJCTwvZz4mI3hhOwkJCQk8cGF0aCBpZD0icGF0aDEwMjYzOCIgaW5rc2NhcGU6Y29ubmVjdG9yLWN1cnZhdHVyZT0iMCIgc3R5bGU9ImZpbGw6I0I3RDMzMjsiIGQ9Ik0zMi43OCw2MS45N2MyLjQ2LTAuOTYsMy44Mi0yLjA5LDMuODItMy4zMiAgICAgIGMwLTMuMDctOC4yMy01LjUyLTE4LjMtNS41MkM4LjI0LDUzLjEzLDAsNTUuNTgsMCw1OC42NWMwLDEuMjMsMS40OCwyLjQ2LDMuODEsMy4zMmMzLjMyLTEuMzYsOC41OC0yLjA5LDE0LjQ5LTIuMDkgICAgICBjNC45MS0wLjEsOS44MSwwLjYsMTQuNDksMi4wOUgzMi43OHoiLz4mI3hhOwkJCQk8cGF0aCBpZD0icGF0aDEwMjY0MCIgaW5rc2NhcGU6Y29ubmVjdG9yLWN1cnZhdHVyZT0iMCIgc3R5bGU9ImZpbGw6bm9uZTsiIGQ9Ik0zMi43OCw2MS45N2MyLjQ2LTAuOTYsMy44Mi0yLjA5LDMuODItMy4zMiAgICAgIGMwLTMuMDctOC4yMy01LjUyLTE4LjMtNS41MkM4LjI0LDUzLjEzLDAsNTUuNTgsMCw1OC42NWMwLDEuMjMsMS40OCwyLjQ2LDMuODEsMy4zMmMzLjMyLTEuMzYsOC41OC0yLjA5LDE0LjQ5LTIuMDkgICAgICBjNC45MS0wLjEsOS44MSwwLjYsMTQuNDksMi4wOSIvPiYjeGE7CQkJPC9nPiYjeGE7CQkJPGcgaWQ9Imdyb3VwMzcxMS0xOSIgdHJhbnNmb3JtPSJ0cmFuc2xhdGUoNy41NjkyMywtNy40NjQzNikiPiYjeGE7CQkJCTx0aXRsZSBpZD0idGl0bGUxMDI2NDMiPkxheWVyXzM8L3RpdGxlPiYjeGE7CQkJCTxnIGlkPSJzaGFwZTM3MTItMjAiIHRyYW5zZm9ybT0idHJhbnNsYXRlKDAuMDU3MTk4MikiPiYjeGE7CQkJCQk8dGl0bGUgaWQ9InRpdGxlMTAyNjQ1Ij5wYXRoMzY5NjwvdGl0bGU+JiN4YTsJCQkJCTxnIGlkPSJzaGFkb3czNzEyLTIxIj4mI3hhOwkJCQkJPC9nPiYjeGE7CQkJCQk8cGF0aCBpZD0icGF0aDEwMjY0OCIgaW5rc2NhcGU6Y29ubmVjdG9yLWN1cnZhdHVyZT0iMCIgc3R5bGU9ImZpbGw6IzMzNjc5MDsiIGQ9Ik0yOC4zMiw1MC4yM2MtMy42NSwwLjc2LTMuOTEtMC40OC0zLjkxLTAuNDggICAgICAgYzMuODItNS43Miw1LjQ4LTEzLDQuMDgtMTQuNzdjLTMuODEtNC44NS0xMC4zNy0yLjU1LTEwLjQ4LTIuNWMtMC44LTAuMTYtMS42Mi0wLjI1LTIuNDQtMC4yNmMtMS4zNy0wLjA2LTIuNzIsMC4zNS0zLjgyLDEuMTYgICAgICAgYzAsMC0xMS43NS00LjgyLTExLjI0LDYuMDhjMC4xMiwyLjMyLDMuMywxNy41NSw3LjEyLDEyLjk2YzEuNC0xLjY4LDIuNzQtMy4xMSwyLjc0LTMuMTFjMC42OCwwLjQ2LDEuNSwwLjY3LDIuMzIsMC41OSAgICAgICBsMC4wNy0wLjA2Yy0wLjAzLDAuMjItMC4wMywwLjQ0LDAsMC42NmMtMC45NiwxLjExLTAuNywxLjMtMi42NywxLjdjLTEuOTgsMC40LTAuODIsMS4xNC0wLjA2LDEuMzMgICAgICAgYzEuNjcsMC41NCwzLjQ5LTAuMDUsNC41Mi0xLjQ3bC0wLjA2LDAuMjNjMC4zOSwwLjMxLDAuNjYsMi4wMSwwLjYxLDMuNTZjLTAuMTMsMS4xNS0wLjA1LDIuMzEsMC4yMywzLjQzICAgICAgIGMwLjMsMC44MywwLjYxLDIuNjksMy4yLDIuMTRjMi4xNy0wLjQ3LDMuMjktMS42NywzLjQ0LTMuNjhjMC4xMS0xLjQyLDAuMzctMS4yMSwwLjM4LTIuNDhsMC4yMS0wLjYgICAgICAgYzAuMjItMS45MSwwLTIuNTYsMS4zNy0yLjI3aDAuMzJjMS4wMywwLjA0LDIuMDYtMC4xMywzLjAyLTAuNTFjMS42Mi0wLjc1LDIuNTktMi4wMSwwLjk2LTEuNjhMMjguMzIsNTAuMjN6Ii8+JiN4YTsJCQkJPC9nPiYjeGE7CQkJCTxnIGlkPSJzaGFwZTM3MTMtMjMiIHRyYW5zZm9ybT0idHJhbnNsYXRlKDE0LjcyODUsLTAuNDk1NzE4KSI+JiN4YTsJCQkJCTx0aXRsZSBpZD0idGl0bGUxMDI2NTEiPnBhdGgzNjk4PC90aXRsZT4mI3hhOwkJCQkJPGcgaWQ9InNoYWRvdzM3MTMtMjQiPiYjeGE7CQkJCQk8L2c+JiN4YTsJCQkJCTxwYXRoIGlkPSJwYXRoMTAyNjU0IiBpbmtzY2FwZTpjb25uZWN0b3ItY3VydmF0dXJlPSIwIiBzdHlsZT0iZmlsbDpub25lOyIgZD0iTTAuMSw1MS44M2MtMC4xLDMuNiwwLDcuMjIsMC4zOSw4LjEgICAgICAgYzAuMzcsMS41NCwxLjkyLDIuNDgsMy40NSwyLjExQzQuMDIsNjIuMDIsNC4xLDYyLDQuMTgsNjEuOTdjMi4xNy0wLjQ3LDIuOTYtMS4zNywzLjMtMy4zNWMwLjI1LTEuNDYsMC43NC01LjUxLDAuOC02LjM0ICAgICAgIEwwLjEsNTEuODN6Ii8+JiN4YTsJCQkJCSYjeGE7CQkJCQkJPHBhdGggaWQ9InBhdGgxMDI2NTYiIGlua3NjYXBlOmNvbm5lY3Rvci1jdXJ2YXR1cmU9IjAiIHN0eWxlPSJmaWxsOm5vbmU7c3Ryb2tlOiNGRkZGRkY7c3Ryb2tlLXdpZHRoOjAuNzY1O3N0cm9rZS1saW5lY2FwOnJvdW5kO3N0cm9rZS1saW5lam9pbjpyb3VuZDtzdHJva2UtbWl0ZXJsaW1pdDozOyIgZD0iICAgICAgIE0wLjEsNTEuODNjLTAuMSwzLjYsMCw3LjIyLDAuMzksOC4xYzAuMzcsMS41NCwxLjkyLDIuNDgsMy40NSwyLjExQzQuMDIsNjIuMDIsNC4xLDYyLDQuMTgsNjEuOTcgICAgICAgYzIuMTctMC40NywyLjk2LTEuMzcsMy4zLTMuMzVjMC4yNS0xLjQ2LDAuNzQtNS41MSwwLjgtNi4zNCIvPiYjeGE7CQkJCTwvZz4mI3hhOwkJCQk8ZyBpZD0ic2hhcGUzNzE0LTI3IiB0cmFuc2Zvcm09InRyYW5zbGF0ZSgwLC00Ljk5NTMxKSI+JiN4YTsJCQkJCTx0aXRsZSBpZD0idGl0bGUxMDI2NTkiPnBhdGgzNzAwPC90aXRsZT4mI3hhOwkJCQkJPGcgaWQ9InNoYWRvdzM3MTQtMjgiPiYjeGE7CQkJCQk8L2c+JiN4YTsJCQkJCTxwYXRoIGlkPSJwYXRoMTAyNjYyIiBpbmtzY2FwZTpjb25uZWN0b3ItY3VydmF0dXJlPSIwIiBzdHlsZT0iZmlsbDpub25lOyIgZD0iTTExLjc0LDM4LjI3YzAsMC0xMS43NC00Ljc3LTExLjE5LDYuMTEgICAgICAgYzAuMTEsMi4zNSwzLjMyLDE3LjU5LDcuMTMsMTIuOTVjMS40LTEuNjcsMi42Ni0zLDIuNjYtM0wxMS43NCwzOC4yN3oiLz4mI3hhOwkJCQkJJiN4YTsJCQkJCQk8cGF0aCBpZD0icGF0aDEwMjY2NCIgaW5rc2NhcGU6Y29ubmVjdG9yLWN1cnZhdHVyZT0iMCIgc3R5bGU9ImZpbGw6bm9uZTtzdHJva2U6I0ZGRkZGRjtzdHJva2Utd2lkdGg6MC43NjU7c3Ryb2tlLWxpbmVjYXA6cm91bmQ7c3Ryb2tlLWxpbmVqb2luOnJvdW5kO3N0cm9rZS1taXRlcmxpbWl0OjM7IiBkPSIgICAgICAgTTExLjc0LDM4LjI3YzAsMC0xMS43NC00Ljc3LTExLjE5LDYuMTFjMC4xMSwyLjM1LDMuMzIsMTcuNTksNy4xMywxMi45NWMxLjQtMS42NywyLjY2LTMsMi42Ni0zIi8+JiN4YTsJCQkJPC9nPiYjeGE7CQkJCTxnIGlkPSJzaGFwZTM3MTUtMzEiIHRyYW5zZm9ybT0idHJhbnNsYXRlKDE3LjY1NTIsLTEyLjI2OSkiPiYjeGE7CQkJCQk8dGl0bGUgaWQ9InRpdGxlMTAyNjY3Ij5wYXRoMzcwMjwvdGl0bGU+JiN4YTsJCQkJCTxnIGlkPSJzaGFkb3czNzE1LTMyIj4mI3hhOwkJCQkJPC9nPiYjeGE7CQkJCQk8cGF0aCBpZD0icGF0aDEwMjY3MCIgaW5rc2NhcGU6Y29ubmVjdG9yLWN1cnZhdHVyZT0iMCIgc3R5bGU9ImZpbGw6bm9uZTsiIGQ9Ik0wLjQxLDQ0LjdDMCw0NC44Myw2LjkzLDQyLjE3LDEwLjksNDcuMiAgICAgICBjMS4zOSwxLjc4LTAuMjIsOS4wNS00LjA4LDE0Ljc3TDAuNDEsNDQuN3oiLz4mI3hhOwkJCQkJJiN4YTsJCQkJCQk8cGF0aCBpZD0icGF0aDEwMjY3MiIgaW5rc2NhcGU6Y29ubmVjdG9yLWN1cnZhdHVyZT0iMCIgc3R5bGU9ImZpbGw6bm9uZTtzdHJva2U6I0ZGRkZGRjtzdHJva2Utd2lkdGg6MC43NjU7c3Ryb2tlLWxpbmVjYXA6cm91bmQ7c3Ryb2tlLWxpbmVqb2luOnJvdW5kO3N0cm9rZS1taXRlcmxpbWl0OjM7IiBkPSIgICAgICAgTTAuNDEsNDQuN0MwLDQ0LjgzLDYuOTMsNDIuMTcsMTAuOSw0Ny4yYzEuMzksMS43OC0wLjIyLDkuMDUtNC4wOCwxNC43NyIvPiYjeGE7CQkJCTwvZz4mI3hhOwkJCQk8ZyBpZD0ic2hhcGUzNzE2LTM1IiB0cmFuc2Zvcm09InRyYW5zbGF0ZSg4LjU0MTU5LC05LjMzMjg0KSI+JiN4YTsJCQkJCTx0aXRsZSBpZD0idGl0bGUxMDI2NzUiPnBhdGgzNzA0PC90aXRsZT4mI3hhOwkJCQkJPGcgaWQ9InNoYWRvdzM3MTYtMzYiPiYjeGE7CQkJCQk8L2c+JiN4YTsJCQkJCTxwYXRoIGlkPSJwYXRoMTAyNjc4IiBpbmtzY2FwZTpjb25uZWN0b3ItY3VydmF0dXJlPSIwIiBzdHlsZT0iZmlsbDpub25lOyIgZD0iTTE1LjkxLDU5LjAzYzAsMCwwLjI1LDEuMjQsMy45MSwwLjQ5ICAgICAgIGMxLjYtMC4zMywwLjY0LDAuOTUtMC45NSwxLjY4Yy0xLjM0LDAuNjItNC4zMiwwLjc3LTQuMzctMC4wOGMtMC4xMi0yLjIsMS41Ny0xLjU0LDEuNDUtMi4wOWMtMC4xMy0wLjU1LTAuODctMC45NS0xLjM3LTIuMiAgICAgICBjLTAuNDQtMS4wNi02LjAyLTkuMjEsMS41NC04YzAuMjgtMC4wNi0xLjk3LTcuMTktOS4wNS03LjNDMCw0MS40MSwwLjIsNTAuMjMsMC4yLDUwLjIzTDE1LjkxLDU5LjAzeiIvPiYjeGE7CQkJCQkmI3hhOwkJCQkJCTxwYXRoIGlkPSJwYXRoMTAyNjgwIiBpbmtzY2FwZTpjb25uZWN0b3ItY3VydmF0dXJlPSIwIiBzdHlsZT0iZmlsbDpub25lO3N0cm9rZTojRkZGRkZGO3N0cm9rZS13aWR0aDowLjc2NTtzdHJva2UtbGluZWNhcDpyb3VuZDtzdHJva2UtbGluZWpvaW46cm91bmQ7c3Ryb2tlLW1pdGVybGltaXQ6MzsiIGQ9IiAgICAgICBNMTUuOTEsNTkuMDNjMCwwLDAuMjUsMS4yNCwzLjkxLDAuNDljMS42LTAuMzMsMC42NCwwLjk1LTAuOTUsMS42OGMtMS4zNCwwLjYyLTQuMzIsMC43Ny00LjM3LTAuMDggICAgICAgYy0wLjEyLTIuMiwxLjU3LTEuNTQsMS40NS0yLjA5Yy0wLjEzLTAuNTUtMC44Ny0wLjk1LTEuMzctMi4yYy0wLjQ0LTEuMDYtNi4wMi05LjIxLDEuNTQtOGMwLjI4LTAuMDYtMS45Ny03LjE5LTkuMDUtNy4zICAgICAgIEMwLDQxLjQxLDAuMiw1MC4yMywwLjIsNTAuMjMiLz4mI3hhOwkJCQk8L2c+JiN4YTsJCQkJPGcgaWQ9InNoYXBlMzcxNy0zOSIgdHJhbnNmb3JtPSJ0cmFuc2xhdGUoOC4yMTc0NywtOC41MDM0NikiPiYjeGE7CQkJCQk8dGl0bGUgaWQ9InRpdGxlMTAyNjgzIj5wYXRoMzcwNjwvdGl0bGU+JiN4YTsJCQkJCTxnIGlkPSJzaGFkb3czNzE3LTQwIj4mI3hhOwkJCQkJPC9nPiYjeGE7CQkJCQkmI3hhOwkJCQkJCTxwYXRoIGlkPSJwYXRoMTAyNjg2IiBpbmtzY2FwZTpjb25uZWN0b3ItY3VydmF0dXJlPSIwIiBzdHlsZT0iZmlsbDpub25lO3N0cm9rZTojRkZGRkZGO3N0cm9rZS13aWR0aDowLjc2NTtzdHJva2UtbGluZWNhcDpyb3VuZDtzdHJva2UtbGluZWpvaW46cm91bmQ7c3Ryb2tlLW1pdGVybGltaXQ6MzsiIGQ9IiAgICAgICBNNC42NCw1OC45NGMtMC45NSwxLjEtMC42OSwxLjI5LTIuNjcsMS42OWMtMS45NywwLjQtMC44MiwxLjE1LTAuMDUsMS4zNGMxLjY2LDAuNTMsMy40OC0wLjA2LDQuNTEtMS40NyAgICAgICBjMC4zNS0wLjY2LDAuMS0xLjQ4LTAuNTYtMS44M0g1LjgyYy0wLjQxLTAuMjMtMC45My0wLjExLTEuMTksMC4yOUw0LjY0LDU4Ljk0eiIvPiYjeGE7CQkJCTwvZz4mI3hhOwkJCQk8ZyBpZD0ic2hhcGUzNzE4LTQyIiB0cmFuc2Zvcm09InRyYW5zbGF0ZSg4LjYzNjkyLC0xMS41MzUpIj4mI3hhOwkJCQkJPHRpdGxlIGlkPSJ0aXRsZTEwMjY4OSI+cGF0aDM3MDg8L3RpdGxlPiYjeGE7CQkJCQk8ZyBpZD0ic2hhZG93MzcxOC00MyI+JiN4YTsJCQkJCTwvZz4mI3hhOwkJCQkJPHBhdGggaWQ9InBhdGgxMDI2OTIiIGlua3NjYXBlOmNvbm5lY3Rvci1jdXJ2YXR1cmU9IjAiIHN0eWxlPSJmaWxsOm5vbmU7IiBkPSJNNC4xNiw2MS45N2MwLTAuOCwwLjE4LTEuNiwwLjU0LTIuMzIgICAgICAgYzAuNTEtMS4zNSwxLjY2LTIuNzEsMC43My03Yy0wLjY5LTMuMTktNS4zMy0wLjY2LTUuMzMtMC4yMmMwLjExLDEuNDIsMC4wNywyLjg0LTAuMSw0LjI1Yy0wLjQsMi4xOCwxLjA0LDQuMjYsMy4yMiw0LjY2ICAgICAgIGMwLjI5LDAuMDUsMC41OSwwLjA3LDAuODgsMC4wNkw0LjE2LDYxLjk3eiIvPiYjeGE7CQkJCQkmI3hhOwkJCQkJCTxwYXRoIGlkPSJwYXRoMTAyNjk0IiBpbmtzY2FwZTpjb25uZWN0b3ItY3VydmF0dXJlPSIwIiBzdHlsZT0iZmlsbDpub25lO3N0cm9rZTojRkZGRkZGO3N0cm9rZS13aWR0aDowLjc2NTtzdHJva2UtbGluZWNhcDpyb3VuZDtzdHJva2UtbGluZWpvaW46cm91bmQ7c3Ryb2tlLW1pdGVybGltaXQ6MzsiIGQ9IiAgICAgICBNNC4xNiw2MS45N2MwLTAuOCwwLjE4LTEuNiwwLjU0LTIuMzJjMC41MS0xLjM1LDEuNjYtMi43MSwwLjczLTdjLTAuNjktMy4xOS01LjMzLTAuNjYtNS4zMy0wLjIyICAgICAgIGMwLjExLDEuNDIsMC4wNywyLjg0LTAuMSw0LjI1Yy0wLjQsMi4xOCwxLjA0LDQuMjYsMy4yMiw0LjY2YzAuMjksMC4wNSwwLjU5LDAuMDcsMC44OCwwLjA2Ii8+JiN4YTsJCQkJPC9nPiYjeGE7CQkJCTxnIGlkPSJzaGFwZTM3MTktNDYiIHRyYW5zZm9ybT0idHJhbnNsYXRlKDExLjY4NzUsLTIwLjU0MzcpIj4mI3hhOwkJCQkJPHRpdGxlIGlkPSJ0aXRsZTEwMjY5NyI+cGF0aDM3MTA8L3RpdGxlPiYjeGE7CQkJCQk8ZyBpZD0ic2hhZG93MzcxOS00NyI+JiN4YTsJCQkJCTwvZz4mI3hhOwkJCQkJJiN4YTsJCQkJCQk8cGF0aCBpZD0icGF0aDEwMjcwMCIgaW5rc2NhcGU6Y29ubmVjdG9yLWN1cnZhdHVyZT0iMCIgc3R5bGU9ImZpbGw6I0ZGRkZGRjtzdHJva2U6I0ZGRkZGRjtzdHJva2Utd2lkdGg6MC40MTI1O3N0cm9rZS1saW5lY2FwOnNxdWFyZTtzdHJva2UtbWl0ZXJsaW1pdDozOyIgZD0iICAgICAgIE0wLDYxLjM3YzAsMC4xNSwwLjI4LDAuNTQsMC42NSwwLjZjMC4zLDAuMDQsMC41OS0wLjEyLDAuNzItMC40YzAtMC4xNS0wLjI3LTAuMzItMC42NS0wLjM2Yy0wLjM3LTAuMDUtMC43LDAtMC43MiwwLjE3VjYxLjM3ICAgICAgIHoiLz4mI3hhOwkJCQk8L2c+JiN4YTsJCQkJPGcgaWQ9InNoYXBlMzcyMC00OSIgdHJhbnNmb3JtPSJ0cmFuc2xhdGUoMjEuODk3NCwtMjAuODQ4NykiPiYjeGE7CQkJCQk8dGl0bGUgaWQ9InRpdGxlMTAyNzAzIj5wYXRoMzcxMjwvdGl0bGU+JiN4YTsJCQkJCTxnIGlkPSJzaGFkb3czNzIwLTUwIj4mI3hhOwkJCQkJPC9nPiYjeGE7CQkJCQkmI3hhOwkJCQkJCTxwYXRoIGlkPSJwYXRoMTAyNzA2IiBpbmtzY2FwZTpjb25uZWN0b3ItY3VydmF0dXJlPSIwIiBzdHlsZT0iZmlsbDojRkZGRkZGO3N0cm9rZTojRkZGRkZGO3N0cm9rZS13aWR0aDowLjIxO3N0cm9rZS1saW5lY2FwOnNxdWFyZTtzdHJva2UtbWl0ZXJsaW1pdDozOyIgZD0iICAgICAgIE0xLjM3LDYxLjM3YzAsMC4xNS0wLjI3LDAuNTQtMC42NSwwLjZjLTAuMywwLjA0LTAuNTktMC4xMi0wLjcyLTAuNGMwLTAuMTUsMC4yOC0wLjMyLDAuNjUtMC4zNiAgICAgICBDMS4wMiw2MS4xNiwxLjM1LDYxLjIxLDEuMzcsNjEuMzdMMS4zNyw2MS4zN3oiLz4mI3hhOwkJCQk8L2c+JiN4YTsJCQkJPGcgaWQ9InNoYXBlMzcyMS01MiIgdHJhbnNmb3JtPSJ0cmFuc2xhdGUoMjMuODEzNSwtMTMuMzY1MykiPiYjeGE7CQkJCQk8dGl0bGUgaWQ9InRpdGxlMTAyNzA5Ij5wYXRoMzcxNDwvdGl0bGU+JiN4YTsJCQkJCTxnIGlkPSJzaGFkb3czNzIxLTUzIj4mI3hhOwkJCQkJPC9nPiYjeGE7CQkJCQk8cGF0aCBpZD0icGF0aDEwMjcxMiIgaW5rc2NhcGU6Y29ubmVjdG9yLWN1cnZhdHVyZT0iMCIgc3R5bGU9ImZpbGw6bm9uZTsiIGQ9Ik0wLjgxLDUyLjg2YzAuMDcsMS4xNy0wLjI1LDEuOTEtMC4yOSwzLjIgICAgICAgYy0wLjA1LDEuOCwwLjg2LDMuODEtMC41Miw1LjkxTDAuODEsNTIuODZ6Ii8+JiN4YTsJCQkJCSYjeGE7CQkJCQkJPHBhdGggaWQ9InBhdGgxMDI3MTQiIGlua3NjYXBlOmNvbm5lY3Rvci1jdXJ2YXR1cmU9IjAiIHN0eWxlPSJmaWxsOm5vbmU7c3Ryb2tlOiNGRkZGRkY7c3Ryb2tlLXdpZHRoOjAuNzY1O3N0cm9rZS1saW5lY2FwOnJvdW5kO3N0cm9rZS1saW5lam9pbjpyb3VuZDtzdHJva2UtbWl0ZXJsaW1pdDozOyIgZD0iICAgICAgIE0wLjgxLDUyLjg2YzAuMDcsMS4xNy0wLjI1LDEuOTEtMC4yOSwzLjJjLTAuMDUsMS44LDAuODYsMy44MS0wLjUyLDUuOTEiLz4mI3hhOwkJCQk8L2c+JiN4YTsJCQk8L2c+JiN4YTsJCTwvZz4mI3hhOwk8L2c+JiN4YTs8L2c+JiN4YTs8L3N2Zz4=;" vertex="1" parent="1">
          <mxGeometry x="630" y="314" width="46" height="60" as="geometry" />
        </mxCell>
        <mxCell id="KOKp6EKpK6rq5gHab_TY-10" value="WebUI" style="verticalLabelPosition=bottom;html=1;verticalAlign=top;align=center;strokeColor=none;fillColor=#00BEF2;shape=mxgraph.azure.azure_website;pointerEvents=1;labelBackgroundColor=default;" vertex="1" parent="1">
          <mxGeometry x="628" y="510" width="50" height="50" as="geometry" />
        </mxCell>
        <mxCell id="KOKp6EKpK6rq5gHab_TY-11" value="API" style="aspect=fixed;html=1;points=[];align=center;image;fontSize=12;image=img/lib/azure2/app_services/API_Management_Services.svg;" vertex="1" parent="1">
          <mxGeometry x="620.5" y="414" width="65" height="60" as="geometry" />
        </mxCell>
        <mxCell id="KOKp6EKpK6rq5gHab_TY-12" value="" style="verticalLabelPosition=bottom;html=1;verticalAlign=top;align=center;strokeColor=none;fillColor=#00BEF2;shape=mxgraph.azure.scheduler;pointerEvents=1;labelBackgroundColor=default;" vertex="1" parent="1">
          <mxGeometry x="678" y="319" width="40" height="50" as="geometry" />
        </mxCell>
        <mxCell id="KOKp6EKpK6rq5gHab_TY-13" value="Control" style="rounded=1;whiteSpace=wrap;html=1;shadow=0;strokeWidth=2;fillColor=#ffe6cc;fontSize=12;align=center;strokeColor=#d79b00;arcSize=6;verticalAlign=top;" vertex="1" parent="1">
          <mxGeometry x="759" y="280" width="100" height="334" as="geometry" />
        </mxCell>
        <mxCell id="KOKp6EKpK6rq5gHab_TY-14" value="MetroIN_Control" style="shape=image;verticalLabelPosition=bottom;labelBackgroundColor=#ffffff;verticalAlign=top;aspect=fixed;imageAspect=0;image=data:image/svg+xml,PHN2ZyB4bWxuczpjYz0iaHR0cDovL2NyZWF0aXZlY29tbW9ucy5vcmcvbnMjIiB4bWxuczpkYz0iaHR0cDovL3B1cmwub3JnL2RjL2VsZW1lbnRzLzEuMS8iIHhtbG5zOmlua3NjYXBlPSJodHRwOi8vd3d3Lmlua3NjYXBlLm9yZy9uYW1lc3BhY2VzL2lua3NjYXBlIiB4bWxuczpyZGY9Imh0dHA6Ly93d3cudzMub3JnLzE5OTkvMDIvMjItcmRmLXN5bnRheC1ucyMiIHhtbG5zOnNvZGlwb2RpPSJodHRwOi8vc29kaXBvZGkuc291cmNlZm9yZ2UubmV0L0RURC9zb2RpcG9kaS0wLmR0ZCIgeG1sbnM6c3ZnPSJodHRwOi8vd3d3LnczLm9yZy8yMDAwL3N2ZyIgeG1sbnM9Imh0dHA6Ly93d3cudzMub3JnLzIwMDAvc3ZnIiB4bWxuczp4bGluaz0iaHR0cDovL3d3dy53My5vcmcvMTk5OS94bGluayIgdmVyc2lvbj0iMS4xIiBpZD0ic3ZnMTAyNzIyIiBpbmtzY2FwZTp2ZXJzaW9uPSIwLjkyLjMgKDI0MDU1NDYsIDIwMTgtMDMtMTEpIiBzb2RpcG9kaTpkb2NuYW1lPSJwb3N0Z3Jlc3FsLnN2ZyIgeD0iMHB4IiB5PSIwcHgiIHZpZXdCb3g9IjAgMCA0Ni4wMyA2MC40NyIgc3R5bGU9ImVuYWJsZS1iYWNrZ3JvdW5kOm5ldyAwIDAgNDYuMDMgNjAuNDc7IiB4bWw6c3BhY2U9InByZXNlcnZlIj4mI3hhOzxzb2RpcG9kaTpuYW1lZHZpZXcgYm9yZGVyY29sb3I9IiM2NjY2NjYiIGJvcmRlcm9wYWNpdHk9IjEiIGZpdC1tYXJnaW4tYm90dG9tPSIwIiBmaXQtbWFyZ2luLWxlZnQ9IjAiIGZpdC1tYXJnaW4tcmlnaHQ9IjAiIGZpdC1tYXJnaW4tdG9wPSIwIiBncmlkdG9sZXJhbmNlPSIxMCIgZ3VpZGV0b2xlcmFuY2U9IjEwIiBpZD0ibmFtZWR2aWV3MTAyNzI0IiBpbmtzY2FwZTpjdXJyZW50LWxheWVyPSJzdmcxMDI3MjIiIGlua3NjYXBlOmN4PSIzMC42ODk5ODMiIGlua3NjYXBlOmN5PSI0MC4zMTQ2NDUiIGlua3NjYXBlOnBhZ2VvcGFjaXR5PSIwIiBpbmtzY2FwZTpwYWdlc2hhZG93PSIyIiBpbmtzY2FwZTp3aW5kb3ctaGVpZ2h0PSIxMDE3IiBpbmtzY2FwZTp3aW5kb3ctbWF4aW1pemVkPSIxIiBpbmtzY2FwZTp3aW5kb3ctd2lkdGg9IjE5MjAiIGlua3NjYXBlOndpbmRvdy14PSItOCIgaW5rc2NhcGU6d2luZG93LXk9Ii04IiBpbmtzY2FwZTp6b29tPSIxMC40OTMzMTUiIG9iamVjdHRvbGVyYW5jZT0iMTAiIHBhZ2Vjb2xvcj0iI2ZmZmZmZiIgc2hvd2dyaWQ9ImZhbHNlIj4mI3hhOwk8L3NvZGlwb2RpOm5hbWVkdmlldz4mI3hhOzxnIGlkPSJnMTAyNzIwIiB0cmFuc2Zvcm09InRyYW5zbGF0ZSgtMC43NSwtMC43NTQ4KSI+JiN4YTsJPHRpdGxlIGlkPSJ0aXRsZTEwMjYwNSI+UGFnZS0xPC90aXRsZT4mI3hhOwk8ZyBpZD0iZ3JvdXAzNzA0LTEiIHRyYW5zZm9ybT0idHJhbnNsYXRlKDAuNzUsLTAuNzUpIj4mI3hhOwkJPHRpdGxlIGlkPSJ0aXRsZTEwMjYwNyI+UG9zdGdyZVNRTC42MzM8L3RpdGxlPiYjeGE7CQk8ZyBpZD0iZ3JvdXAzNzA1LTIiPiYjeGE7CQkJPHRpdGxlIGlkPSJ0aXRsZTEwMjYwOSI+Q0hlY2ttYXJrXzI8L3RpdGxlPiYjeGE7CQkJPGcgaWQ9InNoYXBlMzcwNi0zIj4mI3hhOwkJCQk8dGl0bGUgaWQ9InRpdGxlMTAyNjExIj5wYXRoMzY4NjwvdGl0bGU+JiN4YTsJCQkJPGcgaWQ9InNoYWRvdzM3MDYtNCI+JiN4YTsJCQkJPC9nPiYjeGE7CQkJCTxwYXRoIGlkPSJwYXRoMTAyNjE0IiBpbmtzY2FwZTpjb25uZWN0b3ItY3VydmF0dXJlPSIwIiBzdHlsZT0iZmlsbDojMzk5OEM1OyIgZD0iTTAsOS41NHY0NC4zMmMwLDQuNjYsMTAuMjgsOC4xMSwyMi44OCw4LjExICAgICAgVjkuNTRIMHoiLz4mI3hhOwkJCTwvZz4mI3hhOwkJCTxnIGlkPSJzaGFwZTM3MDctNiIgdHJhbnNmb3JtPSJ0cmFuc2xhdGUoMjIuODc5MykiPiYjeGE7CQkJCTx0aXRsZSBpZD0idGl0bGUxMDI2MTciPnBhdGgzNjg4PC90aXRsZT4mI3hhOwkJCQk8ZyBpZD0ic2hhZG93MzcwNy03Ij4mI3hhOwkJCQk8L2c+JiN4YTsJCQkJPHBhdGggaWQ9InBhdGgxMDI2MjAiIGlua3NjYXBlOmNvbm5lY3Rvci1jdXJ2YXR1cmU9IjAiIHN0eWxlPSJmaWxsOiM1OUIzRDg7IiBkPSJNMCw2MS45N2gwLjEyYzEyLjUyLDAsMjIuNzYtMy42NiwyMi43Ni04LjMxICAgICAgVjkuNTRIMFY2MS45N3oiLz4mI3hhOwkJCTwvZz4mI3hhOwkJCTxnIGlkPSJzaGFwZTM3MDgtOSIgdHJhbnNmb3JtPSJ0cmFuc2xhdGUoMCwtNDMuNzg1MikiPiYjeGE7CQkJCTx0aXRsZSBpZD0idGl0bGUxMDI2MjMiPnBhdGgzNjkwPC90aXRsZT4mI3hhOwkJCQk8ZyBpZD0ic2hhZG93MzcwOC0xMCI+JiN4YTsJCQkJPC9nPiYjeGE7CQkJCTxwYXRoIGlkPSJwYXRoMTAyNjI2IiBpbmtzY2FwZTpjb25uZWN0b3ItY3VydmF0dXJlPSIwIiBzdHlsZT0iZmlsbDojRkZGRkZGOyIgZD0iTTQ2LjAzLDUzLjY0YzAsNC41MS0xMC4zMSw4LjMzLTIyLjk1LDguMzMgICAgICBTMCw1OC4xNSwwLDUzLjY0YzAtNC41MiwxMC4zMS04LjM1LDIyLjk2LTguMzVDMzUuNiw0NS4yOSw0Ni4wMyw0OS4xLDQ2LjAzLDUzLjY0eiIvPiYjeGE7CQkJPC9nPiYjeGE7CQkJPGcgaWQ9InNoYXBlMzcwOS0xMiIgdHJhbnNmb3JtPSJ0cmFuc2xhdGUoNC42NjE2NSwtNDcuMDkzMikiPiYjeGE7CQkJCTx0aXRsZSBpZD0idGl0bGUxMDI2MjkiPnBhdGgzNjkyPC90aXRsZT4mI3hhOwkJCQk8ZyBpZD0ic2hhZG93MzcwOS0xMyI+JiN4YTsJCQkJPC9nPiYjeGE7CQkJCTxwYXRoIGlkPSJwYXRoMTAyNjMyIiBpbmtzY2FwZTpjb25uZWN0b3ItY3VydmF0dXJlPSIwIiBzdHlsZT0iZmlsbDojN0ZCOTAwOyIgZD0iTTM2LjcxLDU2LjQ1YzAsMy4wNy04LjIzLDUuNTItMTguMjksNS41MiAgICAgIEM4LjM1LDYxLjk3LDAsNTkuNTYsMCw1Ni40NXM4LjIzLTUuNTIsMTguMjktNS41MkMyOC4zNiw1MC45MywzNi43MSw1My4zOCwzNi43MSw1Ni40NXoiLz4mI3hhOwkJCTwvZz4mI3hhOwkJCTxnIGlkPSJzaGFwZTM3MTAtMTUiIHRyYW5zZm9ybT0idHJhbnNsYXRlKDQuNjYxNjUsLTQ5LjI5NTMpIj4mI3hhOwkJCQk8dGl0bGUgaWQ9InRpdGxlMTAyNjM1Ij5wYXRoMzY5NDwvdGl0bGU+JiN4YTsJCQkJPGcgaWQ9InNoYWRvdzM3MTAtMTYiPiYjeGE7CQkJCTwvZz4mI3hhOwkJCQk8cGF0aCBpZD0icGF0aDEwMjYzOCIgaW5rc2NhcGU6Y29ubmVjdG9yLWN1cnZhdHVyZT0iMCIgc3R5bGU9ImZpbGw6I0I3RDMzMjsiIGQ9Ik0zMi43OCw2MS45N2MyLjQ2LTAuOTYsMy44Mi0yLjA5LDMuODItMy4zMiAgICAgIGMwLTMuMDctOC4yMy01LjUyLTE4LjMtNS41MkM4LjI0LDUzLjEzLDAsNTUuNTgsMCw1OC42NWMwLDEuMjMsMS40OCwyLjQ2LDMuODEsMy4zMmMzLjMyLTEuMzYsOC41OC0yLjA5LDE0LjQ5LTIuMDkgICAgICBjNC45MS0wLjEsOS44MSwwLjYsMTQuNDksMi4wOUgzMi43OHoiLz4mI3hhOwkJCQk8cGF0aCBpZD0icGF0aDEwMjY0MCIgaW5rc2NhcGU6Y29ubmVjdG9yLWN1cnZhdHVyZT0iMCIgc3R5bGU9ImZpbGw6bm9uZTsiIGQ9Ik0zMi43OCw2MS45N2MyLjQ2LTAuOTYsMy44Mi0yLjA5LDMuODItMy4zMiAgICAgIGMwLTMuMDctOC4yMy01LjUyLTE4LjMtNS41MkM4LjI0LDUzLjEzLDAsNTUuNTgsMCw1OC42NWMwLDEuMjMsMS40OCwyLjQ2LDMuODEsMy4zMmMzLjMyLTEuMzYsOC41OC0yLjA5LDE0LjQ5LTIuMDkgICAgICBjNC45MS0wLjEsOS44MSwwLjYsMTQuNDksMi4wOSIvPiYjeGE7CQkJPC9nPiYjeGE7CQkJPGcgaWQ9Imdyb3VwMzcxMS0xOSIgdHJhbnNmb3JtPSJ0cmFuc2xhdGUoNy41NjkyMywtNy40NjQzNikiPiYjeGE7CQkJCTx0aXRsZSBpZD0idGl0bGUxMDI2NDMiPkxheWVyXzM8L3RpdGxlPiYjeGE7CQkJCTxnIGlkPSJzaGFwZTM3MTItMjAiIHRyYW5zZm9ybT0idHJhbnNsYXRlKDAuMDU3MTk4MikiPiYjeGE7CQkJCQk8dGl0bGUgaWQ9InRpdGxlMTAyNjQ1Ij5wYXRoMzY5NjwvdGl0bGU+JiN4YTsJCQkJCTxnIGlkPSJzaGFkb3czNzEyLTIxIj4mI3hhOwkJCQkJPC9nPiYjeGE7CQkJCQk8cGF0aCBpZD0icGF0aDEwMjY0OCIgaW5rc2NhcGU6Y29ubmVjdG9yLWN1cnZhdHVyZT0iMCIgc3R5bGU9ImZpbGw6IzMzNjc5MDsiIGQ9Ik0yOC4zMiw1MC4yM2MtMy42NSwwLjc2LTMuOTEtMC40OC0zLjkxLTAuNDggICAgICAgYzMuODItNS43Miw1LjQ4LTEzLDQuMDgtMTQuNzdjLTMuODEtNC44NS0xMC4zNy0yLjU1LTEwLjQ4LTIuNWMtMC44LTAuMTYtMS42Mi0wLjI1LTIuNDQtMC4yNmMtMS4zNy0wLjA2LTIuNzIsMC4zNS0zLjgyLDEuMTYgICAgICAgYzAsMC0xMS43NS00LjgyLTExLjI0LDYuMDhjMC4xMiwyLjMyLDMuMywxNy41NSw3LjEyLDEyLjk2YzEuNC0xLjY4LDIuNzQtMy4xMSwyLjc0LTMuMTFjMC42OCwwLjQ2LDEuNSwwLjY3LDIuMzIsMC41OSAgICAgICBsMC4wNy0wLjA2Yy0wLjAzLDAuMjItMC4wMywwLjQ0LDAsMC42NmMtMC45NiwxLjExLTAuNywxLjMtMi42NywxLjdjLTEuOTgsMC40LTAuODIsMS4xNC0wLjA2LDEuMzMgICAgICAgYzEuNjcsMC41NCwzLjQ5LTAuMDUsNC41Mi0xLjQ3bC0wLjA2LDAuMjNjMC4zOSwwLjMxLDAuNjYsMi4wMSwwLjYxLDMuNTZjLTAuMTMsMS4xNS0wLjA1LDIuMzEsMC4yMywzLjQzICAgICAgIGMwLjMsMC44MywwLjYxLDIuNjksMy4yLDIuMTRjMi4xNy0wLjQ3LDMuMjktMS42NywzLjQ0LTMuNjhjMC4xMS0xLjQyLDAuMzctMS4yMSwwLjM4LTIuNDhsMC4yMS0wLjYgICAgICAgYzAuMjItMS45MSwwLTIuNTYsMS4zNy0yLjI3aDAuMzJjMS4wMywwLjA0LDIuMDYtMC4xMywzLjAyLTAuNTFjMS42Mi0wLjc1LDIuNTktMi4wMSwwLjk2LTEuNjhMMjguMzIsNTAuMjN6Ii8+JiN4YTsJCQkJPC9nPiYjeGE7CQkJCTxnIGlkPSJzaGFwZTM3MTMtMjMiIHRyYW5zZm9ybT0idHJhbnNsYXRlKDE0LjcyODUsLTAuNDk1NzE4KSI+JiN4YTsJCQkJCTx0aXRsZSBpZD0idGl0bGUxMDI2NTEiPnBhdGgzNjk4PC90aXRsZT4mI3hhOwkJCQkJPGcgaWQ9InNoYWRvdzM3MTMtMjQiPiYjeGE7CQkJCQk8L2c+JiN4YTsJCQkJCTxwYXRoIGlkPSJwYXRoMTAyNjU0IiBpbmtzY2FwZTpjb25uZWN0b3ItY3VydmF0dXJlPSIwIiBzdHlsZT0iZmlsbDpub25lOyIgZD0iTTAuMSw1MS44M2MtMC4xLDMuNiwwLDcuMjIsMC4zOSw4LjEgICAgICAgYzAuMzcsMS41NCwxLjkyLDIuNDgsMy40NSwyLjExQzQuMDIsNjIuMDIsNC4xLDYyLDQuMTgsNjEuOTdjMi4xNy0wLjQ3LDIuOTYtMS4zNywzLjMtMy4zNWMwLjI1LTEuNDYsMC43NC01LjUxLDAuOC02LjM0ICAgICAgIEwwLjEsNTEuODN6Ii8+JiN4YTsJCQkJCSYjeGE7CQkJCQkJPHBhdGggaWQ9InBhdGgxMDI2NTYiIGlua3NjYXBlOmNvbm5lY3Rvci1jdXJ2YXR1cmU9IjAiIHN0eWxlPSJmaWxsOm5vbmU7c3Ryb2tlOiNGRkZGRkY7c3Ryb2tlLXdpZHRoOjAuNzY1O3N0cm9rZS1saW5lY2FwOnJvdW5kO3N0cm9rZS1saW5lam9pbjpyb3VuZDtzdHJva2UtbWl0ZXJsaW1pdDozOyIgZD0iICAgICAgIE0wLjEsNTEuODNjLTAuMSwzLjYsMCw3LjIyLDAuMzksOC4xYzAuMzcsMS41NCwxLjkyLDIuNDgsMy40NSwyLjExQzQuMDIsNjIuMDIsNC4xLDYyLDQuMTgsNjEuOTcgICAgICAgYzIuMTctMC40NywyLjk2LTEuMzcsMy4zLTMuMzVjMC4yNS0xLjQ2LDAuNzQtNS41MSwwLjgtNi4zNCIvPiYjeGE7CQkJCTwvZz4mI3hhOwkJCQk8ZyBpZD0ic2hhcGUzNzE0LTI3IiB0cmFuc2Zvcm09InRyYW5zbGF0ZSgwLC00Ljk5NTMxKSI+JiN4YTsJCQkJCTx0aXRsZSBpZD0idGl0bGUxMDI2NTkiPnBhdGgzNzAwPC90aXRsZT4mI3hhOwkJCQkJPGcgaWQ9InNoYWRvdzM3MTQtMjgiPiYjeGE7CQkJCQk8L2c+JiN4YTsJCQkJCTxwYXRoIGlkPSJwYXRoMTAyNjYyIiBpbmtzY2FwZTpjb25uZWN0b3ItY3VydmF0dXJlPSIwIiBzdHlsZT0iZmlsbDpub25lOyIgZD0iTTExLjc0LDM4LjI3YzAsMC0xMS43NC00Ljc3LTExLjE5LDYuMTEgICAgICAgYzAuMTEsMi4zNSwzLjMyLDE3LjU5LDcuMTMsMTIuOTVjMS40LTEuNjcsMi42Ni0zLDIuNjYtM0wxMS43NCwzOC4yN3oiLz4mI3hhOwkJCQkJJiN4YTsJCQkJCQk8cGF0aCBpZD0icGF0aDEwMjY2NCIgaW5rc2NhcGU6Y29ubmVjdG9yLWN1cnZhdHVyZT0iMCIgc3R5bGU9ImZpbGw6bm9uZTtzdHJva2U6I0ZGRkZGRjtzdHJva2Utd2lkdGg6MC43NjU7c3Ryb2tlLWxpbmVjYXA6cm91bmQ7c3Ryb2tlLWxpbmVqb2luOnJvdW5kO3N0cm9rZS1taXRlcmxpbWl0OjM7IiBkPSIgICAgICAgTTExLjc0LDM4LjI3YzAsMC0xMS43NC00Ljc3LTExLjE5LDYuMTFjMC4xMSwyLjM1LDMuMzIsMTcuNTksNy4xMywxMi45NWMxLjQtMS42NywyLjY2LTMsMi42Ni0zIi8+JiN4YTsJCQkJPC9nPiYjeGE7CQkJCTxnIGlkPSJzaGFwZTM3MTUtMzEiIHRyYW5zZm9ybT0idHJhbnNsYXRlKDE3LjY1NTIsLTEyLjI2OSkiPiYjeGE7CQkJCQk8dGl0bGUgaWQ9InRpdGxlMTAyNjY3Ij5wYXRoMzcwMjwvdGl0bGU+JiN4YTsJCQkJCTxnIGlkPSJzaGFkb3czNzE1LTMyIj4mI3hhOwkJCQkJPC9nPiYjeGE7CQkJCQk8cGF0aCBpZD0icGF0aDEwMjY3MCIgaW5rc2NhcGU6Y29ubmVjdG9yLWN1cnZhdHVyZT0iMCIgc3R5bGU9ImZpbGw6bm9uZTsiIGQ9Ik0wLjQxLDQ0LjdDMCw0NC44Myw2LjkzLDQyLjE3LDEwLjksNDcuMiAgICAgICBjMS4zOSwxLjc4LTAuMjIsOS4wNS00LjA4LDE0Ljc3TDAuNDEsNDQuN3oiLz4mI3hhOwkJCQkJJiN4YTsJCQkJCQk8cGF0aCBpZD0icGF0aDEwMjY3MiIgaW5rc2NhcGU6Y29ubmVjdG9yLWN1cnZhdHVyZT0iMCIgc3R5bGU9ImZpbGw6bm9uZTtzdHJva2U6I0ZGRkZGRjtzdHJva2Utd2lkdGg6MC43NjU7c3Ryb2tlLWxpbmVjYXA6cm91bmQ7c3Ryb2tlLWxpbmVqb2luOnJvdW5kO3N0cm9rZS1taXRlcmxpbWl0OjM7IiBkPSIgICAgICAgTTAuNDEsNDQuN0MwLDQ0LjgzLDYuOTMsNDIuMTcsMTAuOSw0Ny4yYzEuMzksMS43OC0wLjIyLDkuMDUtNC4wOCwxNC43NyIvPiYjeGE7CQkJCTwvZz4mI3hhOwkJCQk8ZyBpZD0ic2hhcGUzNzE2LTM1IiB0cmFuc2Zvcm09InRyYW5zbGF0ZSg4LjU0MTU5LC05LjMzMjg0KSI+JiN4YTsJCQkJCTx0aXRsZSBpZD0idGl0bGUxMDI2NzUiPnBhdGgzNzA0PC90aXRsZT4mI3hhOwkJCQkJPGcgaWQ9InNoYWRvdzM3MTYtMzYiPiYjeGE7CQkJCQk8L2c+JiN4YTsJCQkJCTxwYXRoIGlkPSJwYXRoMTAyNjc4IiBpbmtzY2FwZTpjb25uZWN0b3ItY3VydmF0dXJlPSIwIiBzdHlsZT0iZmlsbDpub25lOyIgZD0iTTE1LjkxLDU5LjAzYzAsMCwwLjI1LDEuMjQsMy45MSwwLjQ5ICAgICAgIGMxLjYtMC4zMywwLjY0LDAuOTUtMC45NSwxLjY4Yy0xLjM0LDAuNjItNC4zMiwwLjc3LTQuMzctMC4wOGMtMC4xMi0yLjIsMS41Ny0xLjU0LDEuNDUtMi4wOWMtMC4xMy0wLjU1LTAuODctMC45NS0xLjM3LTIuMiAgICAgICBjLTAuNDQtMS4wNi02LjAyLTkuMjEsMS41NC04YzAuMjgtMC4wNi0xLjk3LTcuMTktOS4wNS03LjNDMCw0MS40MSwwLjIsNTAuMjMsMC4yLDUwLjIzTDE1LjkxLDU5LjAzeiIvPiYjeGE7CQkJCQkmI3hhOwkJCQkJCTxwYXRoIGlkPSJwYXRoMTAyNjgwIiBpbmtzY2FwZTpjb25uZWN0b3ItY3VydmF0dXJlPSIwIiBzdHlsZT0iZmlsbDpub25lO3N0cm9rZTojRkZGRkZGO3N0cm9rZS13aWR0aDowLjc2NTtzdHJva2UtbGluZWNhcDpyb3VuZDtzdHJva2UtbGluZWpvaW46cm91bmQ7c3Ryb2tlLW1pdGVybGltaXQ6MzsiIGQ9IiAgICAgICBNMTUuOTEsNTkuMDNjMCwwLDAuMjUsMS4yNCwzLjkxLDAuNDljMS42LTAuMzMsMC42NCwwLjk1LTAuOTUsMS42OGMtMS4zNCwwLjYyLTQuMzIsMC43Ny00LjM3LTAuMDggICAgICAgYy0wLjEyLTIuMiwxLjU3LTEuNTQsMS40NS0yLjA5Yy0wLjEzLTAuNTUtMC44Ny0wLjk1LTEuMzctMi4yYy0wLjQ0LTEuMDYtNi4wMi05LjIxLDEuNTQtOGMwLjI4LTAuMDYtMS45Ny03LjE5LTkuMDUtNy4zICAgICAgIEMwLDQxLjQxLDAuMiw1MC4yMywwLjIsNTAuMjMiLz4mI3hhOwkJCQk8L2c+JiN4YTsJCQkJPGcgaWQ9InNoYXBlMzcxNy0zOSIgdHJhbnNmb3JtPSJ0cmFuc2xhdGUoOC4yMTc0NywtOC41MDM0NikiPiYjeGE7CQkJCQk8dGl0bGUgaWQ9InRpdGxlMTAyNjgzIj5wYXRoMzcwNjwvdGl0bGU+JiN4YTsJCQkJCTxnIGlkPSJzaGFkb3czNzE3LTQwIj4mI3hhOwkJCQkJPC9nPiYjeGE7CQkJCQkmI3hhOwkJCQkJCTxwYXRoIGlkPSJwYXRoMTAyNjg2IiBpbmtzY2FwZTpjb25uZWN0b3ItY3VydmF0dXJlPSIwIiBzdHlsZT0iZmlsbDpub25lO3N0cm9rZTojRkZGRkZGO3N0cm9rZS13aWR0aDowLjc2NTtzdHJva2UtbGluZWNhcDpyb3VuZDtzdHJva2UtbGluZWpvaW46cm91bmQ7c3Ryb2tlLW1pdGVybGltaXQ6MzsiIGQ9IiAgICAgICBNNC42NCw1OC45NGMtMC45NSwxLjEtMC42OSwxLjI5LTIuNjcsMS42OWMtMS45NywwLjQtMC44MiwxLjE1LTAuMDUsMS4zNGMxLjY2LDAuNTMsMy40OC0wLjA2LDQuNTEtMS40NyAgICAgICBjMC4zNS0wLjY2LDAuMS0xLjQ4LTAuNTYtMS44M0g1LjgyYy0wLjQxLTAuMjMtMC45My0wLjExLTEuMTksMC4yOUw0LjY0LDU4Ljk0eiIvPiYjeGE7CQkJCTwvZz4mI3hhOwkJCQk8ZyBpZD0ic2hhcGUzNzE4LTQyIiB0cmFuc2Zvcm09InRyYW5zbGF0ZSg4LjYzNjkyLC0xMS41MzUpIj4mI3hhOwkJCQkJPHRpdGxlIGlkPSJ0aXRsZTEwMjY4OSI+cGF0aDM3MDg8L3RpdGxlPiYjeGE7CQkJCQk8ZyBpZD0ic2hhZG93MzcxOC00MyI+JiN4YTsJCQkJCTwvZz4mI3hhOwkJCQkJPHBhdGggaWQ9InBhdGgxMDI2OTIiIGlua3NjYXBlOmNvbm5lY3Rvci1jdXJ2YXR1cmU9IjAiIHN0eWxlPSJmaWxsOm5vbmU7IiBkPSJNNC4xNiw2MS45N2MwLTAuOCwwLjE4LTEuNiwwLjU0LTIuMzIgICAgICAgYzAuNTEtMS4zNSwxLjY2LTIuNzEsMC43My03Yy0wLjY5LTMuMTktNS4zMy0wLjY2LTUuMzMtMC4yMmMwLjExLDEuNDIsMC4wNywyLjg0LTAuMSw0LjI1Yy0wLjQsMi4xOCwxLjA0LDQuMjYsMy4yMiw0LjY2ICAgICAgIGMwLjI5LDAuMDUsMC41OSwwLjA3LDAuODgsMC4wNkw0LjE2LDYxLjk3eiIvPiYjeGE7CQkJCQkmI3hhOwkJCQkJCTxwYXRoIGlkPSJwYXRoMTAyNjk0IiBpbmtzY2FwZTpjb25uZWN0b3ItY3VydmF0dXJlPSIwIiBzdHlsZT0iZmlsbDpub25lO3N0cm9rZTojRkZGRkZGO3N0cm9rZS13aWR0aDowLjc2NTtzdHJva2UtbGluZWNhcDpyb3VuZDtzdHJva2UtbGluZWpvaW46cm91bmQ7c3Ryb2tlLW1pdGVybGltaXQ6MzsiIGQ9IiAgICAgICBNNC4xNiw2MS45N2MwLTAuOCwwLjE4LTEuNiwwLjU0LTIuMzJjMC41MS0xLjM1LDEuNjYtMi43MSwwLjczLTdjLTAuNjktMy4xOS01LjMzLTAuNjYtNS4zMy0wLjIyICAgICAgIGMwLjExLDEuNDIsMC4wNywyLjg0LTAuMSw0LjI1Yy0wLjQsMi4xOCwxLjA0LDQuMjYsMy4yMiw0LjY2YzAuMjksMC4wNSwwLjU5LDAuMDcsMC44OCwwLjA2Ii8+JiN4YTsJCQkJPC9nPiYjeGE7CQkJCTxnIGlkPSJzaGFwZTM3MTktNDYiIHRyYW5zZm9ybT0idHJhbnNsYXRlKDExLjY4NzUsLTIwLjU0MzcpIj4mI3hhOwkJCQkJPHRpdGxlIGlkPSJ0aXRsZTEwMjY5NyI+cGF0aDM3MTA8L3RpdGxlPiYjeGE7CQkJCQk8ZyBpZD0ic2hhZG93MzcxOS00NyI+JiN4YTsJCQkJCTwvZz4mI3hhOwkJCQkJJiN4YTsJCQkJCQk8cGF0aCBpZD0icGF0aDEwMjcwMCIgaW5rc2NhcGU6Y29ubmVjdG9yLWN1cnZhdHVyZT0iMCIgc3R5bGU9ImZpbGw6I0ZGRkZGRjtzdHJva2U6I0ZGRkZGRjtzdHJva2Utd2lkdGg6MC40MTI1O3N0cm9rZS1saW5lY2FwOnNxdWFyZTtzdHJva2UtbWl0ZXJsaW1pdDozOyIgZD0iICAgICAgIE0wLDYxLjM3YzAsMC4xNSwwLjI4LDAuNTQsMC42NSwwLjZjMC4zLDAuMDQsMC41OS0wLjEyLDAuNzItMC40YzAtMC4xNS0wLjI3LTAuMzItMC42NS0wLjM2Yy0wLjM3LTAuMDUtMC43LDAtMC43MiwwLjE3VjYxLjM3ICAgICAgIHoiLz4mI3hhOwkJCQk8L2c+JiN4YTsJCQkJPGcgaWQ9InNoYXBlMzcyMC00OSIgdHJhbnNmb3JtPSJ0cmFuc2xhdGUoMjEuODk3NCwtMjAuODQ4NykiPiYjeGE7CQkJCQk8dGl0bGUgaWQ9InRpdGxlMTAyNzAzIj5wYXRoMzcxMjwvdGl0bGU+JiN4YTsJCQkJCTxnIGlkPSJzaGFkb3czNzIwLTUwIj4mI3hhOwkJCQkJPC9nPiYjeGE7CQkJCQkmI3hhOwkJCQkJCTxwYXRoIGlkPSJwYXRoMTAyNzA2IiBpbmtzY2FwZTpjb25uZWN0b3ItY3VydmF0dXJlPSIwIiBzdHlsZT0iZmlsbDojRkZGRkZGO3N0cm9rZTojRkZGRkZGO3N0cm9rZS13aWR0aDowLjIxO3N0cm9rZS1saW5lY2FwOnNxdWFyZTtzdHJva2UtbWl0ZXJsaW1pdDozOyIgZD0iICAgICAgIE0xLjM3LDYxLjM3YzAsMC4xNS0wLjI3LDAuNTQtMC42NSwwLjZjLTAuMywwLjA0LTAuNTktMC4xMi0wLjcyLTAuNGMwLTAuMTUsMC4yOC0wLjMyLDAuNjUtMC4zNiAgICAgICBDMS4wMiw2MS4xNiwxLjM1LDYxLjIxLDEuMzcsNjEuMzdMMS4zNyw2MS4zN3oiLz4mI3hhOwkJCQk8L2c+JiN4YTsJCQkJPGcgaWQ9InNoYXBlMzcyMS01MiIgdHJhbnNmb3JtPSJ0cmFuc2xhdGUoMjMuODEzNSwtMTMuMzY1MykiPiYjeGE7CQkJCQk8dGl0bGUgaWQ9InRpdGxlMTAyNzA5Ij5wYXRoMzcxNDwvdGl0bGU+JiN4YTsJCQkJCTxnIGlkPSJzaGFkb3czNzIxLTUzIj4mI3hhOwkJCQkJPC9nPiYjeGE7CQkJCQk8cGF0aCBpZD0icGF0aDEwMjcxMiIgaW5rc2NhcGU6Y29ubmVjdG9yLWN1cnZhdHVyZT0iMCIgc3R5bGU9ImZpbGw6bm9uZTsiIGQ9Ik0wLjgxLDUyLjg2YzAuMDcsMS4xNy0wLjI1LDEuOTEtMC4yOSwzLjIgICAgICAgYy0wLjA1LDEuOCwwLjg2LDMuODEtMC41Miw1LjkxTDAuODEsNTIuODZ6Ii8+JiN4YTsJCQkJCSYjeGE7CQkJCQkJPHBhdGggaWQ9InBhdGgxMDI3MTQiIGlua3NjYXBlOmNvbm5lY3Rvci1jdXJ2YXR1cmU9IjAiIHN0eWxlPSJmaWxsOm5vbmU7c3Ryb2tlOiNGRkZGRkY7c3Ryb2tlLXdpZHRoOjAuNzY1O3N0cm9rZS1saW5lY2FwOnJvdW5kO3N0cm9rZS1saW5lam9pbjpyb3VuZDtzdHJva2UtbWl0ZXJsaW1pdDozOyIgZD0iICAgICAgIE0wLjgxLDUyLjg2YzAuMDcsMS4xNy0wLjI1LDEuOTEtMC4yOSwzLjJjLTAuMDUsMS44LDAuODYsMy44MS0wLjUyLDUuOTEiLz4mI3hhOwkJCQk8L2c+JiN4YTsJCQk8L2c+JiN4YTsJCTwvZz4mI3hhOwk8L2c+JiN4YTs8L2c+JiN4YTs8L3N2Zz4=;" vertex="1" parent="1">
          <mxGeometry x="789" y="314" width="46" height="60" as="geometry" />
        </mxCell>
        <mxCell id="KOKp6EKpK6rq5gHab_TY-15" value="WebUI_CtaCte" style="verticalLabelPosition=bottom;html=1;verticalAlign=top;align=center;strokeColor=none;fillColor=#00BEF2;shape=mxgraph.azure.azure_website;pointerEvents=1;labelBackgroundColor=default;" vertex="1" parent="1">
          <mxGeometry x="787" y="510" width="50" height="50" as="geometry" />
        </mxCell>
        <mxCell id="KOKp6EKpK6rq5gHab_TY-16" value="API" style="aspect=fixed;html=1;points=[];align=center;image;fontSize=12;image=img/lib/azure2/app_services/API_Management_Services.svg;" vertex="1" parent="1">
          <mxGeometry x="779.5" y="414" width="65" height="60" as="geometry" />
        </mxCell>
        <mxCell id="KOKp6EKpK6rq5gHab_TY-17" value="" style="verticalLabelPosition=bottom;html=1;verticalAlign=top;align=center;strokeColor=none;fillColor=#00BEF2;shape=mxgraph.azure.scheduler;pointerEvents=1;labelBackgroundColor=default;" vertex="1" parent="1">
          <mxGeometry x="837" y="319" width="40" height="50" as="geometry" />
        </mxCell>
        <mxCell id="KOKp6EKpK6rq5gHab_TY-18" value="CtaCte / Pagos" style="rounded=1;whiteSpace=wrap;html=1;shadow=0;strokeWidth=2;fillColor=#d5e8d4;fontSize=12;align=center;strokeColor=#82b366;arcSize=6;verticalAlign=top;" vertex="1" parent="1">
          <mxGeometry x="920" y="280" width="100" height="334" as="geometry" />
        </mxCell>
        <mxCell id="KOKp6EKpK6rq5gHab_TY-19" value="MetroIN_CtaCte" style="shape=image;verticalLabelPosition=bottom;labelBackgroundColor=#ffffff;verticalAlign=top;aspect=fixed;imageAspect=0;image=data:image/svg+xml,PHN2ZyB4bWxuczpjYz0iaHR0cDovL2NyZWF0aXZlY29tbW9ucy5vcmcvbnMjIiB4bWxuczpkYz0iaHR0cDovL3B1cmwub3JnL2RjL2VsZW1lbnRzLzEuMS8iIHhtbG5zOmlua3NjYXBlPSJodHRwOi8vd3d3Lmlua3NjYXBlLm9yZy9uYW1lc3BhY2VzL2lua3NjYXBlIiB4bWxuczpyZGY9Imh0dHA6Ly93d3cudzMub3JnLzE5OTkvMDIvMjItcmRmLXN5bnRheC1ucyMiIHhtbG5zOnNvZGlwb2RpPSJodHRwOi8vc29kaXBvZGkuc291cmNlZm9yZ2UubmV0L0RURC9zb2RpcG9kaS0wLmR0ZCIgeG1sbnM6c3ZnPSJodHRwOi8vd3d3LnczLm9yZy8yMDAwL3N2ZyIgeG1sbnM9Imh0dHA6Ly93d3cudzMub3JnLzIwMDAvc3ZnIiB4bWxuczp4bGluaz0iaHR0cDovL3d3dy53My5vcmcvMTk5OS94bGluayIgdmVyc2lvbj0iMS4xIiBpZD0ic3ZnMTAyNzIyIiBpbmtzY2FwZTp2ZXJzaW9uPSIwLjkyLjMgKDI0MDU1NDYsIDIwMTgtMDMtMTEpIiBzb2RpcG9kaTpkb2NuYW1lPSJwb3N0Z3Jlc3FsLnN2ZyIgeD0iMHB4IiB5PSIwcHgiIHZpZXdCb3g9IjAgMCA0Ni4wMyA2MC40NyIgc3R5bGU9ImVuYWJsZS1iYWNrZ3JvdW5kOm5ldyAwIDAgNDYuMDMgNjAuNDc7IiB4bWw6c3BhY2U9InByZXNlcnZlIj4mI3hhOzxzb2RpcG9kaTpuYW1lZHZpZXcgYm9yZGVyY29sb3I9IiM2NjY2NjYiIGJvcmRlcm9wYWNpdHk9IjEiIGZpdC1tYXJnaW4tYm90dG9tPSIwIiBmaXQtbWFyZ2luLWxlZnQ9IjAiIGZpdC1tYXJnaW4tcmlnaHQ9IjAiIGZpdC1tYXJnaW4tdG9wPSIwIiBncmlkdG9sZXJhbmNlPSIxMCIgZ3VpZGV0b2xlcmFuY2U9IjEwIiBpZD0ibmFtZWR2aWV3MTAyNzI0IiBpbmtzY2FwZTpjdXJyZW50LWxheWVyPSJzdmcxMDI3MjIiIGlua3NjYXBlOmN4PSIzMC42ODk5ODMiIGlua3NjYXBlOmN5PSI0MC4zMTQ2NDUiIGlua3NjYXBlOnBhZ2VvcGFjaXR5PSIwIiBpbmtzY2FwZTpwYWdlc2hhZG93PSIyIiBpbmtzY2FwZTp3aW5kb3ctaGVpZ2h0PSIxMDE3IiBpbmtzY2FwZTp3aW5kb3ctbWF4aW1pemVkPSIxIiBpbmtzY2FwZTp3aW5kb3ctd2lkdGg9IjE5MjAiIGlua3NjYXBlOndpbmRvdy14PSItOCIgaW5rc2NhcGU6d2luZG93LXk9Ii04IiBpbmtzY2FwZTp6b29tPSIxMC40OTMzMTUiIG9iamVjdHRvbGVyYW5jZT0iMTAiIHBhZ2Vjb2xvcj0iI2ZmZmZmZiIgc2hvd2dyaWQ9ImZhbHNlIj4mI3hhOwk8L3NvZGlwb2RpOm5hbWVkdmlldz4mI3hhOzxnIGlkPSJnMTAyNzIwIiB0cmFuc2Zvcm09InRyYW5zbGF0ZSgtMC43NSwtMC43NTQ4KSI+JiN4YTsJPHRpdGxlIGlkPSJ0aXRsZTEwMjYwNSI+UGFnZS0xPC90aXRsZT4mI3hhOwk8ZyBpZD0iZ3JvdXAzNzA0LTEiIHRyYW5zZm9ybT0idHJhbnNsYXRlKDAuNzUsLTAuNzUpIj4mI3hhOwkJPHRpdGxlIGlkPSJ0aXRsZTEwMjYwNyI+UG9zdGdyZVNRTC42MzM8L3RpdGxlPiYjeGE7CQk8ZyBpZD0iZ3JvdXAzNzA1LTIiPiYjeGE7CQkJPHRpdGxlIGlkPSJ0aXRsZTEwMjYwOSI+Q0hlY2ttYXJrXzI8L3RpdGxlPiYjeGE7CQkJPGcgaWQ9InNoYXBlMzcwNi0zIj4mI3hhOwkJCQk8dGl0bGUgaWQ9InRpdGxlMTAyNjExIj5wYXRoMzY4NjwvdGl0bGU+JiN4YTsJCQkJPGcgaWQ9InNoYWRvdzM3MDYtNCI+JiN4YTsJCQkJPC9nPiYjeGE7CQkJCTxwYXRoIGlkPSJwYXRoMTAyNjE0IiBpbmtzY2FwZTpjb25uZWN0b3ItY3VydmF0dXJlPSIwIiBzdHlsZT0iZmlsbDojMzk5OEM1OyIgZD0iTTAsOS41NHY0NC4zMmMwLDQuNjYsMTAuMjgsOC4xMSwyMi44OCw4LjExICAgICAgVjkuNTRIMHoiLz4mI3hhOwkJCTwvZz4mI3hhOwkJCTxnIGlkPSJzaGFwZTM3MDctNiIgdHJhbnNmb3JtPSJ0cmFuc2xhdGUoMjIuODc5MykiPiYjeGE7CQkJCTx0aXRsZSBpZD0idGl0bGUxMDI2MTciPnBhdGgzNjg4PC90aXRsZT4mI3hhOwkJCQk8ZyBpZD0ic2hhZG93MzcwNy03Ij4mI3hhOwkJCQk8L2c+JiN4YTsJCQkJPHBhdGggaWQ9InBhdGgxMDI2MjAiIGlua3NjYXBlOmNvbm5lY3Rvci1jdXJ2YXR1cmU9IjAiIHN0eWxlPSJmaWxsOiM1OUIzRDg7IiBkPSJNMCw2MS45N2gwLjEyYzEyLjUyLDAsMjIuNzYtMy42NiwyMi43Ni04LjMxICAgICAgVjkuNTRIMFY2MS45N3oiLz4mI3hhOwkJCTwvZz4mI3hhOwkJCTxnIGlkPSJzaGFwZTM3MDgtOSIgdHJhbnNmb3JtPSJ0cmFuc2xhdGUoMCwtNDMuNzg1MikiPiYjeGE7CQkJCTx0aXRsZSBpZD0idGl0bGUxMDI2MjMiPnBhdGgzNjkwPC90aXRsZT4mI3hhOwkJCQk8ZyBpZD0ic2hhZG93MzcwOC0xMCI+JiN4YTsJCQkJPC9nPiYjeGE7CQkJCTxwYXRoIGlkPSJwYXRoMTAyNjI2IiBpbmtzY2FwZTpjb25uZWN0b3ItY3VydmF0dXJlPSIwIiBzdHlsZT0iZmlsbDojRkZGRkZGOyIgZD0iTTQ2LjAzLDUzLjY0YzAsNC41MS0xMC4zMSw4LjMzLTIyLjk1LDguMzMgICAgICBTMCw1OC4xNSwwLDUzLjY0YzAtNC41MiwxMC4zMS04LjM1LDIyLjk2LTguMzVDMzUuNiw0NS4yOSw0Ni4wMyw0OS4xLDQ2LjAzLDUzLjY0eiIvPiYjeGE7CQkJPC9nPiYjeGE7CQkJPGcgaWQ9InNoYXBlMzcwOS0xMiIgdHJhbnNmb3JtPSJ0cmFuc2xhdGUoNC42NjE2NSwtNDcuMDkzMikiPiYjeGE7CQkJCTx0aXRsZSBpZD0idGl0bGUxMDI2MjkiPnBhdGgzNjkyPC90aXRsZT4mI3hhOwkJCQk8ZyBpZD0ic2hhZG93MzcwOS0xMyI+JiN4YTsJCQkJPC9nPiYjeGE7CQkJCTxwYXRoIGlkPSJwYXRoMTAyNjMyIiBpbmtzY2FwZTpjb25uZWN0b3ItY3VydmF0dXJlPSIwIiBzdHlsZT0iZmlsbDojN0ZCOTAwOyIgZD0iTTM2LjcxLDU2LjQ1YzAsMy4wNy04LjIzLDUuNTItMTguMjksNS41MiAgICAgIEM4LjM1LDYxLjk3LDAsNTkuNTYsMCw1Ni40NXM4LjIzLTUuNTIsMTguMjktNS41MkMyOC4zNiw1MC45MywzNi43MSw1My4zOCwzNi43MSw1Ni40NXoiLz4mI3hhOwkJCTwvZz4mI3hhOwkJCTxnIGlkPSJzaGFwZTM3MTAtMTUiIHRyYW5zZm9ybT0idHJhbnNsYXRlKDQuNjYxNjUsLTQ5LjI5NTMpIj4mI3hhOwkJCQk8dGl0bGUgaWQ9InRpdGxlMTAyNjM1Ij5wYXRoMzY5NDwvdGl0bGU+JiN4YTsJCQkJPGcgaWQ9InNoYWRvdzM3MTAtMTYiPiYjeGE7CQkJCTwvZz4mI3hhOwkJCQk8cGF0aCBpZD0icGF0aDEwMjYzOCIgaW5rc2NhcGU6Y29ubmVjdG9yLWN1cnZhdHVyZT0iMCIgc3R5bGU9ImZpbGw6I0I3RDMzMjsiIGQ9Ik0zMi43OCw2MS45N2MyLjQ2LTAuOTYsMy44Mi0yLjA5LDMuODItMy4zMiAgICAgIGMwLTMuMDctOC4yMy01LjUyLTE4LjMtNS41MkM4LjI0LDUzLjEzLDAsNTUuNTgsMCw1OC42NWMwLDEuMjMsMS40OCwyLjQ2LDMuODEsMy4zMmMzLjMyLTEuMzYsOC41OC0yLjA5LDE0LjQ5LTIuMDkgICAgICBjNC45MS0wLjEsOS44MSwwLjYsMTQuNDksMi4wOUgzMi43OHoiLz4mI3hhOwkJCQk8cGF0aCBpZD0icGF0aDEwMjY0MCIgaW5rc2NhcGU6Y29ubmVjdG9yLWN1cnZhdHVyZT0iMCIgc3R5bGU9ImZpbGw6bm9uZTsiIGQ9Ik0zMi43OCw2MS45N2MyLjQ2LTAuOTYsMy44Mi0yLjA5LDMuODItMy4zMiAgICAgIGMwLTMuMDctOC4yMy01LjUyLTE4LjMtNS41MkM4LjI0LDUzLjEzLDAsNTUuNTgsMCw1OC42NWMwLDEuMjMsMS40OCwyLjQ2LDMuODEsMy4zMmMzLjMyLTEuMzYsOC41OC0yLjA5LDE0LjQ5LTIuMDkgICAgICBjNC45MS0wLjEsOS44MSwwLjYsMTQuNDksMi4wOSIvPiYjeGE7CQkJPC9nPiYjeGE7CQkJPGcgaWQ9Imdyb3VwMzcxMS0xOSIgdHJhbnNmb3JtPSJ0cmFuc2xhdGUoNy41NjkyMywtNy40NjQzNikiPiYjeGE7CQkJCTx0aXRsZSBpZD0idGl0bGUxMDI2NDMiPkxheWVyXzM8L3RpdGxlPiYjeGE7CQkJCTxnIGlkPSJzaGFwZTM3MTItMjAiIHRyYW5zZm9ybT0idHJhbnNsYXRlKDAuMDU3MTk4MikiPiYjeGE7CQkJCQk8dGl0bGUgaWQ9InRpdGxlMTAyNjQ1Ij5wYXRoMzY5NjwvdGl0bGU+JiN4YTsJCQkJCTxnIGlkPSJzaGFkb3czNzEyLTIxIj4mI3hhOwkJCQkJPC9nPiYjeGE7CQkJCQk8cGF0aCBpZD0icGF0aDEwMjY0OCIgaW5rc2NhcGU6Y29ubmVjdG9yLWN1cnZhdHVyZT0iMCIgc3R5bGU9ImZpbGw6IzMzNjc5MDsiIGQ9Ik0yOC4zMiw1MC4yM2MtMy42NSwwLjc2LTMuOTEtMC40OC0zLjkxLTAuNDggICAgICAgYzMuODItNS43Miw1LjQ4LTEzLDQuMDgtMTQuNzdjLTMuODEtNC44NS0xMC4zNy0yLjU1LTEwLjQ4LTIuNWMtMC44LTAuMTYtMS42Mi0wLjI1LTIuNDQtMC4yNmMtMS4zNy0wLjA2LTIuNzIsMC4zNS0zLjgyLDEuMTYgICAgICAgYzAsMC0xMS43NS00LjgyLTExLjI0LDYuMDhjMC4xMiwyLjMyLDMuMywxNy41NSw3LjEyLDEyLjk2YzEuNC0xLjY4LDIuNzQtMy4xMSwyLjc0LTMuMTFjMC42OCwwLjQ2LDEuNSwwLjY3LDIuMzIsMC41OSAgICAgICBsMC4wNy0wLjA2Yy0wLjAzLDAuMjItMC4wMywwLjQ0LDAsMC42NmMtMC45NiwxLjExLTAuNywxLjMtMi42NywxLjdjLTEuOTgsMC40LTAuODIsMS4xNC0wLjA2LDEuMzMgICAgICAgYzEuNjcsMC41NCwzLjQ5LTAuMDUsNC41Mi0xLjQ3bC0wLjA2LDAuMjNjMC4zOSwwLjMxLDAuNjYsMi4wMSwwLjYxLDMuNTZjLTAuMTMsMS4xNS0wLjA1LDIuMzEsMC4yMywzLjQzICAgICAgIGMwLjMsMC44MywwLjYxLDIuNjksMy4yLDIuMTRjMi4xNy0wLjQ3LDMuMjktMS42NywzLjQ0LTMuNjhjMC4xMS0xLjQyLDAuMzctMS4yMSwwLjM4LTIuNDhsMC4yMS0wLjYgICAgICAgYzAuMjItMS45MSwwLTIuNTYsMS4zNy0yLjI3aDAuMzJjMS4wMywwLjA0LDIuMDYtMC4xMywzLjAyLTAuNTFjMS42Mi0wLjc1LDIuNTktMi4wMSwwLjk2LTEuNjhMMjguMzIsNTAuMjN6Ii8+JiN4YTsJCQkJPC9nPiYjeGE7CQkJCTxnIGlkPSJzaGFwZTM3MTMtMjMiIHRyYW5zZm9ybT0idHJhbnNsYXRlKDE0LjcyODUsLTAuNDk1NzE4KSI+JiN4YTsJCQkJCTx0aXRsZSBpZD0idGl0bGUxMDI2NTEiPnBhdGgzNjk4PC90aXRsZT4mI3hhOwkJCQkJPGcgaWQ9InNoYWRvdzM3MTMtMjQiPiYjeGE7CQkJCQk8L2c+JiN4YTsJCQkJCTxwYXRoIGlkPSJwYXRoMTAyNjU0IiBpbmtzY2FwZTpjb25uZWN0b3ItY3VydmF0dXJlPSIwIiBzdHlsZT0iZmlsbDpub25lOyIgZD0iTTAuMSw1MS44M2MtMC4xLDMuNiwwLDcuMjIsMC4zOSw4LjEgICAgICAgYzAuMzcsMS41NCwxLjkyLDIuNDgsMy40NSwyLjExQzQuMDIsNjIuMDIsNC4xLDYyLDQuMTgsNjEuOTdjMi4xNy0wLjQ3LDIuOTYtMS4zNywzLjMtMy4zNWMwLjI1LTEuNDYsMC43NC01LjUxLDAuOC02LjM0ICAgICAgIEwwLjEsNTEuODN6Ii8+JiN4YTsJCQkJCSYjeGE7CQkJCQkJPHBhdGggaWQ9InBhdGgxMDI2NTYiIGlua3NjYXBlOmNvbm5lY3Rvci1jdXJ2YXR1cmU9IjAiIHN0eWxlPSJmaWxsOm5vbmU7c3Ryb2tlOiNGRkZGRkY7c3Ryb2tlLXdpZHRoOjAuNzY1O3N0cm9rZS1saW5lY2FwOnJvdW5kO3N0cm9rZS1saW5lam9pbjpyb3VuZDtzdHJva2UtbWl0ZXJsaW1pdDozOyIgZD0iICAgICAgIE0wLjEsNTEuODNjLTAuMSwzLjYsMCw3LjIyLDAuMzksOC4xYzAuMzcsMS41NCwxLjkyLDIuNDgsMy40NSwyLjExQzQuMDIsNjIuMDIsNC4xLDYyLDQuMTgsNjEuOTcgICAgICAgYzIuMTctMC40NywyLjk2LTEuMzcsMy4zLTMuMzVjMC4yNS0xLjQ2LDAuNzQtNS41MSwwLjgtNi4zNCIvPiYjeGE7CQkJCTwvZz4mI3hhOwkJCQk8ZyBpZD0ic2hhcGUzNzE0LTI3IiB0cmFuc2Zvcm09InRyYW5zbGF0ZSgwLC00Ljk5NTMxKSI+JiN4YTsJCQkJCTx0aXRsZSBpZD0idGl0bGUxMDI2NTkiPnBhdGgzNzAwPC90aXRsZT4mI3hhOwkJCQkJPGcgaWQ9InNoYWRvdzM3MTQtMjgiPiYjeGE7CQkJCQk8L2c+JiN4YTsJCQkJCTxwYXRoIGlkPSJwYXRoMTAyNjYyIiBpbmtzY2FwZTpjb25uZWN0b3ItY3VydmF0dXJlPSIwIiBzdHlsZT0iZmlsbDpub25lOyIgZD0iTTExLjc0LDM4LjI3YzAsMC0xMS43NC00Ljc3LTExLjE5LDYuMTEgICAgICAgYzAuMTEsMi4zNSwzLjMyLDE3LjU5LDcuMTMsMTIuOTVjMS40LTEuNjcsMi42Ni0zLDIuNjYtM0wxMS43NCwzOC4yN3oiLz4mI3hhOwkJCQkJJiN4YTsJCQkJCQk8cGF0aCBpZD0icGF0aDEwMjY2NCIgaW5rc2NhcGU6Y29ubmVjdG9yLWN1cnZhdHVyZT0iMCIgc3R5bGU9ImZpbGw6bm9uZTtzdHJva2U6I0ZGRkZGRjtzdHJva2Utd2lkdGg6MC43NjU7c3Ryb2tlLWxpbmVjYXA6cm91bmQ7c3Ryb2tlLWxpbmVqb2luOnJvdW5kO3N0cm9rZS1taXRlcmxpbWl0OjM7IiBkPSIgICAgICAgTTExLjc0LDM4LjI3YzAsMC0xMS43NC00Ljc3LTExLjE5LDYuMTFjMC4xMSwyLjM1LDMuMzIsMTcuNTksNy4xMywxMi45NWMxLjQtMS42NywyLjY2LTMsMi42Ni0zIi8+JiN4YTsJCQkJPC9nPiYjeGE7CQkJCTxnIGlkPSJzaGFwZTM3MTUtMzEiIHRyYW5zZm9ybT0idHJhbnNsYXRlKDE3LjY1NTIsLTEyLjI2OSkiPiYjeGE7CQkJCQk8dGl0bGUgaWQ9InRpdGxlMTAyNjY3Ij5wYXRoMzcwMjwvdGl0bGU+JiN4YTsJCQkJCTxnIGlkPSJzaGFkb3czNzE1LTMyIj4mI3hhOwkJCQkJPC9nPiYjeGE7CQkJCQk8cGF0aCBpZD0icGF0aDEwMjY3MCIgaW5rc2NhcGU6Y29ubmVjdG9yLWN1cnZhdHVyZT0iMCIgc3R5bGU9ImZpbGw6bm9uZTsiIGQ9Ik0wLjQxLDQ0LjdDMCw0NC44Myw2LjkzLDQyLjE3LDEwLjksNDcuMiAgICAgICBjMS4zOSwxLjc4LTAuMjIsOS4wNS00LjA4LDE0Ljc3TDAuNDEsNDQuN3oiLz4mI3hhOwkJCQkJJiN4YTsJCQkJCQk8cGF0aCBpZD0icGF0aDEwMjY3MiIgaW5rc2NhcGU6Y29ubmVjdG9yLWN1cnZhdHVyZT0iMCIgc3R5bGU9ImZpbGw6bm9uZTtzdHJva2U6I0ZGRkZGRjtzdHJva2Utd2lkdGg6MC43NjU7c3Ryb2tlLWxpbmVjYXA6cm91bmQ7c3Ryb2tlLWxpbmVqb2luOnJvdW5kO3N0cm9rZS1taXRlcmxpbWl0OjM7IiBkPSIgICAgICAgTTAuNDEsNDQuN0MwLDQ0LjgzLDYuOTMsNDIuMTcsMTAuOSw0Ny4yYzEuMzksMS43OC0wLjIyLDkuMDUtNC4wOCwxNC43NyIvPiYjeGE7CQkJCTwvZz4mI3hhOwkJCQk8ZyBpZD0ic2hhcGUzNzE2LTM1IiB0cmFuc2Zvcm09InRyYW5zbGF0ZSg4LjU0MTU5LC05LjMzMjg0KSI+JiN4YTsJCQkJCTx0aXRsZSBpZD0idGl0bGUxMDI2NzUiPnBhdGgzNzA0PC90aXRsZT4mI3hhOwkJCQkJPGcgaWQ9InNoYWRvdzM3MTYtMzYiPiYjeGE7CQkJCQk8L2c+JiN4YTsJCQkJCTxwYXRoIGlkPSJwYXRoMTAyNjc4IiBpbmtzY2FwZTpjb25uZWN0b3ItY3VydmF0dXJlPSIwIiBzdHlsZT0iZmlsbDpub25lOyIgZD0iTTE1LjkxLDU5LjAzYzAsMCwwLjI1LDEuMjQsMy45MSwwLjQ5ICAgICAgIGMxLjYtMC4zMywwLjY0LDAuOTUtMC45NSwxLjY4Yy0xLjM0LDAuNjItNC4zMiwwLjc3LTQuMzctMC4wOGMtMC4xMi0yLjIsMS41Ny0xLjU0LDEuNDUtMi4wOWMtMC4xMy0wLjU1LTAuODctMC45NS0xLjM3LTIuMiAgICAgICBjLTAuNDQtMS4wNi02LjAyLTkuMjEsMS41NC04YzAuMjgtMC4wNi0xLjk3LTcuMTktOS4wNS03LjNDMCw0MS40MSwwLjIsNTAuMjMsMC4yLDUwLjIzTDE1LjkxLDU5LjAzeiIvPiYjeGE7CQkJCQkmI3hhOwkJCQkJCTxwYXRoIGlkPSJwYXRoMTAyNjgwIiBpbmtzY2FwZTpjb25uZWN0b3ItY3VydmF0dXJlPSIwIiBzdHlsZT0iZmlsbDpub25lO3N0cm9rZTojRkZGRkZGO3N0cm9rZS13aWR0aDowLjc2NTtzdHJva2UtbGluZWNhcDpyb3VuZDtzdHJva2UtbGluZWpvaW46cm91bmQ7c3Ryb2tlLW1pdGVybGltaXQ6MzsiIGQ9IiAgICAgICBNMTUuOTEsNTkuMDNjMCwwLDAuMjUsMS4yNCwzLjkxLDAuNDljMS42LTAuMzMsMC42NCwwLjk1LTAuOTUsMS42OGMtMS4zNCwwLjYyLTQuMzIsMC43Ny00LjM3LTAuMDggICAgICAgYy0wLjEyLTIuMiwxLjU3LTEuNTQsMS40NS0yLjA5Yy0wLjEzLTAuNTUtMC44Ny0wLjk1LTEuMzctMi4yYy0wLjQ0LTEuMDYtNi4wMi05LjIxLDEuNTQtOGMwLjI4LTAuMDYtMS45Ny03LjE5LTkuMDUtNy4zICAgICAgIEMwLDQxLjQxLDAuMiw1MC4yMywwLjIsNTAuMjMiLz4mI3hhOwkJCQk8L2c+JiN4YTsJCQkJPGcgaWQ9InNoYXBlMzcxNy0zOSIgdHJhbnNmb3JtPSJ0cmFuc2xhdGUoOC4yMTc0NywtOC41MDM0NikiPiYjeGE7CQkJCQk8dGl0bGUgaWQ9InRpdGxlMTAyNjgzIj5wYXRoMzcwNjwvdGl0bGU+JiN4YTsJCQkJCTxnIGlkPSJzaGFkb3czNzE3LTQwIj4mI3hhOwkJCQkJPC9nPiYjeGE7CQkJCQkmI3hhOwkJCQkJCTxwYXRoIGlkPSJwYXRoMTAyNjg2IiBpbmtzY2FwZTpjb25uZWN0b3ItY3VydmF0dXJlPSIwIiBzdHlsZT0iZmlsbDpub25lO3N0cm9rZTojRkZGRkZGO3N0cm9rZS13aWR0aDowLjc2NTtzdHJva2UtbGluZWNhcDpyb3VuZDtzdHJva2UtbGluZWpvaW46cm91bmQ7c3Ryb2tlLW1pdGVybGltaXQ6MzsiIGQ9IiAgICAgICBNNC42NCw1OC45NGMtMC45NSwxLjEtMC42OSwxLjI5LTIuNjcsMS42OWMtMS45NywwLjQtMC44MiwxLjE1LTAuMDUsMS4zNGMxLjY2LDAuNTMsMy40OC0wLjA2LDQuNTEtMS40NyAgICAgICBjMC4zNS0wLjY2LDAuMS0xLjQ4LTAuNTYtMS44M0g1LjgyYy0wLjQxLTAuMjMtMC45My0wLjExLTEuMTksMC4yOUw0LjY0LDU4Ljk0eiIvPiYjeGE7CQkJCTwvZz4mI3hhOwkJCQk8ZyBpZD0ic2hhcGUzNzE4LTQyIiB0cmFuc2Zvcm09InRyYW5zbGF0ZSg4LjYzNjkyLC0xMS41MzUpIj4mI3hhOwkJCQkJPHRpdGxlIGlkPSJ0aXRsZTEwMjY4OSI+cGF0aDM3MDg8L3RpdGxlPiYjeGE7CQkJCQk8ZyBpZD0ic2hhZG93MzcxOC00MyI+JiN4YTsJCQkJCTwvZz4mI3hhOwkJCQkJPHBhdGggaWQ9InBhdGgxMDI2OTIiIGlua3NjYXBlOmNvbm5lY3Rvci1jdXJ2YXR1cmU9IjAiIHN0eWxlPSJmaWxsOm5vbmU7IiBkPSJNNC4xNiw2MS45N2MwLTAuOCwwLjE4LTEuNiwwLjU0LTIuMzIgICAgICAgYzAuNTEtMS4zNSwxLjY2LTIuNzEsMC43My03Yy0wLjY5LTMuMTktNS4zMy0wLjY2LTUuMzMtMC4yMmMwLjExLDEuNDIsMC4wNywyLjg0LTAuMSw0LjI1Yy0wLjQsMi4xOCwxLjA0LDQuMjYsMy4yMiw0LjY2ICAgICAgIGMwLjI5LDAuMDUsMC41OSwwLjA3LDAuODgsMC4wNkw0LjE2LDYxLjk3eiIvPiYjeGE7CQkJCQkmI3hhOwkJCQkJCTxwYXRoIGlkPSJwYXRoMTAyNjk0IiBpbmtzY2FwZTpjb25uZWN0b3ItY3VydmF0dXJlPSIwIiBzdHlsZT0iZmlsbDpub25lO3N0cm9rZTojRkZGRkZGO3N0cm9rZS13aWR0aDowLjc2NTtzdHJva2UtbGluZWNhcDpyb3VuZDtzdHJva2UtbGluZWpvaW46cm91bmQ7c3Ryb2tlLW1pdGVybGltaXQ6MzsiIGQ9IiAgICAgICBNNC4xNiw2MS45N2MwLTAuOCwwLjE4LTEuNiwwLjU0LTIuMzJjMC41MS0xLjM1LDEuNjYtMi43MSwwLjczLTdjLTAuNjktMy4xOS01LjMzLTAuNjYtNS4zMy0wLjIyICAgICAgIGMwLjExLDEuNDIsMC4wNywyLjg0LTAuMSw0LjI1Yy0wLjQsMi4xOCwxLjA0LDQuMjYsMy4yMiw0LjY2YzAuMjksMC4wNSwwLjU5LDAuMDcsMC44OCwwLjA2Ii8+JiN4YTsJCQkJPC9nPiYjeGE7CQkJCTxnIGlkPSJzaGFwZTM3MTktNDYiIHRyYW5zZm9ybT0idHJhbnNsYXRlKDExLjY4NzUsLTIwLjU0MzcpIj4mI3hhOwkJCQkJPHRpdGxlIGlkPSJ0aXRsZTEwMjY5NyI+cGF0aDM3MTA8L3RpdGxlPiYjeGE7CQkJCQk8ZyBpZD0ic2hhZG93MzcxOS00NyI+JiN4YTsJCQkJCTwvZz4mI3hhOwkJCQkJJiN4YTsJCQkJCQk8cGF0aCBpZD0icGF0aDEwMjcwMCIgaW5rc2NhcGU6Y29ubmVjdG9yLWN1cnZhdHVyZT0iMCIgc3R5bGU9ImZpbGw6I0ZGRkZGRjtzdHJva2U6I0ZGRkZGRjtzdHJva2Utd2lkdGg6MC40MTI1O3N0cm9rZS1saW5lY2FwOnNxdWFyZTtzdHJva2UtbWl0ZXJsaW1pdDozOyIgZD0iICAgICAgIE0wLDYxLjM3YzAsMC4xNSwwLjI4LDAuNTQsMC42NSwwLjZjMC4zLDAuMDQsMC41OS0wLjEyLDAuNzItMC40YzAtMC4xNS0wLjI3LTAuMzItMC42NS0wLjM2Yy0wLjM3LTAuMDUtMC43LDAtMC43MiwwLjE3VjYxLjM3ICAgICAgIHoiLz4mI3hhOwkJCQk8L2c+JiN4YTsJCQkJPGcgaWQ9InNoYXBlMzcyMC00OSIgdHJhbnNmb3JtPSJ0cmFuc2xhdGUoMjEuODk3NCwtMjAuODQ4NykiPiYjeGE7CQkJCQk8dGl0bGUgaWQ9InRpdGxlMTAyNzAzIj5wYXRoMzcxMjwvdGl0bGU+JiN4YTsJCQkJCTxnIGlkPSJzaGFkb3czNzIwLTUwIj4mI3hhOwkJCQkJPC9nPiYjeGE7CQkJCQkmI3hhOwkJCQkJCTxwYXRoIGlkPSJwYXRoMTAyNzA2IiBpbmtzY2FwZTpjb25uZWN0b3ItY3VydmF0dXJlPSIwIiBzdHlsZT0iZmlsbDojRkZGRkZGO3N0cm9rZTojRkZGRkZGO3N0cm9rZS13aWR0aDowLjIxO3N0cm9rZS1saW5lY2FwOnNxdWFyZTtzdHJva2UtbWl0ZXJsaW1pdDozOyIgZD0iICAgICAgIE0xLjM3LDYxLjM3YzAsMC4xNS0wLjI3LDAuNTQtMC42NSwwLjZjLTAuMywwLjA0LTAuNTktMC4xMi0wLjcyLTAuNGMwLTAuMTUsMC4yOC0wLjMyLDAuNjUtMC4zNiAgICAgICBDMS4wMiw2MS4xNiwxLjM1LDYxLjIxLDEuMzcsNjEuMzdMMS4zNyw2MS4zN3oiLz4mI3hhOwkJCQk8L2c+JiN4YTsJCQkJPGcgaWQ9InNoYXBlMzcyMS01MiIgdHJhbnNmb3JtPSJ0cmFuc2xhdGUoMjMuODEzNSwtMTMuMzY1MykiPiYjeGE7CQkJCQk8dGl0bGUgaWQ9InRpdGxlMTAyNzA5Ij5wYXRoMzcxNDwvdGl0bGU+JiN4YTsJCQkJCTxnIGlkPSJzaGFkb3czNzIxLTUzIj4mI3hhOwkJCQkJPC9nPiYjeGE7CQkJCQk8cGF0aCBpZD0icGF0aDEwMjcxMiIgaW5rc2NhcGU6Y29ubmVjdG9yLWN1cnZhdHVyZT0iMCIgc3R5bGU9ImZpbGw6bm9uZTsiIGQ9Ik0wLjgxLDUyLjg2YzAuMDcsMS4xNy0wLjI1LDEuOTEtMC4yOSwzLjIgICAgICAgYy0wLjA1LDEuOCwwLjg2LDMuODEtMC41Miw1LjkxTDAuODEsNTIuODZ6Ii8+JiN4YTsJCQkJCSYjeGE7CQkJCQkJPHBhdGggaWQ9InBhdGgxMDI3MTQiIGlua3NjYXBlOmNvbm5lY3Rvci1jdXJ2YXR1cmU9IjAiIHN0eWxlPSJmaWxsOm5vbmU7c3Ryb2tlOiNGRkZGRkY7c3Ryb2tlLXdpZHRoOjAuNzY1O3N0cm9rZS1saW5lY2FwOnJvdW5kO3N0cm9rZS1saW5lam9pbjpyb3VuZDtzdHJva2UtbWl0ZXJsaW1pdDozOyIgZD0iICAgICAgIE0wLjgxLDUyLjg2YzAuMDcsMS4xNy0wLjI1LDEuOTEtMC4yOSwzLjJjLTAuMDUsMS44LDAuODYsMy44MS0wLjUyLDUuOTEiLz4mI3hhOwkJCQk8L2c+JiN4YTsJCQk8L2c+JiN4YTsJCTwvZz4mI3hhOwk8L2c+JiN4YTs8L2c+JiN4YTs8L3N2Zz4=;" vertex="1" parent="1">
          <mxGeometry x="950" y="314" width="46" height="60" as="geometry" />
        </mxCell>
        <mxCell id="KOKp6EKpK6rq5gHab_TY-21" value="API" style="aspect=fixed;html=1;points=[];align=center;image;fontSize=12;image=img/lib/azure2/app_services/API_Management_Services.svg;" vertex="1" parent="1">
          <mxGeometry x="940.5" y="414" width="65" height="60" as="geometry" />
        </mxCell>
        <mxCell id="KOKp6EKpK6rq5gHab_TY-22" value="" style="verticalLabelPosition=bottom;html=1;verticalAlign=top;align=center;strokeColor=none;fillColor=#00BEF2;shape=mxgraph.azure.scheduler;pointerEvents=1;labelBackgroundColor=default;" vertex="1" parent="1">
          <mxGeometry x="998" y="319" width="40" height="50" as="geometry" />
        </mxCell>
        <mxCell id="KOKp6EKpK6rq5gHab_TY-23" value="Facturacion" style="rounded=1;whiteSpace=wrap;html=1;shadow=0;strokeWidth=2;fillColor=#fff2cc;fontSize=12;align=center;strokeColor=#d6b656;arcSize=6;verticalAlign=top;" vertex="1" parent="1">
          <mxGeometry x="1080" y="280" width="100" height="334" as="geometry" />
        </mxCell>
        <mxCell id="KOKp6EKpK6rq5gHab_TY-24" value="MetroIN_FC" style="shape=image;verticalLabelPosition=bottom;labelBackgroundColor=#ffffff;verticalAlign=top;aspect=fixed;imageAspect=0;image=data:image/svg+xml,PHN2ZyB4bWxuczpjYz0iaHR0cDovL2NyZWF0aXZlY29tbW9ucy5vcmcvbnMjIiB4bWxuczpkYz0iaHR0cDovL3B1cmwub3JnL2RjL2VsZW1lbnRzLzEuMS8iIHhtbG5zOmlua3NjYXBlPSJodHRwOi8vd3d3Lmlua3NjYXBlLm9yZy9uYW1lc3BhY2VzL2lua3NjYXBlIiB4bWxuczpyZGY9Imh0dHA6Ly93d3cudzMub3JnLzE5OTkvMDIvMjItcmRmLXN5bnRheC1ucyMiIHhtbG5zOnNvZGlwb2RpPSJodHRwOi8vc29kaXBvZGkuc291cmNlZm9yZ2UubmV0L0RURC9zb2RpcG9kaS0wLmR0ZCIgeG1sbnM6c3ZnPSJodHRwOi8vd3d3LnczLm9yZy8yMDAwL3N2ZyIgeG1sbnM9Imh0dHA6Ly93d3cudzMub3JnLzIwMDAvc3ZnIiB4bWxuczp4bGluaz0iaHR0cDovL3d3dy53My5vcmcvMTk5OS94bGluayIgdmVyc2lvbj0iMS4xIiBpZD0ic3ZnMTAyNzIyIiBpbmtzY2FwZTp2ZXJzaW9uPSIwLjkyLjMgKDI0MDU1NDYsIDIwMTgtMDMtMTEpIiBzb2RpcG9kaTpkb2NuYW1lPSJwb3N0Z3Jlc3FsLnN2ZyIgeD0iMHB4IiB5PSIwcHgiIHZpZXdCb3g9IjAgMCA0Ni4wMyA2MC40NyIgc3R5bGU9ImVuYWJsZS1iYWNrZ3JvdW5kOm5ldyAwIDAgNDYuMDMgNjAuNDc7IiB4bWw6c3BhY2U9InByZXNlcnZlIj4mI3hhOzxzb2RpcG9kaTpuYW1lZHZpZXcgYm9yZGVyY29sb3I9IiM2NjY2NjYiIGJvcmRlcm9wYWNpdHk9IjEiIGZpdC1tYXJnaW4tYm90dG9tPSIwIiBmaXQtbWFyZ2luLWxlZnQ9IjAiIGZpdC1tYXJnaW4tcmlnaHQ9IjAiIGZpdC1tYXJnaW4tdG9wPSIwIiBncmlkdG9sZXJhbmNlPSIxMCIgZ3VpZGV0b2xlcmFuY2U9IjEwIiBpZD0ibmFtZWR2aWV3MTAyNzI0IiBpbmtzY2FwZTpjdXJyZW50LWxheWVyPSJzdmcxMDI3MjIiIGlua3NjYXBlOmN4PSIzMC42ODk5ODMiIGlua3NjYXBlOmN5PSI0MC4zMTQ2NDUiIGlua3NjYXBlOnBhZ2VvcGFjaXR5PSIwIiBpbmtzY2FwZTpwYWdlc2hhZG93PSIyIiBpbmtzY2FwZTp3aW5kb3ctaGVpZ2h0PSIxMDE3IiBpbmtzY2FwZTp3aW5kb3ctbWF4aW1pemVkPSIxIiBpbmtzY2FwZTp3aW5kb3ctd2lkdGg9IjE5MjAiIGlua3NjYXBlOndpbmRvdy14PSItOCIgaW5rc2NhcGU6d2luZG93LXk9Ii04IiBpbmtzY2FwZTp6b29tPSIxMC40OTMzMTUiIG9iamVjdHRvbGVyYW5jZT0iMTAiIHBhZ2Vjb2xvcj0iI2ZmZmZmZiIgc2hvd2dyaWQ9ImZhbHNlIj4mI3hhOwk8L3NvZGlwb2RpOm5hbWVkdmlldz4mI3hhOzxnIGlkPSJnMTAyNzIwIiB0cmFuc2Zvcm09InRyYW5zbGF0ZSgtMC43NSwtMC43NTQ4KSI+JiN4YTsJPHRpdGxlIGlkPSJ0aXRsZTEwMjYwNSI+UGFnZS0xPC90aXRsZT4mI3hhOwk8ZyBpZD0iZ3JvdXAzNzA0LTEiIHRyYW5zZm9ybT0idHJhbnNsYXRlKDAuNzUsLTAuNzUpIj4mI3hhOwkJPHRpdGxlIGlkPSJ0aXRsZTEwMjYwNyI+UG9zdGdyZVNRTC42MzM8L3RpdGxlPiYjeGE7CQk8ZyBpZD0iZ3JvdXAzNzA1LTIiPiYjeGE7CQkJPHRpdGxlIGlkPSJ0aXRsZTEwMjYwOSI+Q0hlY2ttYXJrXzI8L3RpdGxlPiYjeGE7CQkJPGcgaWQ9InNoYXBlMzcwNi0zIj4mI3hhOwkJCQk8dGl0bGUgaWQ9InRpdGxlMTAyNjExIj5wYXRoMzY4NjwvdGl0bGU+JiN4YTsJCQkJPGcgaWQ9InNoYWRvdzM3MDYtNCI+JiN4YTsJCQkJPC9nPiYjeGE7CQkJCTxwYXRoIGlkPSJwYXRoMTAyNjE0IiBpbmtzY2FwZTpjb25uZWN0b3ItY3VydmF0dXJlPSIwIiBzdHlsZT0iZmlsbDojMzk5OEM1OyIgZD0iTTAsOS41NHY0NC4zMmMwLDQuNjYsMTAuMjgsOC4xMSwyMi44OCw4LjExICAgICAgVjkuNTRIMHoiLz4mI3hhOwkJCTwvZz4mI3hhOwkJCTxnIGlkPSJzaGFwZTM3MDctNiIgdHJhbnNmb3JtPSJ0cmFuc2xhdGUoMjIuODc5MykiPiYjeGE7CQkJCTx0aXRsZSBpZD0idGl0bGUxMDI2MTciPnBhdGgzNjg4PC90aXRsZT4mI3hhOwkJCQk8ZyBpZD0ic2hhZG93MzcwNy03Ij4mI3hhOwkJCQk8L2c+JiN4YTsJCQkJPHBhdGggaWQ9InBhdGgxMDI2MjAiIGlua3NjYXBlOmNvbm5lY3Rvci1jdXJ2YXR1cmU9IjAiIHN0eWxlPSJmaWxsOiM1OUIzRDg7IiBkPSJNMCw2MS45N2gwLjEyYzEyLjUyLDAsMjIuNzYtMy42NiwyMi43Ni04LjMxICAgICAgVjkuNTRIMFY2MS45N3oiLz4mI3hhOwkJCTwvZz4mI3hhOwkJCTxnIGlkPSJzaGFwZTM3MDgtOSIgdHJhbnNmb3JtPSJ0cmFuc2xhdGUoMCwtNDMuNzg1MikiPiYjeGE7CQkJCTx0aXRsZSBpZD0idGl0bGUxMDI2MjMiPnBhdGgzNjkwPC90aXRsZT4mI3hhOwkJCQk8ZyBpZD0ic2hhZG93MzcwOC0xMCI+JiN4YTsJCQkJPC9nPiYjeGE7CQkJCTxwYXRoIGlkPSJwYXRoMTAyNjI2IiBpbmtzY2FwZTpjb25uZWN0b3ItY3VydmF0dXJlPSIwIiBzdHlsZT0iZmlsbDojRkZGRkZGOyIgZD0iTTQ2LjAzLDUzLjY0YzAsNC41MS0xMC4zMSw4LjMzLTIyLjk1LDguMzMgICAgICBTMCw1OC4xNSwwLDUzLjY0YzAtNC41MiwxMC4zMS04LjM1LDIyLjk2LTguMzVDMzUuNiw0NS4yOSw0Ni4wMyw0OS4xLDQ2LjAzLDUzLjY0eiIvPiYjeGE7CQkJPC9nPiYjeGE7CQkJPGcgaWQ9InNoYXBlMzcwOS0xMiIgdHJhbnNmb3JtPSJ0cmFuc2xhdGUoNC42NjE2NSwtNDcuMDkzMikiPiYjeGE7CQkJCTx0aXRsZSBpZD0idGl0bGUxMDI2MjkiPnBhdGgzNjkyPC90aXRsZT4mI3hhOwkJCQk8ZyBpZD0ic2hhZG93MzcwOS0xMyI+JiN4YTsJCQkJPC9nPiYjeGE7CQkJCTxwYXRoIGlkPSJwYXRoMTAyNjMyIiBpbmtzY2FwZTpjb25uZWN0b3ItY3VydmF0dXJlPSIwIiBzdHlsZT0iZmlsbDojN0ZCOTAwOyIgZD0iTTM2LjcxLDU2LjQ1YzAsMy4wNy04LjIzLDUuNTItMTguMjksNS41MiAgICAgIEM4LjM1LDYxLjk3LDAsNTkuNTYsMCw1Ni40NXM4LjIzLTUuNTIsMTguMjktNS41MkMyOC4zNiw1MC45MywzNi43MSw1My4zOCwzNi43MSw1Ni40NXoiLz4mI3hhOwkJCTwvZz4mI3hhOwkJCTxnIGlkPSJzaGFwZTM3MTAtMTUiIHRyYW5zZm9ybT0idHJhbnNsYXRlKDQuNjYxNjUsLTQ5LjI5NTMpIj4mI3hhOwkJCQk8dGl0bGUgaWQ9InRpdGxlMTAyNjM1Ij5wYXRoMzY5NDwvdGl0bGU+JiN4YTsJCQkJPGcgaWQ9InNoYWRvdzM3MTAtMTYiPiYjeGE7CQkJCTwvZz4mI3hhOwkJCQk8cGF0aCBpZD0icGF0aDEwMjYzOCIgaW5rc2NhcGU6Y29ubmVjdG9yLWN1cnZhdHVyZT0iMCIgc3R5bGU9ImZpbGw6I0I3RDMzMjsiIGQ9Ik0zMi43OCw2MS45N2MyLjQ2LTAuOTYsMy44Mi0yLjA5LDMuODItMy4zMiAgICAgIGMwLTMuMDctOC4yMy01LjUyLTE4LjMtNS41MkM4LjI0LDUzLjEzLDAsNTUuNTgsMCw1OC42NWMwLDEuMjMsMS40OCwyLjQ2LDMuODEsMy4zMmMzLjMyLTEuMzYsOC41OC0yLjA5LDE0LjQ5LTIuMDkgICAgICBjNC45MS0wLjEsOS44MSwwLjYsMTQuNDksMi4wOUgzMi43OHoiLz4mI3hhOwkJCQk8cGF0aCBpZD0icGF0aDEwMjY0MCIgaW5rc2NhcGU6Y29ubmVjdG9yLWN1cnZhdHVyZT0iMCIgc3R5bGU9ImZpbGw6bm9uZTsiIGQ9Ik0zMi43OCw2MS45N2MyLjQ2LTAuOTYsMy44Mi0yLjA5LDMuODItMy4zMiAgICAgIGMwLTMuMDctOC4yMy01LjUyLTE4LjMtNS41MkM4LjI0LDUzLjEzLDAsNTUuNTgsMCw1OC42NWMwLDEuMjMsMS40OCwyLjQ2LDMuODEsMy4zMmMzLjMyLTEuMzYsOC41OC0yLjA5LDE0LjQ5LTIuMDkgICAgICBjNC45MS0wLjEsOS44MSwwLjYsMTQuNDksMi4wOSIvPiYjeGE7CQkJPC9nPiYjeGE7CQkJPGcgaWQ9Imdyb3VwMzcxMS0xOSIgdHJhbnNmb3JtPSJ0cmFuc2xhdGUoNy41NjkyMywtNy40NjQzNikiPiYjeGE7CQkJCTx0aXRsZSBpZD0idGl0bGUxMDI2NDMiPkxheWVyXzM8L3RpdGxlPiYjeGE7CQkJCTxnIGlkPSJzaGFwZTM3MTItMjAiIHRyYW5zZm9ybT0idHJhbnNsYXRlKDAuMDU3MTk4MikiPiYjeGE7CQkJCQk8dGl0bGUgaWQ9InRpdGxlMTAyNjQ1Ij5wYXRoMzY5NjwvdGl0bGU+JiN4YTsJCQkJCTxnIGlkPSJzaGFkb3czNzEyLTIxIj4mI3hhOwkJCQkJPC9nPiYjeGE7CQkJCQk8cGF0aCBpZD0icGF0aDEwMjY0OCIgaW5rc2NhcGU6Y29ubmVjdG9yLWN1cnZhdHVyZT0iMCIgc3R5bGU9ImZpbGw6IzMzNjc5MDsiIGQ9Ik0yOC4zMiw1MC4yM2MtMy42NSwwLjc2LTMuOTEtMC40OC0zLjkxLTAuNDggICAgICAgYzMuODItNS43Miw1LjQ4LTEzLDQuMDgtMTQuNzdjLTMuODEtNC44NS0xMC4zNy0yLjU1LTEwLjQ4LTIuNWMtMC44LTAuMTYtMS42Mi0wLjI1LTIuNDQtMC4yNmMtMS4zNy0wLjA2LTIuNzIsMC4zNS0zLjgyLDEuMTYgICAgICAgYzAsMC0xMS43NS00LjgyLTExLjI0LDYuMDhjMC4xMiwyLjMyLDMuMywxNy41NSw3LjEyLDEyLjk2YzEuNC0xLjY4LDIuNzQtMy4xMSwyLjc0LTMuMTFjMC42OCwwLjQ2LDEuNSwwLjY3LDIuMzIsMC41OSAgICAgICBsMC4wNy0wLjA2Yy0wLjAzLDAuMjItMC4wMywwLjQ0LDAsMC42NmMtMC45NiwxLjExLTAuNywxLjMtMi42NywxLjdjLTEuOTgsMC40LTAuODIsMS4xNC0wLjA2LDEuMzMgICAgICAgYzEuNjcsMC41NCwzLjQ5LTAuMDUsNC41Mi0xLjQ3bC0wLjA2LDAuMjNjMC4zOSwwLjMxLDAuNjYsMi4wMSwwLjYxLDMuNTZjLTAuMTMsMS4xNS0wLjA1LDIuMzEsMC4yMywzLjQzICAgICAgIGMwLjMsMC44MywwLjYxLDIuNjksMy4yLDIuMTRjMi4xNy0wLjQ3LDMuMjktMS42NywzLjQ0LTMuNjhjMC4xMS0xLjQyLDAuMzctMS4yMSwwLjM4LTIuNDhsMC4yMS0wLjYgICAgICAgYzAuMjItMS45MSwwLTIuNTYsMS4zNy0yLjI3aDAuMzJjMS4wMywwLjA0LDIuMDYtMC4xMywzLjAyLTAuNTFjMS42Mi0wLjc1LDIuNTktMi4wMSwwLjk2LTEuNjhMMjguMzIsNTAuMjN6Ii8+JiN4YTsJCQkJPC9nPiYjeGE7CQkJCTxnIGlkPSJzaGFwZTM3MTMtMjMiIHRyYW5zZm9ybT0idHJhbnNsYXRlKDE0LjcyODUsLTAuNDk1NzE4KSI+JiN4YTsJCQkJCTx0aXRsZSBpZD0idGl0bGUxMDI2NTEiPnBhdGgzNjk4PC90aXRsZT4mI3hhOwkJCQkJPGcgaWQ9InNoYWRvdzM3MTMtMjQiPiYjeGE7CQkJCQk8L2c+JiN4YTsJCQkJCTxwYXRoIGlkPSJwYXRoMTAyNjU0IiBpbmtzY2FwZTpjb25uZWN0b3ItY3VydmF0dXJlPSIwIiBzdHlsZT0iZmlsbDpub25lOyIgZD0iTTAuMSw1MS44M2MtMC4xLDMuNiwwLDcuMjIsMC4zOSw4LjEgICAgICAgYzAuMzcsMS41NCwxLjkyLDIuNDgsMy40NSwyLjExQzQuMDIsNjIuMDIsNC4xLDYyLDQuMTgsNjEuOTdjMi4xNy0wLjQ3LDIuOTYtMS4zNywzLjMtMy4zNWMwLjI1LTEuNDYsMC43NC01LjUxLDAuOC02LjM0ICAgICAgIEwwLjEsNTEuODN6Ii8+JiN4YTsJCQkJCSYjeGE7CQkJCQkJPHBhdGggaWQ9InBhdGgxMDI2NTYiIGlua3NjYXBlOmNvbm5lY3Rvci1jdXJ2YXR1cmU9IjAiIHN0eWxlPSJmaWxsOm5vbmU7c3Ryb2tlOiNGRkZGRkY7c3Ryb2tlLXdpZHRoOjAuNzY1O3N0cm9rZS1saW5lY2FwOnJvdW5kO3N0cm9rZS1saW5lam9pbjpyb3VuZDtzdHJva2UtbWl0ZXJsaW1pdDozOyIgZD0iICAgICAgIE0wLjEsNTEuODNjLTAuMSwzLjYsMCw3LjIyLDAuMzksOC4xYzAuMzcsMS41NCwxLjkyLDIuNDgsMy40NSwyLjExQzQuMDIsNjIuMDIsNC4xLDYyLDQuMTgsNjEuOTcgICAgICAgYzIuMTctMC40NywyLjk2LTEuMzcsMy4zLTMuMzVjMC4yNS0xLjQ2LDAuNzQtNS41MSwwLjgtNi4zNCIvPiYjeGE7CQkJCTwvZz4mI3hhOwkJCQk8ZyBpZD0ic2hhcGUzNzE0LTI3IiB0cmFuc2Zvcm09InRyYW5zbGF0ZSgwLC00Ljk5NTMxKSI+JiN4YTsJCQkJCTx0aXRsZSBpZD0idGl0bGUxMDI2NTkiPnBhdGgzNzAwPC90aXRsZT4mI3hhOwkJCQkJPGcgaWQ9InNoYWRvdzM3MTQtMjgiPiYjeGE7CQkJCQk8L2c+JiN4YTsJCQkJCTxwYXRoIGlkPSJwYXRoMTAyNjYyIiBpbmtzY2FwZTpjb25uZWN0b3ItY3VydmF0dXJlPSIwIiBzdHlsZT0iZmlsbDpub25lOyIgZD0iTTExLjc0LDM4LjI3YzAsMC0xMS43NC00Ljc3LTExLjE5LDYuMTEgICAgICAgYzAuMTEsMi4zNSwzLjMyLDE3LjU5LDcuMTMsMTIuOTVjMS40LTEuNjcsMi42Ni0zLDIuNjYtM0wxMS43NCwzOC4yN3oiLz4mI3hhOwkJCQkJJiN4YTsJCQkJCQk8cGF0aCBpZD0icGF0aDEwMjY2NCIgaW5rc2NhcGU6Y29ubmVjdG9yLWN1cnZhdHVyZT0iMCIgc3R5bGU9ImZpbGw6bm9uZTtzdHJva2U6I0ZGRkZGRjtzdHJva2Utd2lkdGg6MC43NjU7c3Ryb2tlLWxpbmVjYXA6cm91bmQ7c3Ryb2tlLWxpbmVqb2luOnJvdW5kO3N0cm9rZS1taXRlcmxpbWl0OjM7IiBkPSIgICAgICAgTTExLjc0LDM4LjI3YzAsMC0xMS43NC00Ljc3LTExLjE5LDYuMTFjMC4xMSwyLjM1LDMuMzIsMTcuNTksNy4xMywxMi45NWMxLjQtMS42NywyLjY2LTMsMi42Ni0zIi8+JiN4YTsJCQkJPC9nPiYjeGE7CQkJCTxnIGlkPSJzaGFwZTM3MTUtMzEiIHRyYW5zZm9ybT0idHJhbnNsYXRlKDE3LjY1NTIsLTEyLjI2OSkiPiYjeGE7CQkJCQk8dGl0bGUgaWQ9InRpdGxlMTAyNjY3Ij5wYXRoMzcwMjwvdGl0bGU+JiN4YTsJCQkJCTxnIGlkPSJzaGFkb3czNzE1LTMyIj4mI3hhOwkJCQkJPC9nPiYjeGE7CQkJCQk8cGF0aCBpZD0icGF0aDEwMjY3MCIgaW5rc2NhcGU6Y29ubmVjdG9yLWN1cnZhdHVyZT0iMCIgc3R5bGU9ImZpbGw6bm9uZTsiIGQ9Ik0wLjQxLDQ0LjdDMCw0NC44Myw2LjkzLDQyLjE3LDEwLjksNDcuMiAgICAgICBjMS4zOSwxLjc4LTAuMjIsOS4wNS00LjA4LDE0Ljc3TDAuNDEsNDQuN3oiLz4mI3hhOwkJCQkJJiN4YTsJCQkJCQk8cGF0aCBpZD0icGF0aDEwMjY3MiIgaW5rc2NhcGU6Y29ubmVjdG9yLWN1cnZhdHVyZT0iMCIgc3R5bGU9ImZpbGw6bm9uZTtzdHJva2U6I0ZGRkZGRjtzdHJva2Utd2lkdGg6MC43NjU7c3Ryb2tlLWxpbmVjYXA6cm91bmQ7c3Ryb2tlLWxpbmVqb2luOnJvdW5kO3N0cm9rZS1taXRlcmxpbWl0OjM7IiBkPSIgICAgICAgTTAuNDEsNDQuN0MwLDQ0LjgzLDYuOTMsNDIuMTcsMTAuOSw0Ny4yYzEuMzksMS43OC0wLjIyLDkuMDUtNC4wOCwxNC43NyIvPiYjeGE7CQkJCTwvZz4mI3hhOwkJCQk8ZyBpZD0ic2hhcGUzNzE2LTM1IiB0cmFuc2Zvcm09InRyYW5zbGF0ZSg4LjU0MTU5LC05LjMzMjg0KSI+JiN4YTsJCQkJCTx0aXRsZSBpZD0idGl0bGUxMDI2NzUiPnBhdGgzNzA0PC90aXRsZT4mI3hhOwkJCQkJPGcgaWQ9InNoYWRvdzM3MTYtMzYiPiYjeGE7CQkJCQk8L2c+JiN4YTsJCQkJCTxwYXRoIGlkPSJwYXRoMTAyNjc4IiBpbmtzY2FwZTpjb25uZWN0b3ItY3VydmF0dXJlPSIwIiBzdHlsZT0iZmlsbDpub25lOyIgZD0iTTE1LjkxLDU5LjAzYzAsMCwwLjI1LDEuMjQsMy45MSwwLjQ5ICAgICAgIGMxLjYtMC4zMywwLjY0LDAuOTUtMC45NSwxLjY4Yy0xLjM0LDAuNjItNC4zMiwwLjc3LTQuMzctMC4wOGMtMC4xMi0yLjIsMS41Ny0xLjU0LDEuNDUtMi4wOWMtMC4xMy0wLjU1LTAuODctMC45NS0xLjM3LTIuMiAgICAgICBjLTAuNDQtMS4wNi02LjAyLTkuMjEsMS41NC04YzAuMjgtMC4wNi0xLjk3LTcuMTktOS4wNS03LjNDMCw0MS40MSwwLjIsNTAuMjMsMC4yLDUwLjIzTDE1LjkxLDU5LjAzeiIvPiYjeGE7CQkJCQkmI3hhOwkJCQkJCTxwYXRoIGlkPSJwYXRoMTAyNjgwIiBpbmtzY2FwZTpjb25uZWN0b3ItY3VydmF0dXJlPSIwIiBzdHlsZT0iZmlsbDpub25lO3N0cm9rZTojRkZGRkZGO3N0cm9rZS13aWR0aDowLjc2NTtzdHJva2UtbGluZWNhcDpyb3VuZDtzdHJva2UtbGluZWpvaW46cm91bmQ7c3Ryb2tlLW1pdGVybGltaXQ6MzsiIGQ9IiAgICAgICBNMTUuOTEsNTkuMDNjMCwwLDAuMjUsMS4yNCwzLjkxLDAuNDljMS42LTAuMzMsMC42NCwwLjk1LTAuOTUsMS42OGMtMS4zNCwwLjYyLTQuMzIsMC43Ny00LjM3LTAuMDggICAgICAgYy0wLjEyLTIuMiwxLjU3LTEuNTQsMS40NS0yLjA5Yy0wLjEzLTAuNTUtMC44Ny0wLjk1LTEuMzctMi4yYy0wLjQ0LTEuMDYtNi4wMi05LjIxLDEuNTQtOGMwLjI4LTAuMDYtMS45Ny03LjE5LTkuMDUtNy4zICAgICAgIEMwLDQxLjQxLDAuMiw1MC4yMywwLjIsNTAuMjMiLz4mI3hhOwkJCQk8L2c+JiN4YTsJCQkJPGcgaWQ9InNoYXBlMzcxNy0zOSIgdHJhbnNmb3JtPSJ0cmFuc2xhdGUoOC4yMTc0NywtOC41MDM0NikiPiYjeGE7CQkJCQk8dGl0bGUgaWQ9InRpdGxlMTAyNjgzIj5wYXRoMzcwNjwvdGl0bGU+JiN4YTsJCQkJCTxnIGlkPSJzaGFkb3czNzE3LTQwIj4mI3hhOwkJCQkJPC9nPiYjeGE7CQkJCQkmI3hhOwkJCQkJCTxwYXRoIGlkPSJwYXRoMTAyNjg2IiBpbmtzY2FwZTpjb25uZWN0b3ItY3VydmF0dXJlPSIwIiBzdHlsZT0iZmlsbDpub25lO3N0cm9rZTojRkZGRkZGO3N0cm9rZS13aWR0aDowLjc2NTtzdHJva2UtbGluZWNhcDpyb3VuZDtzdHJva2UtbGluZWpvaW46cm91bmQ7c3Ryb2tlLW1pdGVybGltaXQ6MzsiIGQ9IiAgICAgICBNNC42NCw1OC45NGMtMC45NSwxLjEtMC42OSwxLjI5LTIuNjcsMS42OWMtMS45NywwLjQtMC44MiwxLjE1LTAuMDUsMS4zNGMxLjY2LDAuNTMsMy40OC0wLjA2LDQuNTEtMS40NyAgICAgICBjMC4zNS0wLjY2LDAuMS0xLjQ4LTAuNTYtMS44M0g1LjgyYy0wLjQxLTAuMjMtMC45My0wLjExLTEuMTksMC4yOUw0LjY0LDU4Ljk0eiIvPiYjeGE7CQkJCTwvZz4mI3hhOwkJCQk8ZyBpZD0ic2hhcGUzNzE4LTQyIiB0cmFuc2Zvcm09InRyYW5zbGF0ZSg4LjYzNjkyLC0xMS41MzUpIj4mI3hhOwkJCQkJPHRpdGxlIGlkPSJ0aXRsZTEwMjY4OSI+cGF0aDM3MDg8L3RpdGxlPiYjeGE7CQkJCQk8ZyBpZD0ic2hhZG93MzcxOC00MyI+JiN4YTsJCQkJCTwvZz4mI3hhOwkJCQkJPHBhdGggaWQ9InBhdGgxMDI2OTIiIGlua3NjYXBlOmNvbm5lY3Rvci1jdXJ2YXR1cmU9IjAiIHN0eWxlPSJmaWxsOm5vbmU7IiBkPSJNNC4xNiw2MS45N2MwLTAuOCwwLjE4LTEuNiwwLjU0LTIuMzIgICAgICAgYzAuNTEtMS4zNSwxLjY2LTIuNzEsMC43My03Yy0wLjY5LTMuMTktNS4zMy0wLjY2LTUuMzMtMC4yMmMwLjExLDEuNDIsMC4wNywyLjg0LTAuMSw0LjI1Yy0wLjQsMi4xOCwxLjA0LDQuMjYsMy4yMiw0LjY2ICAgICAgIGMwLjI5LDAuMDUsMC41OSwwLjA3LDAuODgsMC4wNkw0LjE2LDYxLjk3eiIvPiYjeGE7CQkJCQkmI3hhOwkJCQkJCTxwYXRoIGlkPSJwYXRoMTAyNjk0IiBpbmtzY2FwZTpjb25uZWN0b3ItY3VydmF0dXJlPSIwIiBzdHlsZT0iZmlsbDpub25lO3N0cm9rZTojRkZGRkZGO3N0cm9rZS13aWR0aDowLjc2NTtzdHJva2UtbGluZWNhcDpyb3VuZDtzdHJva2UtbGluZWpvaW46cm91bmQ7c3Ryb2tlLW1pdGVybGltaXQ6MzsiIGQ9IiAgICAgICBNNC4xNiw2MS45N2MwLTAuOCwwLjE4LTEuNiwwLjU0LTIuMzJjMC41MS0xLjM1LDEuNjYtMi43MSwwLjczLTdjLTAuNjktMy4xOS01LjMzLTAuNjYtNS4zMy0wLjIyICAgICAgIGMwLjExLDEuNDIsMC4wNywyLjg0LTAuMSw0LjI1Yy0wLjQsMi4xOCwxLjA0LDQuMjYsMy4yMiw0LjY2YzAuMjksMC4wNSwwLjU5LDAuMDcsMC44OCwwLjA2Ii8+JiN4YTsJCQkJPC9nPiYjeGE7CQkJCTxnIGlkPSJzaGFwZTM3MTktNDYiIHRyYW5zZm9ybT0idHJhbnNsYXRlKDExLjY4NzUsLTIwLjU0MzcpIj4mI3hhOwkJCQkJPHRpdGxlIGlkPSJ0aXRsZTEwMjY5NyI+cGF0aDM3MTA8L3RpdGxlPiYjeGE7CQkJCQk8ZyBpZD0ic2hhZG93MzcxOS00NyI+JiN4YTsJCQkJCTwvZz4mI3hhOwkJCQkJJiN4YTsJCQkJCQk8cGF0aCBpZD0icGF0aDEwMjcwMCIgaW5rc2NhcGU6Y29ubmVjdG9yLWN1cnZhdHVyZT0iMCIgc3R5bGU9ImZpbGw6I0ZGRkZGRjtzdHJva2U6I0ZGRkZGRjtzdHJva2Utd2lkdGg6MC40MTI1O3N0cm9rZS1saW5lY2FwOnNxdWFyZTtzdHJva2UtbWl0ZXJsaW1pdDozOyIgZD0iICAgICAgIE0wLDYxLjM3YzAsMC4xNSwwLjI4LDAuNTQsMC42NSwwLjZjMC4zLDAuMDQsMC41OS0wLjEyLDAuNzItMC40YzAtMC4xNS0wLjI3LTAuMzItMC42NS0wLjM2Yy0wLjM3LTAuMDUtMC43LDAtMC43MiwwLjE3VjYxLjM3ICAgICAgIHoiLz4mI3hhOwkJCQk8L2c+JiN4YTsJCQkJPGcgaWQ9InNoYXBlMzcyMC00OSIgdHJhbnNmb3JtPSJ0cmFuc2xhdGUoMjEuODk3NCwtMjAuODQ4NykiPiYjeGE7CQkJCQk8dGl0bGUgaWQ9InRpdGxlMTAyNzAzIj5wYXRoMzcxMjwvdGl0bGU+JiN4YTsJCQkJCTxnIGlkPSJzaGFkb3czNzIwLTUwIj4mI3hhOwkJCQkJPC9nPiYjeGE7CQkJCQkmI3hhOwkJCQkJCTxwYXRoIGlkPSJwYXRoMTAyNzA2IiBpbmtzY2FwZTpjb25uZWN0b3ItY3VydmF0dXJlPSIwIiBzdHlsZT0iZmlsbDojRkZGRkZGO3N0cm9rZTojRkZGRkZGO3N0cm9rZS13aWR0aDowLjIxO3N0cm9rZS1saW5lY2FwOnNxdWFyZTtzdHJva2UtbWl0ZXJsaW1pdDozOyIgZD0iICAgICAgIE0xLjM3LDYxLjM3YzAsMC4xNS0wLjI3LDAuNTQtMC42NSwwLjZjLTAuMywwLjA0LTAuNTktMC4xMi0wLjcyLTAuNGMwLTAuMTUsMC4yOC0wLjMyLDAuNjUtMC4zNiAgICAgICBDMS4wMiw2MS4xNiwxLjM1LDYxLjIxLDEuMzcsNjEuMzdMMS4zNyw2MS4zN3oiLz4mI3hhOwkJCQk8L2c+JiN4YTsJCQkJPGcgaWQ9InNoYXBlMzcyMS01MiIgdHJhbnNmb3JtPSJ0cmFuc2xhdGUoMjMuODEzNSwtMTMuMzY1MykiPiYjeGE7CQkJCQk8dGl0bGUgaWQ9InRpdGxlMTAyNzA5Ij5wYXRoMzcxNDwvdGl0bGU+JiN4YTsJCQkJCTxnIGlkPSJzaGFkb3czNzIxLTUzIj4mI3hhOwkJCQkJPC9nPiYjeGE7CQkJCQk8cGF0aCBpZD0icGF0aDEwMjcxMiIgaW5rc2NhcGU6Y29ubmVjdG9yLWN1cnZhdHVyZT0iMCIgc3R5bGU9ImZpbGw6bm9uZTsiIGQ9Ik0wLjgxLDUyLjg2YzAuMDcsMS4xNy0wLjI1LDEuOTEtMC4yOSwzLjIgICAgICAgYy0wLjA1LDEuOCwwLjg2LDMuODEtMC41Miw1LjkxTDAuODEsNTIuODZ6Ii8+JiN4YTsJCQkJCSYjeGE7CQkJCQkJPHBhdGggaWQ9InBhdGgxMDI3MTQiIGlua3NjYXBlOmNvbm5lY3Rvci1jdXJ2YXR1cmU9IjAiIHN0eWxlPSJmaWxsOm5vbmU7c3Ryb2tlOiNGRkZGRkY7c3Ryb2tlLXdpZHRoOjAuNzY1O3N0cm9rZS1saW5lY2FwOnJvdW5kO3N0cm9rZS1saW5lam9pbjpyb3VuZDtzdHJva2UtbWl0ZXJsaW1pdDozOyIgZD0iICAgICAgIE0wLjgxLDUyLjg2YzAuMDcsMS4xNy0wLjI1LDEuOTEtMC4yOSwzLjJjLTAuMDUsMS44LDAuODYsMy44MS0wLjUyLDUuOTEiLz4mI3hhOwkJCQk8L2c+JiN4YTsJCQk8L2c+JiN4YTsJCTwvZz4mI3hhOwk8L2c+JiN4YTs8L2c+JiN4YTs8L3N2Zz4=;" vertex="1" parent="1">
          <mxGeometry x="1110" y="314" width="46" height="60" as="geometry" />
        </mxCell>
        <mxCell id="KOKp6EKpK6rq5gHab_TY-26" value="API" style="aspect=fixed;html=1;points=[];align=center;image;fontSize=12;image=img/lib/azure2/app_services/API_Management_Services.svg;" vertex="1" parent="1">
          <mxGeometry x="1100.5" y="414" width="65" height="60" as="geometry" />
        </mxCell>
        <mxCell id="KOKp6EKpK6rq5gHab_TY-27" value="" style="verticalLabelPosition=bottom;html=1;verticalAlign=top;align=center;strokeColor=none;fillColor=#00BEF2;shape=mxgraph.azure.scheduler;pointerEvents=1;labelBackgroundColor=default;" vertex="1" parent="1">
          <mxGeometry x="1158" y="319" width="40" height="50" as="geometry" />
        </mxCell>
        <mxCell id="KOKp6EKpK6rq5gHab_TY-28" value="Soporte" style="rounded=1;whiteSpace=wrap;html=1;shadow=0;strokeWidth=2;fillColor=#e1d5e7;fontSize=12;align=center;strokeColor=#9673a6;arcSize=6;verticalAlign=top;" vertex="1" parent="1">
          <mxGeometry x="1240" y="280" width="100" height="334" as="geometry" />
        </mxCell>
        <mxCell id="KOKp6EKpK6rq5gHab_TY-29" value="MetroIN" style="shape=image;verticalLabelPosition=bottom;labelBackgroundColor=#ffffff;verticalAlign=top;aspect=fixed;imageAspect=0;image=data:image/svg+xml,PHN2ZyB4bWxuczpjYz0iaHR0cDovL2NyZWF0aXZlY29tbW9ucy5vcmcvbnMjIiB4bWxuczpkYz0iaHR0cDovL3B1cmwub3JnL2RjL2VsZW1lbnRzLzEuMS8iIHhtbG5zOmlua3NjYXBlPSJodHRwOi8vd3d3Lmlua3NjYXBlLm9yZy9uYW1lc3BhY2VzL2lua3NjYXBlIiB4bWxuczpyZGY9Imh0dHA6Ly93d3cudzMub3JnLzE5OTkvMDIvMjItcmRmLXN5bnRheC1ucyMiIHhtbG5zOnNvZGlwb2RpPSJodHRwOi8vc29kaXBvZGkuc291cmNlZm9yZ2UubmV0L0RURC9zb2RpcG9kaS0wLmR0ZCIgeG1sbnM6c3ZnPSJodHRwOi8vd3d3LnczLm9yZy8yMDAwL3N2ZyIgeG1sbnM9Imh0dHA6Ly93d3cudzMub3JnLzIwMDAvc3ZnIiB4bWxuczp4bGluaz0iaHR0cDovL3d3dy53My5vcmcvMTk5OS94bGluayIgdmVyc2lvbj0iMS4xIiBpZD0ic3ZnMTAyNzIyIiBpbmtzY2FwZTp2ZXJzaW9uPSIwLjkyLjMgKDI0MDU1NDYsIDIwMTgtMDMtMTEpIiBzb2RpcG9kaTpkb2NuYW1lPSJwb3N0Z3Jlc3FsLnN2ZyIgeD0iMHB4IiB5PSIwcHgiIHZpZXdCb3g9IjAgMCA0Ni4wMyA2MC40NyIgc3R5bGU9ImVuYWJsZS1iYWNrZ3JvdW5kOm5ldyAwIDAgNDYuMDMgNjAuNDc7IiB4bWw6c3BhY2U9InByZXNlcnZlIj4mI3hhOzxzb2RpcG9kaTpuYW1lZHZpZXcgYm9yZGVyY29sb3I9IiM2NjY2NjYiIGJvcmRlcm9wYWNpdHk9IjEiIGZpdC1tYXJnaW4tYm90dG9tPSIwIiBmaXQtbWFyZ2luLWxlZnQ9IjAiIGZpdC1tYXJnaW4tcmlnaHQ9IjAiIGZpdC1tYXJnaW4tdG9wPSIwIiBncmlkdG9sZXJhbmNlPSIxMCIgZ3VpZGV0b2xlcmFuY2U9IjEwIiBpZD0ibmFtZWR2aWV3MTAyNzI0IiBpbmtzY2FwZTpjdXJyZW50LWxheWVyPSJzdmcxMDI3MjIiIGlua3NjYXBlOmN4PSIzMC42ODk5ODMiIGlua3NjYXBlOmN5PSI0MC4zMTQ2NDUiIGlua3NjYXBlOnBhZ2VvcGFjaXR5PSIwIiBpbmtzY2FwZTpwYWdlc2hhZG93PSIyIiBpbmtzY2FwZTp3aW5kb3ctaGVpZ2h0PSIxMDE3IiBpbmtzY2FwZTp3aW5kb3ctbWF4aW1pemVkPSIxIiBpbmtzY2FwZTp3aW5kb3ctd2lkdGg9IjE5MjAiIGlua3NjYXBlOndpbmRvdy14PSItOCIgaW5rc2NhcGU6d2luZG93LXk9Ii04IiBpbmtzY2FwZTp6b29tPSIxMC40OTMzMTUiIG9iamVjdHRvbGVyYW5jZT0iMTAiIHBhZ2Vjb2xvcj0iI2ZmZmZmZiIgc2hvd2dyaWQ9ImZhbHNlIj4mI3hhOwk8L3NvZGlwb2RpOm5hbWVkdmlldz4mI3hhOzxnIGlkPSJnMTAyNzIwIiB0cmFuc2Zvcm09InRyYW5zbGF0ZSgtMC43NSwtMC43NTQ4KSI+JiN4YTsJPHRpdGxlIGlkPSJ0aXRsZTEwMjYwNSI+UGFnZS0xPC90aXRsZT4mI3hhOwk8ZyBpZD0iZ3JvdXAzNzA0LTEiIHRyYW5zZm9ybT0idHJhbnNsYXRlKDAuNzUsLTAuNzUpIj4mI3hhOwkJPHRpdGxlIGlkPSJ0aXRsZTEwMjYwNyI+UG9zdGdyZVNRTC42MzM8L3RpdGxlPiYjeGE7CQk8ZyBpZD0iZ3JvdXAzNzA1LTIiPiYjeGE7CQkJPHRpdGxlIGlkPSJ0aXRsZTEwMjYwOSI+Q0hlY2ttYXJrXzI8L3RpdGxlPiYjeGE7CQkJPGcgaWQ9InNoYXBlMzcwNi0zIj4mI3hhOwkJCQk8dGl0bGUgaWQ9InRpdGxlMTAyNjExIj5wYXRoMzY4NjwvdGl0bGU+JiN4YTsJCQkJPGcgaWQ9InNoYWRvdzM3MDYtNCI+JiN4YTsJCQkJPC9nPiYjeGE7CQkJCTxwYXRoIGlkPSJwYXRoMTAyNjE0IiBpbmtzY2FwZTpjb25uZWN0b3ItY3VydmF0dXJlPSIwIiBzdHlsZT0iZmlsbDojMzk5OEM1OyIgZD0iTTAsOS41NHY0NC4zMmMwLDQuNjYsMTAuMjgsOC4xMSwyMi44OCw4LjExICAgICAgVjkuNTRIMHoiLz4mI3hhOwkJCTwvZz4mI3hhOwkJCTxnIGlkPSJzaGFwZTM3MDctNiIgdHJhbnNmb3JtPSJ0cmFuc2xhdGUoMjIuODc5MykiPiYjeGE7CQkJCTx0aXRsZSBpZD0idGl0bGUxMDI2MTciPnBhdGgzNjg4PC90aXRsZT4mI3hhOwkJCQk8ZyBpZD0ic2hhZG93MzcwNy03Ij4mI3hhOwkJCQk8L2c+JiN4YTsJCQkJPHBhdGggaWQ9InBhdGgxMDI2MjAiIGlua3NjYXBlOmNvbm5lY3Rvci1jdXJ2YXR1cmU9IjAiIHN0eWxlPSJmaWxsOiM1OUIzRDg7IiBkPSJNMCw2MS45N2gwLjEyYzEyLjUyLDAsMjIuNzYtMy42NiwyMi43Ni04LjMxICAgICAgVjkuNTRIMFY2MS45N3oiLz4mI3hhOwkJCTwvZz4mI3hhOwkJCTxnIGlkPSJzaGFwZTM3MDgtOSIgdHJhbnNmb3JtPSJ0cmFuc2xhdGUoMCwtNDMuNzg1MikiPiYjeGE7CQkJCTx0aXRsZSBpZD0idGl0bGUxMDI2MjMiPnBhdGgzNjkwPC90aXRsZT4mI3hhOwkJCQk8ZyBpZD0ic2hhZG93MzcwOC0xMCI+JiN4YTsJCQkJPC9nPiYjeGE7CQkJCTxwYXRoIGlkPSJwYXRoMTAyNjI2IiBpbmtzY2FwZTpjb25uZWN0b3ItY3VydmF0dXJlPSIwIiBzdHlsZT0iZmlsbDojRkZGRkZGOyIgZD0iTTQ2LjAzLDUzLjY0YzAsNC41MS0xMC4zMSw4LjMzLTIyLjk1LDguMzMgICAgICBTMCw1OC4xNSwwLDUzLjY0YzAtNC41MiwxMC4zMS04LjM1LDIyLjk2LTguMzVDMzUuNiw0NS4yOSw0Ni4wMyw0OS4xLDQ2LjAzLDUzLjY0eiIvPiYjeGE7CQkJPC9nPiYjeGE7CQkJPGcgaWQ9InNoYXBlMzcwOS0xMiIgdHJhbnNmb3JtPSJ0cmFuc2xhdGUoNC42NjE2NSwtNDcuMDkzMikiPiYjeGE7CQkJCTx0aXRsZSBpZD0idGl0bGUxMDI2MjkiPnBhdGgzNjkyPC90aXRsZT4mI3hhOwkJCQk8ZyBpZD0ic2hhZG93MzcwOS0xMyI+JiN4YTsJCQkJPC9nPiYjeGE7CQkJCTxwYXRoIGlkPSJwYXRoMTAyNjMyIiBpbmtzY2FwZTpjb25uZWN0b3ItY3VydmF0dXJlPSIwIiBzdHlsZT0iZmlsbDojN0ZCOTAwOyIgZD0iTTM2LjcxLDU2LjQ1YzAsMy4wNy04LjIzLDUuNTItMTguMjksNS41MiAgICAgIEM4LjM1LDYxLjk3LDAsNTkuNTYsMCw1Ni40NXM4LjIzLTUuNTIsMTguMjktNS41MkMyOC4zNiw1MC45MywzNi43MSw1My4zOCwzNi43MSw1Ni40NXoiLz4mI3hhOwkJCTwvZz4mI3hhOwkJCTxnIGlkPSJzaGFwZTM3MTAtMTUiIHRyYW5zZm9ybT0idHJhbnNsYXRlKDQuNjYxNjUsLTQ5LjI5NTMpIj4mI3hhOwkJCQk8dGl0bGUgaWQ9InRpdGxlMTAyNjM1Ij5wYXRoMzY5NDwvdGl0bGU+JiN4YTsJCQkJPGcgaWQ9InNoYWRvdzM3MTAtMTYiPiYjeGE7CQkJCTwvZz4mI3hhOwkJCQk8cGF0aCBpZD0icGF0aDEwMjYzOCIgaW5rc2NhcGU6Y29ubmVjdG9yLWN1cnZhdHVyZT0iMCIgc3R5bGU9ImZpbGw6I0I3RDMzMjsiIGQ9Ik0zMi43OCw2MS45N2MyLjQ2LTAuOTYsMy44Mi0yLjA5LDMuODItMy4zMiAgICAgIGMwLTMuMDctOC4yMy01LjUyLTE4LjMtNS41MkM4LjI0LDUzLjEzLDAsNTUuNTgsMCw1OC42NWMwLDEuMjMsMS40OCwyLjQ2LDMuODEsMy4zMmMzLjMyLTEuMzYsOC41OC0yLjA5LDE0LjQ5LTIuMDkgICAgICBjNC45MS0wLjEsOS44MSwwLjYsMTQuNDksMi4wOUgzMi43OHoiLz4mI3hhOwkJCQk8cGF0aCBpZD0icGF0aDEwMjY0MCIgaW5rc2NhcGU6Y29ubmVjdG9yLWN1cnZhdHVyZT0iMCIgc3R5bGU9ImZpbGw6bm9uZTsiIGQ9Ik0zMi43OCw2MS45N2MyLjQ2LTAuOTYsMy44Mi0yLjA5LDMuODItMy4zMiAgICAgIGMwLTMuMDctOC4yMy01LjUyLTE4LjMtNS41MkM4LjI0LDUzLjEzLDAsNTUuNTgsMCw1OC42NWMwLDEuMjMsMS40OCwyLjQ2LDMuODEsMy4zMmMzLjMyLTEuMzYsOC41OC0yLjA5LDE0LjQ5LTIuMDkgICAgICBjNC45MS0wLjEsOS44MSwwLjYsMTQuNDksMi4wOSIvPiYjeGE7CQkJPC9nPiYjeGE7CQkJPGcgaWQ9Imdyb3VwMzcxMS0xOSIgdHJhbnNmb3JtPSJ0cmFuc2xhdGUoNy41NjkyMywtNy40NjQzNikiPiYjeGE7CQkJCTx0aXRsZSBpZD0idGl0bGUxMDI2NDMiPkxheWVyXzM8L3RpdGxlPiYjeGE7CQkJCTxnIGlkPSJzaGFwZTM3MTItMjAiIHRyYW5zZm9ybT0idHJhbnNsYXRlKDAuMDU3MTk4MikiPiYjeGE7CQkJCQk8dGl0bGUgaWQ9InRpdGxlMTAyNjQ1Ij5wYXRoMzY5NjwvdGl0bGU+JiN4YTsJCQkJCTxnIGlkPSJzaGFkb3czNzEyLTIxIj4mI3hhOwkJCQkJPC9nPiYjeGE7CQkJCQk8cGF0aCBpZD0icGF0aDEwMjY0OCIgaW5rc2NhcGU6Y29ubmVjdG9yLWN1cnZhdHVyZT0iMCIgc3R5bGU9ImZpbGw6IzMzNjc5MDsiIGQ9Ik0yOC4zMiw1MC4yM2MtMy42NSwwLjc2LTMuOTEtMC40OC0zLjkxLTAuNDggICAgICAgYzMuODItNS43Miw1LjQ4LTEzLDQuMDgtMTQuNzdjLTMuODEtNC44NS0xMC4zNy0yLjU1LTEwLjQ4LTIuNWMtMC44LTAuMTYtMS42Mi0wLjI1LTIuNDQtMC4yNmMtMS4zNy0wLjA2LTIuNzIsMC4zNS0zLjgyLDEuMTYgICAgICAgYzAsMC0xMS43NS00LjgyLTExLjI0LDYuMDhjMC4xMiwyLjMyLDMuMywxNy41NSw3LjEyLDEyLjk2YzEuNC0xLjY4LDIuNzQtMy4xMSwyLjc0LTMuMTFjMC42OCwwLjQ2LDEuNSwwLjY3LDIuMzIsMC41OSAgICAgICBsMC4wNy0wLjA2Yy0wLjAzLDAuMjItMC4wMywwLjQ0LDAsMC42NmMtMC45NiwxLjExLTAuNywxLjMtMi42NywxLjdjLTEuOTgsMC40LTAuODIsMS4xNC0wLjA2LDEuMzMgICAgICAgYzEuNjcsMC41NCwzLjQ5LTAuMDUsNC41Mi0xLjQ3bC0wLjA2LDAuMjNjMC4zOSwwLjMxLDAuNjYsMi4wMSwwLjYxLDMuNTZjLTAuMTMsMS4xNS0wLjA1LDIuMzEsMC4yMywzLjQzICAgICAgIGMwLjMsMC44MywwLjYxLDIuNjksMy4yLDIuMTRjMi4xNy0wLjQ3LDMuMjktMS42NywzLjQ0LTMuNjhjMC4xMS0xLjQyLDAuMzctMS4yMSwwLjM4LTIuNDhsMC4yMS0wLjYgICAgICAgYzAuMjItMS45MSwwLTIuNTYsMS4zNy0yLjI3aDAuMzJjMS4wMywwLjA0LDIuMDYtMC4xMywzLjAyLTAuNTFjMS42Mi0wLjc1LDIuNTktMi4wMSwwLjk2LTEuNjhMMjguMzIsNTAuMjN6Ii8+JiN4YTsJCQkJPC9nPiYjeGE7CQkJCTxnIGlkPSJzaGFwZTM3MTMtMjMiIHRyYW5zZm9ybT0idHJhbnNsYXRlKDE0LjcyODUsLTAuNDk1NzE4KSI+JiN4YTsJCQkJCTx0aXRsZSBpZD0idGl0bGUxMDI2NTEiPnBhdGgzNjk4PC90aXRsZT4mI3hhOwkJCQkJPGcgaWQ9InNoYWRvdzM3MTMtMjQiPiYjeGE7CQkJCQk8L2c+JiN4YTsJCQkJCTxwYXRoIGlkPSJwYXRoMTAyNjU0IiBpbmtzY2FwZTpjb25uZWN0b3ItY3VydmF0dXJlPSIwIiBzdHlsZT0iZmlsbDpub25lOyIgZD0iTTAuMSw1MS44M2MtMC4xLDMuNiwwLDcuMjIsMC4zOSw4LjEgICAgICAgYzAuMzcsMS41NCwxLjkyLDIuNDgsMy40NSwyLjExQzQuMDIsNjIuMDIsNC4xLDYyLDQuMTgsNjEuOTdjMi4xNy0wLjQ3LDIuOTYtMS4zNywzLjMtMy4zNWMwLjI1LTEuNDYsMC43NC01LjUxLDAuOC02LjM0ICAgICAgIEwwLjEsNTEuODN6Ii8+JiN4YTsJCQkJCSYjeGE7CQkJCQkJPHBhdGggaWQ9InBhdGgxMDI2NTYiIGlua3NjYXBlOmNvbm5lY3Rvci1jdXJ2YXR1cmU9IjAiIHN0eWxlPSJmaWxsOm5vbmU7c3Ryb2tlOiNGRkZGRkY7c3Ryb2tlLXdpZHRoOjAuNzY1O3N0cm9rZS1saW5lY2FwOnJvdW5kO3N0cm9rZS1saW5lam9pbjpyb3VuZDtzdHJva2UtbWl0ZXJsaW1pdDozOyIgZD0iICAgICAgIE0wLjEsNTEuODNjLTAuMSwzLjYsMCw3LjIyLDAuMzksOC4xYzAuMzcsMS41NCwxLjkyLDIuNDgsMy40NSwyLjExQzQuMDIsNjIuMDIsNC4xLDYyLDQuMTgsNjEuOTcgICAgICAgYzIuMTctMC40NywyLjk2LTEuMzcsMy4zLTMuMzVjMC4yNS0xLjQ2LDAuNzQtNS41MSwwLjgtNi4zNCIvPiYjeGE7CQkJCTwvZz4mI3hhOwkJCQk8ZyBpZD0ic2hhcGUzNzE0LTI3IiB0cmFuc2Zvcm09InRyYW5zbGF0ZSgwLC00Ljk5NTMxKSI+JiN4YTsJCQkJCTx0aXRsZSBpZD0idGl0bGUxMDI2NTkiPnBhdGgzNzAwPC90aXRsZT4mI3hhOwkJCQkJPGcgaWQ9InNoYWRvdzM3MTQtMjgiPiYjeGE7CQkJCQk8L2c+JiN4YTsJCQkJCTxwYXRoIGlkPSJwYXRoMTAyNjYyIiBpbmtzY2FwZTpjb25uZWN0b3ItY3VydmF0dXJlPSIwIiBzdHlsZT0iZmlsbDpub25lOyIgZD0iTTExLjc0LDM4LjI3YzAsMC0xMS43NC00Ljc3LTExLjE5LDYuMTEgICAgICAgYzAuMTEsMi4zNSwzLjMyLDE3LjU5LDcuMTMsMTIuOTVjMS40LTEuNjcsMi42Ni0zLDIuNjYtM0wxMS43NCwzOC4yN3oiLz4mI3hhOwkJCQkJJiN4YTsJCQkJCQk8cGF0aCBpZD0icGF0aDEwMjY2NCIgaW5rc2NhcGU6Y29ubmVjdG9yLWN1cnZhdHVyZT0iMCIgc3R5bGU9ImZpbGw6bm9uZTtzdHJva2U6I0ZGRkZGRjtzdHJva2Utd2lkdGg6MC43NjU7c3Ryb2tlLWxpbmVjYXA6cm91bmQ7c3Ryb2tlLWxpbmVqb2luOnJvdW5kO3N0cm9rZS1taXRlcmxpbWl0OjM7IiBkPSIgICAgICAgTTExLjc0LDM4LjI3YzAsMC0xMS43NC00Ljc3LTExLjE5LDYuMTFjMC4xMSwyLjM1LDMuMzIsMTcuNTksNy4xMywxMi45NWMxLjQtMS42NywyLjY2LTMsMi42Ni0zIi8+JiN4YTsJCQkJPC9nPiYjeGE7CQkJCTxnIGlkPSJzaGFwZTM3MTUtMzEiIHRyYW5zZm9ybT0idHJhbnNsYXRlKDE3LjY1NTIsLTEyLjI2OSkiPiYjeGE7CQkJCQk8dGl0bGUgaWQ9InRpdGxlMTAyNjY3Ij5wYXRoMzcwMjwvdGl0bGU+JiN4YTsJCQkJCTxnIGlkPSJzaGFkb3czNzE1LTMyIj4mI3hhOwkJCQkJPC9nPiYjeGE7CQkJCQk8cGF0aCBpZD0icGF0aDEwMjY3MCIgaW5rc2NhcGU6Y29ubmVjdG9yLWN1cnZhdHVyZT0iMCIgc3R5bGU9ImZpbGw6bm9uZTsiIGQ9Ik0wLjQxLDQ0LjdDMCw0NC44Myw2LjkzLDQyLjE3LDEwLjksNDcuMiAgICAgICBjMS4zOSwxLjc4LTAuMjIsOS4wNS00LjA4LDE0Ljc3TDAuNDEsNDQuN3oiLz4mI3hhOwkJCQkJJiN4YTsJCQkJCQk8cGF0aCBpZD0icGF0aDEwMjY3MiIgaW5rc2NhcGU6Y29ubmVjdG9yLWN1cnZhdHVyZT0iMCIgc3R5bGU9ImZpbGw6bm9uZTtzdHJva2U6I0ZGRkZGRjtzdHJva2Utd2lkdGg6MC43NjU7c3Ryb2tlLWxpbmVjYXA6cm91bmQ7c3Ryb2tlLWxpbmVqb2luOnJvdW5kO3N0cm9rZS1taXRlcmxpbWl0OjM7IiBkPSIgICAgICAgTTAuNDEsNDQuN0MwLDQ0LjgzLDYuOTMsNDIuMTcsMTAuOSw0Ny4yYzEuMzksMS43OC0wLjIyLDkuMDUtNC4wOCwxNC43NyIvPiYjeGE7CQkJCTwvZz4mI3hhOwkJCQk8ZyBpZD0ic2hhcGUzNzE2LTM1IiB0cmFuc2Zvcm09InRyYW5zbGF0ZSg4LjU0MTU5LC05LjMzMjg0KSI+JiN4YTsJCQkJCTx0aXRsZSBpZD0idGl0bGUxMDI2NzUiPnBhdGgzNzA0PC90aXRsZT4mI3hhOwkJCQkJPGcgaWQ9InNoYWRvdzM3MTYtMzYiPiYjeGE7CQkJCQk8L2c+JiN4YTsJCQkJCTxwYXRoIGlkPSJwYXRoMTAyNjc4IiBpbmtzY2FwZTpjb25uZWN0b3ItY3VydmF0dXJlPSIwIiBzdHlsZT0iZmlsbDpub25lOyIgZD0iTTE1LjkxLDU5LjAzYzAsMCwwLjI1LDEuMjQsMy45MSwwLjQ5ICAgICAgIGMxLjYtMC4zMywwLjY0LDAuOTUtMC45NSwxLjY4Yy0xLjM0LDAuNjItNC4zMiwwLjc3LTQuMzctMC4wOGMtMC4xMi0yLjIsMS41Ny0xLjU0LDEuNDUtMi4wOWMtMC4xMy0wLjU1LTAuODctMC45NS0xLjM3LTIuMiAgICAgICBjLTAuNDQtMS4wNi02LjAyLTkuMjEsMS41NC04YzAuMjgtMC4wNi0xLjk3LTcuMTktOS4wNS03LjNDMCw0MS40MSwwLjIsNTAuMjMsMC4yLDUwLjIzTDE1LjkxLDU5LjAzeiIvPiYjeGE7CQkJCQkmI3hhOwkJCQkJCTxwYXRoIGlkPSJwYXRoMTAyNjgwIiBpbmtzY2FwZTpjb25uZWN0b3ItY3VydmF0dXJlPSIwIiBzdHlsZT0iZmlsbDpub25lO3N0cm9rZTojRkZGRkZGO3N0cm9rZS13aWR0aDowLjc2NTtzdHJva2UtbGluZWNhcDpyb3VuZDtzdHJva2UtbGluZWpvaW46cm91bmQ7c3Ryb2tlLW1pdGVybGltaXQ6MzsiIGQ9IiAgICAgICBNMTUuOTEsNTkuMDNjMCwwLDAuMjUsMS4yNCwzLjkxLDAuNDljMS42LTAuMzMsMC42NCwwLjk1LTAuOTUsMS42OGMtMS4zNCwwLjYyLTQuMzIsMC43Ny00LjM3LTAuMDggICAgICAgYy0wLjEyLTIuMiwxLjU3LTEuNTQsMS40NS0yLjA5Yy0wLjEzLTAuNTUtMC44Ny0wLjk1LTEuMzctMi4yYy0wLjQ0LTEuMDYtNi4wMi05LjIxLDEuNTQtOGMwLjI4LTAuMDYtMS45Ny03LjE5LTkuMDUtNy4zICAgICAgIEMwLDQxLjQxLDAuMiw1MC4yMywwLjIsNTAuMjMiLz4mI3hhOwkJCQk8L2c+JiN4YTsJCQkJPGcgaWQ9InNoYXBlMzcxNy0zOSIgdHJhbnNmb3JtPSJ0cmFuc2xhdGUoOC4yMTc0NywtOC41MDM0NikiPiYjeGE7CQkJCQk8dGl0bGUgaWQ9InRpdGxlMTAyNjgzIj5wYXRoMzcwNjwvdGl0bGU+JiN4YTsJCQkJCTxnIGlkPSJzaGFkb3czNzE3LTQwIj4mI3hhOwkJCQkJPC9nPiYjeGE7CQkJCQkmI3hhOwkJCQkJCTxwYXRoIGlkPSJwYXRoMTAyNjg2IiBpbmtzY2FwZTpjb25uZWN0b3ItY3VydmF0dXJlPSIwIiBzdHlsZT0iZmlsbDpub25lO3N0cm9rZTojRkZGRkZGO3N0cm9rZS13aWR0aDowLjc2NTtzdHJva2UtbGluZWNhcDpyb3VuZDtzdHJva2UtbGluZWpvaW46cm91bmQ7c3Ryb2tlLW1pdGVybGltaXQ6MzsiIGQ9IiAgICAgICBNNC42NCw1OC45NGMtMC45NSwxLjEtMC42OSwxLjI5LTIuNjcsMS42OWMtMS45NywwLjQtMC44MiwxLjE1LTAuMDUsMS4zNGMxLjY2LDAuNTMsMy40OC0wLjA2LDQuNTEtMS40NyAgICAgICBjMC4zNS0wLjY2LDAuMS0xLjQ4LTAuNTYtMS44M0g1LjgyYy0wLjQxLTAuMjMtMC45My0wLjExLTEuMTksMC4yOUw0LjY0LDU4Ljk0eiIvPiYjeGE7CQkJCTwvZz4mI3hhOwkJCQk8ZyBpZD0ic2hhcGUzNzE4LTQyIiB0cmFuc2Zvcm09InRyYW5zbGF0ZSg4LjYzNjkyLC0xMS41MzUpIj4mI3hhOwkJCQkJPHRpdGxlIGlkPSJ0aXRsZTEwMjY4OSI+cGF0aDM3MDg8L3RpdGxlPiYjeGE7CQkJCQk8ZyBpZD0ic2hhZG93MzcxOC00MyI+JiN4YTsJCQkJCTwvZz4mI3hhOwkJCQkJPHBhdGggaWQ9InBhdGgxMDI2OTIiIGlua3NjYXBlOmNvbm5lY3Rvci1jdXJ2YXR1cmU9IjAiIHN0eWxlPSJmaWxsOm5vbmU7IiBkPSJNNC4xNiw2MS45N2MwLTAuOCwwLjE4LTEuNiwwLjU0LTIuMzIgICAgICAgYzAuNTEtMS4zNSwxLjY2LTIuNzEsMC43My03Yy0wLjY5LTMuMTktNS4zMy0wLjY2LTUuMzMtMC4yMmMwLjExLDEuNDIsMC4wNywyLjg0LTAuMSw0LjI1Yy0wLjQsMi4xOCwxLjA0LDQuMjYsMy4yMiw0LjY2ICAgICAgIGMwLjI5LDAuMDUsMC41OSwwLjA3LDAuODgsMC4wNkw0LjE2LDYxLjk3eiIvPiYjeGE7CQkJCQkmI3hhOwkJCQkJCTxwYXRoIGlkPSJwYXRoMTAyNjk0IiBpbmtzY2FwZTpjb25uZWN0b3ItY3VydmF0dXJlPSIwIiBzdHlsZT0iZmlsbDpub25lO3N0cm9rZTojRkZGRkZGO3N0cm9rZS13aWR0aDowLjc2NTtzdHJva2UtbGluZWNhcDpyb3VuZDtzdHJva2UtbGluZWpvaW46cm91bmQ7c3Ryb2tlLW1pdGVybGltaXQ6MzsiIGQ9IiAgICAgICBNNC4xNiw2MS45N2MwLTAuOCwwLjE4LTEuNiwwLjU0LTIuMzJjMC41MS0xLjM1LDEuNjYtMi43MSwwLjczLTdjLTAuNjktMy4xOS01LjMzLTAuNjYtNS4zMy0wLjIyICAgICAgIGMwLjExLDEuNDIsMC4wNywyLjg0LTAuMSw0LjI1Yy0wLjQsMi4xOCwxLjA0LDQuMjYsMy4yMiw0LjY2YzAuMjksMC4wNSwwLjU5LDAuMDcsMC44OCwwLjA2Ii8+JiN4YTsJCQkJPC9nPiYjeGE7CQkJCTxnIGlkPSJzaGFwZTM3MTktNDYiIHRyYW5zZm9ybT0idHJhbnNsYXRlKDExLjY4NzUsLTIwLjU0MzcpIj4mI3hhOwkJCQkJPHRpdGxlIGlkPSJ0aXRsZTEwMjY5NyI+cGF0aDM3MTA8L3RpdGxlPiYjeGE7CQkJCQk8ZyBpZD0ic2hhZG93MzcxOS00NyI+JiN4YTsJCQkJCTwvZz4mI3hhOwkJCQkJJiN4YTsJCQkJCQk8cGF0aCBpZD0icGF0aDEwMjcwMCIgaW5rc2NhcGU6Y29ubmVjdG9yLWN1cnZhdHVyZT0iMCIgc3R5bGU9ImZpbGw6I0ZGRkZGRjtzdHJva2U6I0ZGRkZGRjtzdHJva2Utd2lkdGg6MC40MTI1O3N0cm9rZS1saW5lY2FwOnNxdWFyZTtzdHJva2UtbWl0ZXJsaW1pdDozOyIgZD0iICAgICAgIE0wLDYxLjM3YzAsMC4xNSwwLjI4LDAuNTQsMC42NSwwLjZjMC4zLDAuMDQsMC41OS0wLjEyLDAuNzItMC40YzAtMC4xNS0wLjI3LTAuMzItMC42NS0wLjM2Yy0wLjM3LTAuMDUtMC43LDAtMC43MiwwLjE3VjYxLjM3ICAgICAgIHoiLz4mI3hhOwkJCQk8L2c+JiN4YTsJCQkJPGcgaWQ9InNoYXBlMzcyMC00OSIgdHJhbnNmb3JtPSJ0cmFuc2xhdGUoMjEuODk3NCwtMjAuODQ4NykiPiYjeGE7CQkJCQk8dGl0bGUgaWQ9InRpdGxlMTAyNzAzIj5wYXRoMzcxMjwvdGl0bGU+JiN4YTsJCQkJCTxnIGlkPSJzaGFkb3czNzIwLTUwIj4mI3hhOwkJCQkJPC9nPiYjeGE7CQkJCQkmI3hhOwkJCQkJCTxwYXRoIGlkPSJwYXRoMTAyNzA2IiBpbmtzY2FwZTpjb25uZWN0b3ItY3VydmF0dXJlPSIwIiBzdHlsZT0iZmlsbDojRkZGRkZGO3N0cm9rZTojRkZGRkZGO3N0cm9rZS13aWR0aDowLjIxO3N0cm9rZS1saW5lY2FwOnNxdWFyZTtzdHJva2UtbWl0ZXJsaW1pdDozOyIgZD0iICAgICAgIE0xLjM3LDYxLjM3YzAsMC4xNS0wLjI3LDAuNTQtMC42NSwwLjZjLTAuMywwLjA0LTAuNTktMC4xMi0wLjcyLTAuNGMwLTAuMTUsMC4yOC0wLjMyLDAuNjUtMC4zNiAgICAgICBDMS4wMiw2MS4xNiwxLjM1LDYxLjIxLDEuMzcsNjEuMzdMMS4zNyw2MS4zN3oiLz4mI3hhOwkJCQk8L2c+JiN4YTsJCQkJPGcgaWQ9InNoYXBlMzcyMS01MiIgdHJhbnNmb3JtPSJ0cmFuc2xhdGUoMjMuODEzNSwtMTMuMzY1MykiPiYjeGE7CQkJCQk8dGl0bGUgaWQ9InRpdGxlMTAyNzA5Ij5wYXRoMzcxNDwvdGl0bGU+JiN4YTsJCQkJCTxnIGlkPSJzaGFkb3czNzIxLTUzIj4mI3hhOwkJCQkJPC9nPiYjeGE7CQkJCQk8cGF0aCBpZD0icGF0aDEwMjcxMiIgaW5rc2NhcGU6Y29ubmVjdG9yLWN1cnZhdHVyZT0iMCIgc3R5bGU9ImZpbGw6bm9uZTsiIGQ9Ik0wLjgxLDUyLjg2YzAuMDcsMS4xNy0wLjI1LDEuOTEtMC4yOSwzLjIgICAgICAgYy0wLjA1LDEuOCwwLjg2LDMuODEtMC41Miw1LjkxTDAuODEsNTIuODZ6Ii8+JiN4YTsJCQkJCSYjeGE7CQkJCQkJPHBhdGggaWQ9InBhdGgxMDI3MTQiIGlua3NjYXBlOmNvbm5lY3Rvci1jdXJ2YXR1cmU9IjAiIHN0eWxlPSJmaWxsOm5vbmU7c3Ryb2tlOiNGRkZGRkY7c3Ryb2tlLXdpZHRoOjAuNzY1O3N0cm9rZS1saW5lY2FwOnJvdW5kO3N0cm9rZS1saW5lam9pbjpyb3VuZDtzdHJva2UtbWl0ZXJsaW1pdDozOyIgZD0iICAgICAgIE0wLjgxLDUyLjg2YzAuMDcsMS4xNy0wLjI1LDEuOTEtMC4yOSwzLjJjLTAuMDUsMS44LDAuODYsMy44MS0wLjUyLDUuOTEiLz4mI3hhOwkJCQk8L2c+JiN4YTsJCQk8L2c+JiN4YTsJCTwvZz4mI3hhOwk8L2c+JiN4YTs8L2c+JiN4YTs8L3N2Zz4=;" vertex="1" parent="1">
          <mxGeometry x="1270" y="314" width="46" height="60" as="geometry" />
        </mxCell>
        <mxCell id="KOKp6EKpK6rq5gHab_TY-30" value="WebUI" style="verticalLabelPosition=bottom;html=1;verticalAlign=top;align=center;strokeColor=none;fillColor=#00BEF2;shape=mxgraph.azure.azure_website;pointerEvents=1;labelBackgroundColor=default;" vertex="1" parent="1">
          <mxGeometry x="1268" y="510" width="50" height="50" as="geometry" />
        </mxCell>
        <mxCell id="KOKp6EKpK6rq5gHab_TY-31" value="API" style="aspect=fixed;html=1;points=[];align=center;image;fontSize=12;image=img/lib/azure2/app_services/API_Management_Services.svg;" vertex="1" parent="1">
          <mxGeometry x="1260.5" y="414" width="65" height="60" as="geometry" />
        </mxCell>
        <mxCell id="KOKp6EKpK6rq5gHab_TY-32" value="" style="verticalLabelPosition=bottom;html=1;verticalAlign=top;align=center;strokeColor=none;fillColor=#00BEF2;shape=mxgraph.azure.scheduler;pointerEvents=1;labelBackgroundColor=default;" vertex="1" parent="1">
          <mxGeometry x="1318" y="319" width="40" height="50" as="geometry" />
        </mxCell>
        <mxCell id="KOKp6EKpK6rq5gHab_TY-35" value="Usuarios" style="outlineConnect=0;dashed=0;verticalLabelPosition=bottom;verticalAlign=top;align=center;html=1;shape=mxgraph.aws3.mobile_client;fillColor=#D2D3D3;gradientColor=none;labelBackgroundColor=default;" vertex="1" parent="1">
          <mxGeometry x="1120" y="670" width="30" height="47" as="geometry" />
        </mxCell>
        <mxCell id="KOKp6EKpK6rq5gHab_TY-37" value="Garita" style="outlineConnect=0;dashed=0;verticalLabelPosition=bottom;verticalAlign=top;align=center;html=1;shape=mxgraph.aws3.mobile_client;fillColor=#D2D3D3;gradientColor=none;labelBackgroundColor=default;" vertex="1" parent="1">
          <mxGeometry x="1270.5" y="670" width="29.5" height="46" as="geometry" />
        </mxCell>
        <mxCell id="KOKp6EKpK6rq5gHab_TY-38" value="Asegurables" style="outlineConnect=0;dashed=0;verticalLabelPosition=bottom;verticalAlign=top;align=center;html=1;shape=mxgraph.aws3.mobile_client;fillColor=#D2D3D3;gradientColor=none;labelBackgroundColor=default;" vertex="1" parent="1">
          <mxGeometry x="1200.5" y="670" width="29.5" height="46" as="geometry" />
        </mxCell>
        <mxCell id="KOKp6EKpK6rq5gHab_TY-39" value="Identity Server" style="outlineConnect=0;dashed=0;verticalLabelPosition=bottom;verticalAlign=top;align=center;html=1;shape=mxgraph.aws3.add_on;fillColor=#759C3E;gradientColor=none;labelBackgroundColor=default;" vertex="1" parent="1">
          <mxGeometry x="987" y="663" width="49.5" height="27" as="geometry" />
        </mxCell>
        <mxCell id="KOKp6EKpK6rq5gHab_TY-40" value="MetroIN_Identity" style="aspect=fixed;html=1;points=[];align=center;image;fontSize=12;image=img/lib/azure2/databases/Azure_Database_PostgreSQL_Server.svg;labelBackgroundColor=default;" vertex="1" parent="1">
          <mxGeometry x="874.5" y="653" width="48" height="64" as="geometry" />
        </mxCell>
        <mxCell id="KOKp6EKpK6rq5gHab_TY-44" value="Mercado Pago" style="sketch=0;outlineConnect=0;fontColor=#232F3E;gradientColor=none;fillColor=#4D27AA;strokeColor=none;dashed=0;verticalLabelPosition=bottom;verticalAlign=top;align=center;html=1;fontSize=12;fontStyle=0;aspect=fixed;pointerEvents=1;shape=mxgraph.aws4.gateway;labelBackgroundColor=default;" vertex="1" parent="1">
          <mxGeometry x="621.25" y="668" width="40.43" height="41.5" as="geometry" />
        </mxCell>
        <mxCell id="KOKp6EKpK6rq5gHab_TY-45" value="Azure Storage" style="sketch=0;outlineConnect=0;fontColor=#232F3E;gradientColor=none;fillColor=#4D27AA;strokeColor=none;dashed=0;verticalLabelPosition=bottom;verticalAlign=top;align=center;html=1;fontSize=12;fontStyle=0;aspect=fixed;pointerEvents=1;shape=mxgraph.aws4.gateway;labelBackgroundColor=default;" vertex="1" parent="1">
          <mxGeometry x="751.25" y="668" width="41.9" height="43" as="geometry" />
        </mxCell>
        <mxCell id="KOKp6EKpK6rq5gHab_TY-46" value="Afip" style="sketch=0;outlineConnect=0;fontColor=#232F3E;gradientColor=none;fillColor=#4D27AA;strokeColor=none;dashed=0;verticalLabelPosition=bottom;verticalAlign=top;align=center;html=1;fontSize=12;fontStyle=0;aspect=fixed;pointerEvents=1;shape=mxgraph.aws4.gateway;labelBackgroundColor=default;" vertex="1" parent="1">
          <mxGeometry x="690.28" y="669.5" width="38.97" height="40" as="geometry" />
        </mxCell>
        <mxCell id="KOKp6EKpK6rq5gHab_TY-51" value="DevOps" style="rounded=1;whiteSpace=wrap;html=1;shadow=0;strokeWidth=2;fillColor=#bac8d3;fontSize=12;align=center;strokeColor=#23445d;arcSize=6;verticalAlign=top;labelBackgroundColor=default;" vertex="1" parent="1">
          <mxGeometry x="550" y="1020" width="730" height="334" as="geometry" />
        </mxCell>
        <mxCell id="KOKp6EKpK6rq5gHab_TY-52" value="GitHub" style="shape=image;verticalLabelPosition=bottom;labelBackgroundColor=#ffffff;verticalAlign=top;aspect=fixed;imageAspect=0;image=data:image/svg+xml,PHN2ZyB4bWxuczpjYz0iaHR0cDovL2NyZWF0aXZlY29tbW9ucy5vcmcvbnMjIiB4bWxuczpkYz0iaHR0cDovL3B1cmwub3JnL2RjL2VsZW1lbnRzLzEuMS8iIHhtbG5zOmlua3NjYXBlPSJodHRwOi8vd3d3Lmlua3NjYXBlLm9yZy9uYW1lc3BhY2VzL2lua3NjYXBlIiB4bWxuczpyZGY9Imh0dHA6Ly93d3cudzMub3JnLzE5OTkvMDIvMjItcmRmLXN5bnRheC1ucyMiIHhtbG5zOnNvZGlwb2RpPSJodHRwOi8vc29kaXBvZGkuc291cmNlZm9yZ2UubmV0L0RURC9zb2RpcG9kaS0wLmR0ZCIgeG1sbnM6c3ZnPSJodHRwOi8vd3d3LnczLm9yZy8yMDAwL3N2ZyIgeG1sbnM9Imh0dHA6Ly93d3cudzMub3JnLzIwMDAvc3ZnIiB4bWxuczp4bGluaz0iaHR0cDovL3d3dy53My5vcmcvMTk5OS94bGluayIgdmVyc2lvbj0iMS4xIiBpZD0ic3ZnMTc1NjcxIiBpbmtzY2FwZTp2ZXJzaW9uPSIwLjkyLjMgKDI0MDU1NDYsIDIwMTgtMDMtMTEpIiBzb2RpcG9kaTpkb2NuYW1lPSJnaXRodWIuc3ZnIiB4PSIwcHgiIHk9IjBweCIgdmlld0JveD0iMCAwIDQ1LjI3IDQ1LjI5IiBzdHlsZT0iZW5hYmxlLWJhY2tncm91bmQ6bmV3IDAgMCA0NS4yNyA0NS4yOTsiIHhtbDpzcGFjZT0icHJlc2VydmUiPiYjeGE7PHNvZGlwb2RpOm5hbWVkdmlldyBib3JkZXJjb2xvcj0iIzY2NjY2NiIgYm9yZGVyb3BhY2l0eT0iMSIgZml0LW1hcmdpbi1ib3R0b209IjAiIGZpdC1tYXJnaW4tbGVmdD0iMCIgZml0LW1hcmdpbi1yaWdodD0iMCIgZml0LW1hcmdpbi10b3A9IjAiIGdyaWR0b2xlcmFuY2U9IjEwIiBndWlkZXRvbGVyYW5jZT0iMTAiIGlkPSJuYW1lZHZpZXcxNzU2NzMiIGlua3NjYXBlOmN1cnJlbnQtbGF5ZXI9InN2ZzE3NTY3MSIgaW5rc2NhcGU6Y3g9IjMwLjE3ODAyNSIgaW5rc2NhcGU6Y3k9IjMwLjE5NDMxOSIgaW5rc2NhcGU6cGFnZW9wYWNpdHk9IjAiIGlua3NjYXBlOnBhZ2VzaGFkb3c9IjIiIGlua3NjYXBlOndpbmRvdy1oZWlnaHQ9IjEwMTciIGlua3NjYXBlOndpbmRvdy1tYXhpbWl6ZWQ9IjEiIGlua3NjYXBlOndpbmRvdy13aWR0aD0iMTkyMCIgaW5rc2NhcGU6d2luZG93LXg9Ii04IiBpbmtzY2FwZTp3aW5kb3cteT0iLTgiIGlua3NjYXBlOnpvb209IjEwLjA5NTE1OCIgb2JqZWN0dG9sZXJhbmNlPSIxMCIgcGFnZWNvbG9yPSIjZmZmZmZmIiBzaG93Z3JpZD0iZmFsc2UiPiYjeGE7CTwvc29kaXBvZGk6bmFtZWR2aWV3PiYjeGE7PGcgaWQ9ImcxNzU2NjkiIHRyYW5zZm9ybT0idHJhbnNsYXRlKC05LjU2MjU0MTcsLTkuNTYxMzEpIj4mI3hhOwk8dGl0bGUgaWQ9InRpdGxlMTc1NjU5Ij5QYWdlLTE8L3RpdGxlPiYjeGE7CTxnIGlkPSJncm91cDIyNTAtMSIgdHJhbnNmb3JtPSJ0cmFuc2xhdGUoOS41NjMwOCwtOS4zNzg2OSkiPiYjeGE7CQk8dGl0bGUgaWQ9InRpdGxlMTc1NjYxIj5HaXRIdWI8L3RpdGxlPiYjeGE7CQk8ZyBpZD0ic2hhcGUyMjUxLTIiPiYjeGE7CQkJPHRpdGxlIGlkPSJ0aXRsZTE3NTY2MyI+U2hlZXQuMjI1MTwvdGl0bGU+JiN4YTsJCQk8cGF0aCBpZD0icGF0aDE3NTY2NSIgaW5rc2NhcGU6Y29ubmVjdG9yLWN1cnZhdHVyZT0iMCIgZD0iTTIyLjYzLDE4Ljk0QzEwLjE0LDE4Ljk0LDAsMjkuMzMsMCw0Mi4xNSAgICAgYy0wLjA3LDkuODksNi4xNSwxOC43MywxNS40OCwyMi4wMWMxLjEzLDAuMjIsMS41NC0wLjUsMS41NC0xLjExYzAtMC42MiwwLTIuMDEsMC0zLjk1Yy02LjI5LDEuNDEtNy42Mi0zLjExLTcuNjItMy4xMSAgICAgYy0xLjAzLTIuNjgtMi41MS0zLjQtMi41MS0zLjRjLTIuMDYtMS40MSwwLjE1LTEuNDEsMC4xNS0xLjQxYzIuMjcsMC4xNiwzLjQ3LDIuMzksMy40NywyLjM5YzIuMDIsMy41NCw1LjMsMi41Miw2LjU4LDEuOTMgICAgIGMwLjEtMS4xNywwLjYtMi4yNiwxLjQyLTMuMUMxMy40OCw1MS44MSw4LjIsNDkuODIsOC4yLDQwLjkyYy0wLjA0LTIuMjksMC43OS00LjUxLDIuMzItNi4yMmMtMC42OS0yLTAuNjEtNC4xOSwwLjIyLTYuMTQgICAgIGMwLDAsMS45MS0wLjYyLDYuMjMsMi40YzMuNy0xLjA0LDcuNjItMS4wNCwxMS4zMiwwYzQuMzItMyw2LjIyLTIuMzcsNi4yMi0yLjM3YzAuODMsMS45NSwwLjkxLDQuMTQsMC4yMiw2LjE0ICAgICBjMS41MywxLjcsMi4zNywzLjkzLDIuMzMsNi4yMmMwLDguOTEtNS4yOSwxMC44OC0xMC4zMywxMS40NWMwLjgxLDAuNzEsMS41MywyLjEyLDEuNTMsNC4zYzAsMy4xMSwwLDUuNjEsMCw2LjM3ICAgICBjMCwwLjYyLDAuNDEsMS4zNCwxLjU2LDEuMTJjOS4zMy0zLjMsMTUuNTMtMTIuMTUsMTUuNDUtMjIuMDRDNDUuMjcsMjkuMzMsMzUuMTMsMTguOTQsMjIuNjMsMTguOTR6Ii8+JiN4YTsJCTwvZz4mI3hhOwk8L2c+JiN4YTs8L2c+JiN4YTs8L3N2Zz4=;horizontal=0;" vertex="1" parent="1">
          <mxGeometry x="570.37" y="1087.5" width="45" height="45" as="geometry" />
        </mxCell>
        <mxCell id="KOKp6EKpK6rq5gHab_TY-53" value="Jira" style="image;image=img/lib/atlassian/Jira_Logo.svg;labelBackgroundColor=default;horizontal=0;" vertex="1" parent="1">
          <mxGeometry x="621.25" y="1087.5" width="45.5" height="47.5" as="geometry" />
        </mxCell>
        <mxCell id="KOKp6EKpK6rq5gHab_TY-54" value="Net 6.0" style="shape=image;verticalLabelPosition=bottom;labelBackgroundColor=#ffffff;verticalAlign=top;aspect=fixed;imageAspect=0;image=data:image/svg+xml,PHN2ZyB4bWxuczpjYz0iaHR0cDovL2NyZWF0aXZlY29tbW9ucy5vcmcvbnMjIiB4bWxuczpkYz0iaHR0cDovL3B1cmwub3JnL2RjL2VsZW1lbnRzLzEuMS8iIHhtbG5zOmlua3NjYXBlPSJodHRwOi8vd3d3Lmlua3NjYXBlLm9yZy9uYW1lc3BhY2VzL2lua3NjYXBlIiB4bWxuczpyZGY9Imh0dHA6Ly93d3cudzMub3JnLzE5OTkvMDIvMjItcmRmLXN5bnRheC1ucyMiIHhtbG5zOnNvZGlwb2RpPSJodHRwOi8vc29kaXBvZGkuc291cmNlZm9yZ2UubmV0L0RURC9zb2RpcG9kaS0wLmR0ZCIgeG1sbnM6c3ZnPSJodHRwOi8vd3d3LnczLm9yZy8yMDAwL3N2ZyIgeG1sbnM9Imh0dHA6Ly93d3cudzMub3JnLzIwMDAvc3ZnIiB4bWxuczp4bGluaz0iaHR0cDovL3d3dy53My5vcmcvMTk5OS94bGluayIgdmVyc2lvbj0iMS4xIiBpZD0ic3ZnMTY4NTI4IiBpbmtzY2FwZTp2ZXJzaW9uPSIwLjkyLjMgKDI0MDU1NDYsIDIwMTgtMDMtMTEpIiBzb2RpcG9kaTpkb2NuYW1lPSJkb3RuZXQuc3ZnIiB4PSIwcHgiIHk9IjBweCIgdmlld0JveD0iMCAwIDQ4IDQ4IiBzdHlsZT0iZW5hYmxlLWJhY2tncm91bmQ6bmV3IDAgMCA0OCA0ODsiIHhtbDpzcGFjZT0icHJlc2VydmUiPiYjeGE7PHNvZGlwb2RpOm5hbWVkdmlldyBib3JkZXJjb2xvcj0iIzY2NjY2NiIgYm9yZGVyb3BhY2l0eT0iMSIgZml0LW1hcmdpbi1ib3R0b209IjAiIGZpdC1tYXJnaW4tbGVmdD0iMCIgZml0LW1hcmdpbi1yaWdodD0iMCIgZml0LW1hcmdpbi10b3A9IjAiIGdyaWR0b2xlcmFuY2U9IjEwIiBndWlkZXRvbGVyYW5jZT0iMTAiIGlkPSJuYW1lZHZpZXcxNjg1MzAiIGlua3NjYXBlOmN1cnJlbnQtbGF5ZXI9InN2ZzE2ODUyOCIgaW5rc2NhcGU6Y3g9IjQzLjc0ODEwNiIgaW5rc2NhcGU6Y3k9IjIxLjc5MTkwMiIgaW5rc2NhcGU6cGFnZW9wYWNpdHk9IjAiIGlua3NjYXBlOnBhZ2VzaGFkb3c9IjIiIGlua3NjYXBlOndpbmRvdy1oZWlnaHQ9IjEwMTciIGlua3NjYXBlOndpbmRvdy1tYXhpbWl6ZWQ9IjEiIGlua3NjYXBlOndpbmRvdy13aWR0aD0iMTkyMCIgaW5rc2NhcGU6d2luZG93LXg9Ii04IiBpbmtzY2FwZTp3aW5kb3cteT0iLTgiIGlua3NjYXBlOnpvb209IjkuMTY1MTI1OSIgb2JqZWN0dG9sZXJhbmNlPSIxMCIgcGFnZWNvbG9yPSIjZmZmZmZmIiBzaG93Z3JpZD0iZmFsc2UiPiYjeGE7CTwvc29kaXBvZGk6bmFtZWR2aWV3PiYjeGE7PGNpcmNsZSBpZD0iZWxsaXBzZTE2ODQ5NyIgc3R5bGU9ImZpbGw6IzVDMkQ5MTsiIGN4PSIyNCIgY3k9IjI0IiByPSIyNCIvPiYjeGE7PHBhdGggaWQ9InBhdGgxNjg1MDIiIGlua3NjYXBlOmNvbm5lY3Rvci1jdXJ2YXR1cmU9IjAiIHN0eWxlPSJmaWxsOiNGRkZGRkY7ZmlsbC1vcGFjaXR5OjAuMDk4OyIgZD0iTTcuMzYsNi43NSAgQy0yLjUzLDE1LjU3LTMuNCwzMC43NCw1LjQyLDQwLjY0UzI5LjQxLDUxLjQsMzkuMyw0Mi41OGMwLjY5LTAuNjEsMS4zNC0xLjI2LDEuOTUtMS45NUw3LjM2LDYuNzV6Ii8+JiN4YTs8cGF0aCBpZD0icGF0aDE2ODUwNyIgaW5rc2NhcGU6Y29ubmVjdG9yLWN1cnZhdHVyZT0iMCIgc3R5bGU9ImZpbGw6I0ZGRkZGRjsiIGQ9Ik01LjU1LDMwLjk0Yy0wLjI4LDAtMC41Ni0wLjExLTAuNzUtMC4zMiAgYy0wLjItMC4yLTAuMzEtMC40Ny0wLjMxLTAuNzVjMC0wLjI4LDAuMTEtMC41NSwwLjMxLTAuNzVDNSwyOC45MSw1LjI3LDI4LjgsNS41NSwyOC44YzAuMjgsMCwwLjU1LDAuMTEsMC43NSwwLjMyICBjMC4yLDAuMiwwLjMxLDAuNDcsMC4zMSwwLjc1YzAsMC4yOC0wLjExLDAuNTUtMC4zMSwwLjc1QzYuMTEsMzAuODIsNS44NCwzMC45NCw1LjU1LDMwLjk0eiIvPiYjeGE7PHBhdGggaWQ9InBhdGgxNjg1MTIiIGlua3NjYXBlOmNvbm5lY3Rvci1jdXJ2YXR1cmU9IjAiIHN0eWxlPSJmaWxsOiNGRkZGRkY7IiBkPSJNMjAuNDUsMzAuNzVoLTEuOTdsLTcuMDItMTAuOTEgIGMtMC4xOC0wLjI3LTAuMzItMC41NS0wLjQ0LTAuODVoLTAuMDZjMC4wNywwLjYyLDAuMDksMS4yNSwwLjA4LDEuODd2OS44OWgtMS42VjE3LjA4aDIuMDhsNi44NCwxMC43MSAgYzAuMjgsMC40NCwwLjQ3LDAuNzUsMC41NSwwLjkxaDAuMDRjLTAuMDgtMC42Ny0wLjExLTEuMzQtMC4xLTIuMDF2LTkuNjFoMS42VjMwLjc1eiIvPiYjeGE7PHBhdGggaWQ9InBhdGgxNjg1MTciIGlua3NjYXBlOmNvbm5lY3Rvci1jdXJ2YXR1cmU9IjAiIHN0eWxlPSJmaWxsOiNGRkZGRkY7IiBkPSJNMzEuMjcsMzAuNzVIMjRWMTcuMDhoNi45M3YxLjQ0aC01LjN2NC41NWg0Ljk0ICB2MS40NGgtNC45NHY0Ljc0aDUuNjRWMzAuNzV6Ii8+JiN4YTs8cGF0aCBpZD0icGF0aDE2ODUyMiIgaW5rc2NhcGU6Y29ubmVjdG9yLWN1cnZhdHVyZT0iMCIgc3R5bGU9ImZpbGw6I0ZGRkZGRjsiIGQ9Ik00MiwxOC41MmgtMy45N3YxMi4yM2gtMS42VjE4LjUySDMyLjV2LTEuNDRINDIgIFYxOC41MnoiLz4mI3hhOzwvc3ZnPg==;horizontal=0;" vertex="1" parent="1">
          <mxGeometry x="681.25" y="1087.5" width="48" height="48" as="geometry" />
        </mxCell>
        <mxCell id="KOKp6EKpK6rq5gHab_TY-55" value="C#10.0" style="shape=image;verticalLabelPosition=bottom;labelBackgroundColor=#ffffff;verticalAlign=top;aspect=fixed;imageAspect=0;image=data:image/svg+xml,PHN2ZyB4bWxuczpjYz0iaHR0cDovL2NyZWF0aXZlY29tbW9ucy5vcmcvbnMjIiB4bWxuczpkYz0iaHR0cDovL3B1cmwub3JnL2RjL2VsZW1lbnRzLzEuMS8iIHhtbG5zOmlua3NjYXBlPSJodHRwOi8vd3d3Lmlua3NjYXBlLm9yZy9uYW1lc3BhY2VzL2lua3NjYXBlIiB4bWxuczpyZGY9Imh0dHA6Ly93d3cudzMub3JnLzE5OTkvMDIvMjItcmRmLXN5bnRheC1ucyMiIHhtbG5zOnNvZGlwb2RpPSJodHRwOi8vc29kaXBvZGkuc291cmNlZm9yZ2UubmV0L0RURC9zb2RpcG9kaS0wLmR0ZCIgeG1sbnM6c3ZnPSJodHRwOi8vd3d3LnczLm9yZy8yMDAwL3N2ZyIgeG1sbnM9Imh0dHA6Ly93d3cudzMub3JnLzIwMDAvc3ZnIiB4bWxuczp4bGluaz0iaHR0cDovL3d3dy53My5vcmcvMTk5OS94bGluayIgdmVyc2lvbj0iMS4xIiBpZD0ic3ZnMTM5ODg0IiBpbmtzY2FwZTp2ZXJzaW9uPSIwLjkyLjMgKDI0MDU1NDYsIDIwMTgtMDMtMTEpIiBzb2RpcG9kaTpkb2NuYW1lPSJjc2hhcnAuc3ZnIiB4PSIwcHgiIHk9IjBweCIgdmlld0JveD0iMCAwIDQ4IDQ4IiBzdHlsZT0iZW5hYmxlLWJhY2tncm91bmQ6bmV3IDAgMCA0OCA0ODsiIHhtbDpzcGFjZT0icHJlc2VydmUiPiYjeGE7PHNvZGlwb2RpOm5hbWVkdmlldyBib3JkZXJjb2xvcj0iIzY2NjY2NiIgYm9yZGVyb3BhY2l0eT0iMSIgZml0LW1hcmdpbi1ib3R0b209IjAiIGZpdC1tYXJnaW4tbGVmdD0iMCIgZml0LW1hcmdpbi1yaWdodD0iMCIgZml0LW1hcmdpbi10b3A9IjAiIGdyaWR0b2xlcmFuY2U9IjEwIiBndWlkZXRvbGVyYW5jZT0iMTAiIGlkPSJuYW1lZHZpZXcxMzk4ODYiIGlua3NjYXBlOmN1cnJlbnQtbGF5ZXI9InN2ZzEzOTg4NCIgaW5rc2NhcGU6Y3g9IjMxLjU1NDYxIiBpbmtzY2FwZTpjeT0iMzEuNTU0NjExIiBpbmtzY2FwZTpwYWdlb3BhY2l0eT0iMCIgaW5rc2NhcGU6cGFnZXNoYWRvdz0iMiIgaW5rc2NhcGU6d2luZG93LWhlaWdodD0iMTAxNyIgaW5rc2NhcGU6d2luZG93LW1heGltaXplZD0iMSIgaW5rc2NhcGU6d2luZG93LXdpZHRoPSIxOTIwIiBpbmtzY2FwZTp3aW5kb3cteD0iLTgiIGlua3NjYXBlOndpbmRvdy15PSItOCIgaW5rc2NhcGU6em9vbT0iMTIuOTYxNDQ1IiBvYmplY3R0b2xlcmFuY2U9IjEwIiBwYWdlY29sb3I9IiNmZmZmZmYiIHNob3dncmlkPSJmYWxzZSI+JiN4YTsJPC9zb2RpcG9kaTpuYW1lZHZpZXc+JiN4YTs8ZyBpZD0ic2hhcGU5ODAtMiIgdHJhbnNmb3JtPSJ0cmFuc2xhdGUoMCwtMi4xNjc5OTkzKSI+JiN4YTsJPHRpdGxlIGlkPSJ0aXRsZTEzOTg2MSI+Y2lyY2xlNTg4NjwvdGl0bGU+JiN4YTsJPGNpcmNsZSBpZD0iZWxsaXBzZTEzOTg2MyIgc3R5bGU9ImZpbGw6IzA1OTMwQzsiIGN4PSIyNCIgY3k9IjI2LjE3IiByPSIyNCIvPiYjeGE7PC9nPiYjeGE7PGcgaWQ9InNoYXBlOTgxLTQiIHRyYW5zZm9ybT0idHJhbnNsYXRlKDYuMzYxMzksLTguNTI5Mzg5MykiPiYjeGE7CTx0aXRsZSBpZD0idGl0bGUxMzk4NjYiPnBhdGg1ODg4PC90aXRsZT4mI3hhOwk8cGF0aCBpZD0icGF0aDEzOTg2OCIgaW5rc2NhcGU6Y29ubmVjdG9yLWN1cnZhdHVyZT0iMCIgc3R5bGU9ImZpbGw6I0ZGRkZGRjtmaWxsLW9wYWNpdHk6MC4wOTg7IiBkPSJNMSwxNS4yOCAgIEMtOC44OSwyNC4xLTkuNzcsMzkuMjctMC45NSw0OS4xN3MyMy45OSwxMC43NywzMy44OSwxLjk1YzAuNjktMC42MSwxLjM0LTEuMjYsMS45NS0xLjk1TDEsMTUuMjh6Ii8+JiN4YTs8L2c+JiN4YTs8ZyBpZD0ic2hhcGU5ODItNiIgdHJhbnNmb3JtPSJ0cmFuc2xhdGUoOC42OTI1LC0xNi4zOTU0OTkpIj4mI3hhOwk8dGl0bGUgaWQ9InRpdGxlMTM5ODcxIj5wYXRoNTg5MDwvdGl0bGU+JiN4YTsJPHBhdGggaWQ9InBhdGgxMzk4NzMiIGlua3NjYXBlOmNvbm5lY3Rvci1jdXJ2YXR1cmU9IjAiIHN0eWxlPSJmaWxsOiNGRkZGRkY7IiBkPSJNMTQuMTMsNDkuMDZjLTEuNjMsMC43OS0zLjQ0LDEuMTgtNS4yNSwxLjExICAgYy0yLjQzLDAuMTEtNC43OC0wLjg0LTYuNDYtMi42QzAuNzYsNDUuNy0wLjExLDQzLjI2LDAsNDAuNzZjLTAuMTItMi43MSwwLjg3LTUuMzYsMi43My03LjMzYzEuODItMS44Niw0LjM0LTIuODcsNi45NC0yLjc4ICAgYzEuNTItMC4wNiwzLjA0LDAuMiw0LjQ2LDAuNzV2Mi4zNmMtMS4zOC0wLjc2LTIuOTMtMS4xNS00LjUtMS4xM2MtMS45OC0wLjA3LTMuODksMC43Mi01LjI1LDIuMTdjLTEuNDEsMS42LTIuMTMsMy42OC0yLjAzLDUuODEgICBjLTAuMTEsMi4wMSwwLjU3LDMuOTksMS44OSw1LjUxYzEuMjgsMS4zOCwzLjA5LDIuMTIsNC45NywyLjA1YzEuNzMsMC4wNCwzLjQ0LTAuNCw0LjkzLTEuMjdMMTQuMTMsNDkuMDZ6Ii8+JiN4YTs8L2c+JiN4YTs8ZyBpZD0ic2hhcGU5ODMtOCIgdHJhbnNmb3JtPSJ0cmFuc2xhdGUoMjQuNjMsLTE4LjMyMjk5OSkiPiYjeGE7CTx0aXRsZSBpZD0idGl0bGUxMzk4NzYiPnBhdGg1ODkyPC90aXRsZT4mI3hhOwk8cGF0aCBpZD0icGF0aDEzOTg3OCIgaW5rc2NhcGU6Y29ubmVjdG9yLWN1cnZhdHVyZT0iMCIgc3R5bGU9ImZpbGw6I0ZGRkZGRjsiIGQ9Ik0xNC45NCwzOC4xN2wtMC4zLDEuMzloLTMuNDVsLTAuODMsMy45NmgzLjcxICAgbC0wLjM1LDEuNGgtMy42M2wtMS4xNyw1LjI1SDcuMjdsMS4xMy01LjI1SDUuMWwtMS4xMSw1LjI1SDIuMzdsMS4xMS01LjI1SDBsMC4yNi0xLjRoMy41bDAuOC0zLjk1SDAuOTFsMC4yNy0xLjM5aDMuNjZsMS4xMS01LjMxICAgaDEuNjdsLTEuMTEsNS4zMWgzLjMybDEuMTMtNS4zMWgxLjYybC0xLjExLDUuMzFMMTQuOTQsMzguMTd6IE05LjU2LDM5LjU2SDYuMjNsLTAuODYsMy45NmgzLjM0TDkuNTYsMzkuNTZ6Ii8+JiN4YTs8L2c+JiN4YTs8L3N2Zz4=;horizontal=0;" vertex="1" parent="1">
          <mxGeometry x="741" y="1087.5" width="48" height="48" as="geometry" />
        </mxCell>
        <mxCell id="KOKp6EKpK6rq5gHab_TY-56" value="Docker" style="shape=image;verticalLabelPosition=bottom;labelBackgroundColor=#ffffff;verticalAlign=top;aspect=fixed;imageAspect=0;image=data:image/svg+xml,PHN2ZyB4bWxuczpjYz0iaHR0cDovL2NyZWF0aXZlY29tbW9ucy5vcmcvbnMjIiB4bWxuczpkYz0iaHR0cDovL3B1cmwub3JnL2RjL2VsZW1lbnRzLzEuMS8iIHhtbG5zOmlua3NjYXBlPSJodHRwOi8vd3d3Lmlua3NjYXBlLm9yZy9uYW1lc3BhY2VzL2lua3NjYXBlIiB4bWxuczpyZGY9Imh0dHA6Ly93d3cudzMub3JnLzE5OTkvMDIvMjItcmRmLXN5bnRheC1ucyMiIHhtbG5zOnNvZGlwb2RpPSJodHRwOi8vc29kaXBvZGkuc291cmNlZm9yZ2UubmV0L0RURC9zb2RpcG9kaS0wLmR0ZCIgeG1sbnM6c3ZnPSJodHRwOi8vd3d3LnczLm9yZy8yMDAwL3N2ZyIgeG1sbnM9Imh0dHA6Ly93d3cudzMub3JnLzIwMDAvc3ZnIiB4bWxuczp4bGluaz0iaHR0cDovL3d3dy53My5vcmcvMTk5OS94bGluayIgdmVyc2lvbj0iMS4xIiBpZD0ic3ZnMTY2NTAyIiBpbmtzY2FwZTp2ZXJzaW9uPSIwLjkyLjMgKDI0MDU1NDYsIDIwMTgtMDMtMTEpIiBzb2RpcG9kaTpkb2NuYW1lPSJkb2NrZXJfdG9vbHMuc3ZnIiB4PSIwcHgiIHk9IjBweCIgdmlld0JveD0iMCAwIDk5LjIyIDgzLjI0IiBzdHlsZT0iZW5hYmxlLWJhY2tncm91bmQ6bmV3IDAgMCA5OS4yMiA4My4yNDsiIHhtbDpzcGFjZT0icHJlc2VydmUiPiYjeGE7PHNvZGlwb2RpOm5hbWVkdmlldyBib3JkZXJjb2xvcj0iIzY2NjY2NiIgYm9yZGVyb3BhY2l0eT0iMSIgZml0LW1hcmdpbi1ib3R0b209IjAiIGZpdC1tYXJnaW4tbGVmdD0iMCIgZml0LW1hcmdpbi1yaWdodD0iMCIgZml0LW1hcmdpbi10b3A9IjAiIGdyaWR0b2xlcmFuY2U9IjEwIiBndWlkZXRvbGVyYW5jZT0iMTAiIGlkPSJuYW1lZHZpZXcxNjY1MDQiIGlua3NjYXBlOmN1cnJlbnQtbGF5ZXI9InN2ZzE2NjUwMiIgaW5rc2NhcGU6Y3g9IjY2LjE0MTY1NiIgaW5rc2NhcGU6Y3k9IjU1LjQ5MzEwOCIgaW5rc2NhcGU6cGFnZW9wYWNpdHk9IjAiIGlua3NjYXBlOnBhZ2VzaGFkb3c9IjIiIGlua3NjYXBlOndpbmRvdy1oZWlnaHQ9IjEwMTciIGlua3NjYXBlOndpbmRvdy1tYXhpbWl6ZWQ9IjEiIGlua3NjYXBlOndpbmRvdy13aWR0aD0iMTkyMCIgaW5rc2NhcGU6d2luZG93LXg9Ii04IiBpbmtzY2FwZTp3aW5kb3cteT0iLTgiIGlua3NjYXBlOnpvb209IjYuNTk5MDg5OCIgb2JqZWN0dG9sZXJhbmNlPSIxMCIgcGFnZWNvbG9yPSIjZmZmZmZmIiBzaG93Z3JpZD0iZmFsc2UiPiYjeGE7CTwvc29kaXBvZGk6bmFtZWR2aWV3PiYjeGE7PGcgaWQ9ImcxNjY1MDAiIHRyYW5zZm9ybT0idHJhbnNsYXRlKC03LjY1LC03LjY0OTMyOSkiPiYjeGE7CTx0aXRsZSBpZD0idGl0bGUxNjYzODQiPlBhZ2UtMTwvdGl0bGU+JiN4YTsJPGcgaWQ9Imdyb3VwMTM3Ny0xIiB0cmFuc2Zvcm09InRyYW5zbGF0ZSg3LjY1LC03LjE0MTc0KSI+JiN4YTsJCTx0aXRsZSBpZD0idGl0bGUxNjYzODYiPkRvY2tlciBUb29sczwvdGl0bGU+JiN4YTsJCTxnIGlkPSJzaGFwZTEzNzgtMiIgdHJhbnNmb3JtPSJ0cmFuc2xhdGUoMC4wNjc0MTM3KSI+JiN4YTsJCQk8dGl0bGUgaWQ9InRpdGxlMTY2Mzg4Ij5kb2NrZXJfNF88L3RpdGxlPiYjeGE7CQkJPHBhdGggaWQ9InBhdGgxNjYzOTAiIGlua3NjYXBlOmNvbm5lY3Rvci1jdXJ2YXR1cmU9IjAiIHN0eWxlPSJmaWxsOiMzRjU3NjU7IiBkPSJNNzMuMzksOTIuNzljMi4yMy0xLjkxLDQuNDYtMy44Myw2LjY5LTUuNzUgICAgIGMwLjc2LTAuNjYsMS41OS0xLjM0LDIuMzUtMi4wM2MtMC42MS0wLjc2LTEuNjItMS4zMS0yLjQ4LTEuNjRjLTEuNzMtMC42Ni0zLjQ0LTAuNDQtNS4wMywwLjQ4Yy0yLjA5LDEuMi0yLjk3LDMuMTItMi44OSw1LjUgICAgIGMwLjAzLDAuOTQsMC4yOCwxLjg0LDAuNzgsMi42NEM3Mi45OCw5Mi4yNyw3My4xOCw5Mi41NCw3My4zOSw5Mi43OXogTTc1Ljk3LDk0LjZjMS4xLDAuMzgsMi4zNCwwLjMzLDMuNDcsMC4xNCAgICAgYzAuNTctMC4yNSwyLjA0LTAuODksMi41OC0wLjhsMC4wOCwwLjAyTDgyLjE4LDk0YzAuMzMsMC4xNiwwLjY0LDAuMzgsMC44MSwwLjcyYzAuNCwwLjc5LDAuMjEsMS41Ny0wLjU3LDIuMDJsLTAuMjUsMC4xNSAgICAgYy0yLjg1LDEuNjUtNS44OSwxLjQyLTguNzMtMC4xMmMtMS4zNi0wLjczLTIuNC0xLjgyLTMuMTctMy4xNmwtMC4xOC0wLjMxYy0xLjgzLTMuMTctMS41OC02LjUsMC40OC05LjUyICAgICBjMC43Mi0xLjA0LDEuNjUtMS44NSwyLjc0LTIuNDhsMC40MS0wLjIzYzIuNjktMS41NSw1LjU3LTEuNDUsOC4zMy0wLjA5YzEuNDgsMC43MywyLjY4LDEuODMsMy41MSwzLjI2bDAuMTUsMC4yNiAgICAgYzAuNiwxLjA0LTAuMTgsMS45NS0wLjk4LDIuNTdjLTAuOTQsMC43Mi0xLjg4LDEuNTktMi43OCwyLjM2Qzc5Ljk2LDkxLjE1LDc3Ljk3LDkyLjg4LDc1Ljk3LDk0LjZ6IE05Ny4zNCw4MC4xOGgwLjMgICAgIGMwLjksMCwxLjUxLDAuNjEsMS41MSwxLjVjMCwxLjI1LTEuMiwxLjU3LTIuMjIsMS41N2MtMS4zNiwwLTIuNjQsMC44MS0zLjU3LDEuNzNjLTEuMTcsMS4xNS0xLjY3LDIuNjEtMS42Nyw0LjIydjcuMjggICAgIGMwLDAuODMtMC41MiwxLjUxLTEuMzksMS41MWgtMC4yNGMtMC44NiwwLTEuMzgtMC42OC0xLjM4LTEuNTF2LTcuN2MwLTIuOTUsMS40NC01LjM2LDMuODQtNy4wNiAgICAgQzkzLjk1LDgwLjcxLDk1LjU5LDgwLjE4LDk3LjM0LDgwLjE4eiBNNTkuODcsODUuMzRjMS4xNi0xLjE3LDIuMzQtMi4zMywzLjUyLTMuNDhjMC4zMy0wLjMyLDEuNTgtMS42OCwyLjA4LTEuNjhINjZsMC4wNiwwLjAxICAgICBjMC42OSwwLjE0LDEuMiwwLjU4LDEuMiwxLjMxdjAuM2MwLDAuNS0wLjU5LDEuMDktMC45MSwxLjQzYy0wLjY5LDAuNzQtMS40MiwxLjQ0LTIuMTMsMi4xNmwtMy42MywzLjY5ICAgICBjMS41NywxLjU2LDMuMTMsMy4xMyw0LjY4LDQuNzFjMC40MywwLjQ0LDAuODYsMC44OCwxLjI4LDEuMzJjMC4xNSwwLjE2LDAuMzcsMC4zNSwwLjUsMC41N2MwLjEzLDAuMjEsMC4yMSwwLjQ0LDAuMjEsMC42OHYwLjMxICAgICBsLTAuMDEsMC4wN2MtMC4xNywwLjY5LTAuNjEsMS4yNC0xLjM3LDEuMjRoLTAuMjRjLTAuNSwwLTEuMDYtMC41Ni0xLjQtMC44OGMtMC43LTAuNjYtMS4zOC0xLjM2LTIuMDctMi4wM2wtMi4zMS0yLjI3djMuNjIgICAgIGMwLDAuODQtMC41MiwxLjUxLTEuMzgsMS41MWgtMC4yNGMtMC44NiwwLTEuMzgtMC42Ny0xLjM4LTEuNTFWNzYuMDFjMC0wLjgzLDAuNTItMS41LDEuMzgtMS41aDAuMjRjMC44NiwwLDEuMzgsMC42NywxLjM4LDEuNSAgICAgTDU5Ljg3LDg1LjM0TDU5Ljg3LDg1LjM0eiBNNTAuMTIsODMuMzFjLTAuNDYtMC4yMS0xLjMxLTAuMjktMS44LTAuM2MtMi41MS0wLjEtNC4zMywxLjMyLTUuNCwzLjUzICAgICBjLTAuMzYsMC43Ny0wLjUzLDEuNTgtMC41MywyLjQyYzAsMi41OCwxLjM1LDQuMzgsMy42NSw1LjQ4YzAuODQsMC40LDEuOTIsMC40OCwyLjg0LDAuNDhjMC44MSwwLDEuOTUtMC41LDIuNjYtMC44NGwwLjEzLTAuMDYgICAgIGgwLjU2bDAuMDYsMC4wMmMwLjY4LDAuMTQsMS4yLDAuNTcsMS4yLDEuMzF2MC4zYzAsMS44My0zLjM1LDIuMjUtNC42MywyLjM0Yy00LjUsMC4zMS03Ljg3LTIuMTctOS4xNS02LjQ2ICAgICBjLTAuMjMtMC43NS0wLjMzLTEuNDktMC4zMy0yLjI3di0wLjZjMC0zLjI2LDEuNjItNS44NCw0LjQyLTcuNWMxLjMtMC43NywyLjczLTEuMTYsNC4yNS0xLjE2aDAuNTljMS42LDAsMy4wOCwwLjQ1LDQuNCwxLjM2ICAgICBsMC4xMSwwLjA3bDAuMDcsMC4xMmMwLjE0LDAuMjMsMC4yNywwLjUxLDAuMjcsMC43OXYwLjNjMCwwLjc2LTAuNTgsMS4xOC0xLjI3LDEuMzFsLTAuMDYsMC4wMWgtMC4xOCAgICAgQzUxLjUzLDgzLjk2LDUwLjUyLDgzLjUsNTAuMTIsODMuMzF6IE0yMi43LDg5LjAyYzAsMi4yOSwxLjEyLDMuOTcsMy4wNSw1LjE1YzAuOTEsMC41NiwxLjksMC44MSwyLjk2LDAuODEgICAgIGMyLjI2LDAsMy45My0xLjE1LDUuMDktMy4wNWMwLjU2LTAuOTEsMC44MS0xLjkxLDAuODEtMi45N2MwLTIuMTItMS4wMy0zLjc1LTIuNzgtNC45MmMtMC45Ni0wLjY1LTIuMDItMC45Ny0zLjE4LTAuOTcgICAgIGMtMi41MiwwLTQuMzMsMS4yNy01LjQyLDMuNTNDMjIuODYsODcuMzYsMjIuNyw4OC4xOCwyMi43LDg5LjAyeiBNMjguMzUsODAuMDZoMC40MmMzLjQ5LDAsNi4xNCwxLjY5LDcuODEsNC43MyAgICAgYzAuNjgsMS4yMiwxLjAzLDIuNTQsMS4wMywzLjk0djAuNTljMCwzLjI2LTEuNiw1Ljg2LTQuNDEsNy41MWMtMS4zLDAuNzYtMi43NCwxLjE1LTQuMjUsMS4xNWgtMC42Yy0zLjI2LDAtNS44NS0xLjYxLTcuNS00LjQxICAgICBjLTAuNzctMS4zLTEuMTYtMi43NC0xLjE2LTQuMjV2LTAuNTljMC0zLjI3LDEuNjItNS44NSw0LjQxLTcuNTFDMjUuNDEsODAuNDUsMjYuODQsODAuMDYsMjguMzUsODAuMDZ6IE0zLjAxLDg5LjAyICAgICBjMCwyLjM2LDEuMTQsNC4xMywzLjIsNS4yNmMwLjg0LDAuNDUsMS43NCwwLjcsMi42OSwwLjdjMi4zMSwwLDQuMDMtMS4wOSw1LjIxLTMuMDVjMC41NS0wLjkxLDAuODEtMS45MSwwLjgxLTIuOTcgICAgIGMwLTIuMDQtMC45Ny0zLjYzLTIuNjItNC44MmMtMC45OS0wLjcxLTIuMTItMS4wNy0zLjM0LTEuMDdjLTIuNTIsMC00LjMzLDEuMjctNS40MiwzLjUzQzMuMTcsODcuMzYsMy4wMSw4OC4xOCwzLjAxLDg5LjAyeiAgICAgIE0xNC45Miw4Mi4zdi02LjM1YzAtMC44MywwLjUyLTEuNSwxLjM4LTEuNWgwLjI0YzAuODcsMCwxLjM4LDAuNjcsMS4zOCwxLjV2MTMuMzdjMCwzLjI2LTEuNjEsNS44NS00LjQxLDcuNTEgICAgIGMtMS4zLDAuNzYtMi43NCwxLjE2LTQuMjUsMS4xNmgtMC42Yy0zLjI2LDAtNS44NS0xLjYyLTcuNS00LjQyQzAuMzksOTIuMjcsMCw5MC44MywwLDg5LjMydi0wLjU5YzAtMy4yNiwxLjYxLTUuODYsNC40MS03LjUxICAgICBjMS4zMS0wLjc3LDIuNzQtMS4xNiw0LjI1LTEuMTZoMC42QzExLjQ3LDgwLjA2LDEzLjM0LDgwLjkxLDE0LjkyLDgyLjN6Ii8+JiN4YTsJCTwvZz4mI3hhOwkJPGcgaWQ9InNoYXBlMTM3OS00IiB0cmFuc2Zvcm09InRyYW5zbGF0ZSgxMS44MzQzLC0yNy41NDkzKSI+JiN4YTsJCQk8dGl0bGUgaWQ9InRpdGxlMTY2MzkzIj5vdXRsaW5lXzdfPC90aXRsZT4mI3hhOwkJCTxwYXRoIGlkPSJwYXRoMTY2Mzk1IiBpbmtzY2FwZTpjb25uZWN0b3ItY3VydmF0dXJlPSIwIiBzdHlsZT0iZmlsbDojMzk0RDU0OyIgZD0iTTQ1LjQsNjAuMDloOC44N3Y5LjA3aDQuNDkgICAgIGMyLjA3LDAsNC4yLTAuMzcsNi4xNi0xLjA0YzAuOTYtMC4zMiwyLjA1LTAuNzgsMy0xLjM1Yy0xLjI2LTEuNjQtMS44OS0zLjctMi4wOC01Ljc0Yy0wLjI2LTIuNzYsMC4zLTYuMzcsMi4xNy04LjUzbDAuOTQtMS4wOCAgICAgbDEuMTEsMC44OWMyLjgsMi4yNSw1LjE1LDUuMzksNS41Niw4Ljk3YzMuMzctMC45OSw3LjMzLTAuNzYsMTAuMywwLjk2bDEuMjIsMC43bC0wLjY0LDEuMjVjLTIuNTIsNC45MS03Ljc3LDYuNDItMTIuOSw2LjE1ICAgICBjLTcuNjgsMTkuMTQtMjQuNDEsMjguMi00NC42OCwyOC4yYy0xMC40OCwwLTIwLjA5LTMuOTItMjUuNTctMTMuMjJsLTAuMDktMC4xNWwtMC43OS0xLjYyQzAuNjIsNzkuNDYsMCw3NC45OCwwLjQyLDcwLjUgICAgIGwwLjEyLTEuMzRoNy41OXYtOS4wN0gxN3YtOC44OGgxNy43NXYtOC44N2gxMC42NHYxNy43NUg0NS40eiIvPiYjeGE7CQk8L2c+JiN4YTsJCTxnIGlkPSJncm91cDEzODAtNiIgdHJhbnNmb3JtPSJ0cmFuc2xhdGUoMTMuMjcwMywtMjkuMDI4NikiPiYjeGE7CQkJPHRpdGxlIGlkPSJ0aXRsZTE2NjM5OCI+Ym9keV9jb2xvcnNfOF88L3RpdGxlPiYjeGE7CQkJPGcgaWQ9InNoYXBlMTM4MS03Ij4mI3hhOwkJCQk8dGl0bGUgaWQ9InRpdGxlMTY2NDAwIj5TaGVldC4xMzgxPC90aXRsZT4mI3hhOwkJCQk8cGF0aCBpZD0icGF0aDE2NjQwMiIgaW5rc2NhcGU6Y29ubmVjdG9yLWN1cnZhdHVyZT0iMCIgc3R5bGU9ImZpbGw6IzAwQUFEQTsiIGQ9Ik03Mi43MSw2NC45MmMwLjU5LTQuNjItMi44Ny04LjI1LTUuMDItOS45OCAgICAgIGMtMi40NywyLjg2LTIuODUsMTAuMzUsMS4wMywxMy41MWMtMi4xNywxLjkyLTYuNzMsMy42Ni0xMS40LDMuNjZIMC40NUMwLDc2Ljk5LDAuODYsODEuNDgsMi44MSw4NS4zM2wwLjY1LDEuMTggICAgICBjMC40MSwwLjY5LDAuODYsMS4zNiwxLjM0LDIuMDFsMCwwYzIuMzQsMC4xNSw0LjQ5LDAuMiw2LjQ2LDAuMTZjMCwwLDAsMCwwLjAxLDBjMy44Ny0wLjA5LDcuMDMtMC41NCw5LjQzLTEuMzcgICAgICBjMC4zNi0wLjEzLDAuNzUsMC4wNiwwLjg3LDAuNDJjMC4xMiwwLjM1LTAuMDcsMC43NC0wLjQyLDAuODdjLTAuMzIsMC4xMS0wLjY1LDAuMjEtMSwwLjMxbDAsMGMtMS44OSwwLjU0LTMuOTEsMC45LTYuNTIsMS4wNiAgICAgIGMwLjE2LDAtMC4xNiwwLjAyLTAuMTYsMC4wMmMtMC4wOSwwLjAxLTAuMiwwLjAyLTAuMjksMC4wM2MtMS4wMywwLjA1LTIuMTQsMC4wNy0zLjI3LDAuMDdjLTEuMjQsMC0yLjQ2LTAuMDMtMy44My0wLjEgICAgICBsLTAuMDMsMC4wM2M0LjczLDUuMzIsMTIuMTQsOC41MiwyMS40Myw4LjUyYzE5LjY1LDAsMzYuMzItOC43Miw0My43LTI4LjI4YzUuMjQsMC41NCwxMC4yNy0wLjc5LDEyLjU2LTUuMjYgICAgICBDODAuMSw2Mi44OSw3NS40MSw2My41Niw3Mi43MSw2NC45MnoiLz4mI3hhOwkJCTwvZz4mI3hhOwkJCTxnIGlkPSJzaGFwZTEzODItOSIgdHJhbnNmb3JtPSJ0cmFuc2xhdGUoMy41ODk0NiwtNS4xNDc2MSkiPiYjeGE7CQkJCTx0aXRsZSBpZD0idGl0bGUxNjY0MDUiPlNoZWV0LjEzODI8L3RpdGxlPiYjeGE7CQkJCTxwYXRoIGlkPSJwYXRoMTY2NDA3IiBpbmtzY2FwZTpjb25uZWN0b3ItY3VydmF0dXJlPSIwIiBzdHlsZT0iZmlsbDojMjRCOEVCOyIgZD0iTTY5LjEyLDcwLjA3YzAuNTktNC42My0yLjg3LTguMjYtNS4wMS05Ljk4ICAgICAgYy0yLjQ4LDIuODYtMi44NiwxMC4zNSwxLjAyLDEzLjUxYy0yLjE3LDEuOTItNi43MywzLjY2LTExLjQsMy42NkgwLjIzQzAsODQuNzMsMi43Nyw5MC40LDcuNjcsOTMuODNjMCwwLDAsMCwwLjAxLDAgICAgICBjMy44Ny0wLjA5LDcuMDMtMC41NSw5LjQzLTEuMzhjMC4zNi0wLjEyLDAuNzUsMC4wNywwLjg3LDAuNDNjMC4xMiwwLjM1LTAuMDcsMC43NC0wLjQyLDAuODZjLTAuMzIsMC4xMi0wLjY1LDAuMjItMSwwLjMybDAsMCAgICAgIGMtMS44OSwwLjUzLTQuMDgsMC45NC02LjY5LDEuMTFjMCwwLTAuMDctMC4wNy0wLjA3LTAuMDZjNi42OSwzLjQzLDE2LjM5LDMuNDEsMjcuNTEtMC44NmMxMi40Ny00Ljc5LDI0LjA3LTEzLjkxLDMyLjE2LTI0LjM1ICAgICAgQzY5LjM1LDY5Ljk1LDY5LjIzLDcwLjAxLDY5LjEyLDcwLjA3eiIvPiYjeGE7CQkJPC9nPiYjeGE7CQkJPGcgaWQ9InNoYXBlMTM4My0xMSIgdHJhbnNmb3JtPSJ0cmFuc2xhdGUoMC41NjA5MzMpIj4mI3hhOwkJCQk8dGl0bGUgaWQ9InRpdGxlMTY2NDEwIj5TaGVldC4xMzgzPC90aXRsZT4mI3hhOwkJCQk8cGF0aCBpZD0icGF0aDE2NjQxMiIgaW5rc2NhcGU6Y29ubmVjdG9yLWN1cnZhdHVyZT0iMCIgc3R5bGU9ImZpbGw6IzAwOEJCODsiIGQ9Ik0wLDc4LjA0YzAuMzUsMi42MSwxLjEyLDUuMDYsMi4yNSw3LjI4ICAgICAgbDAuNjUsMS4xOWMwLjQxLDAuNjksMC44NSwxLjM2LDEuMzQsMi4wMWMyLjM0LDAuMTUsNC40OSwwLjIsNi40NiwwLjE2YzMuODgtMC4wOSw3LjA0LTAuNTQsOS40NC0xLjM4ICAgICAgYzAuMzYtMC4xMiwwLjc0LDAuMDcsMC44NywwLjQzYzAuMTIsMC4zNS0wLjA3LDAuNzQtMC40MiwwLjg3Yy0wLjMyLDAuMTEtMC42NiwwLjIxLTEsMC4zMWwwLDBjLTEuODksMC41NC00LjA3LDAuOTItNi42OCwxLjA4ICAgICAgQzEyLjgyLDkwLDEyLjY2LDkwLDEyLjU3LDkwLjAxYy0xLjAyLDAuMDUtMi4xMiwwLjA5LTMuMjYsMC4wOWMtMS4yNCwwLTIuNTEtMC4wMi0zLjg3LTAuMDljNC43NCw1LjMyLDEyLjE5LDguNTMsMjEuNDgsOC41MyAgICAgIGMxNi44MiwwLDMxLjQ2LTYuMzksMzkuOTYtMjAuNUwwLDc4LjA0eiIvPiYjeGE7CQkJPC9nPiYjeGE7CQkJPGcgaWQ9InNoYXBlMTM4NC0xMyIgdHJhbnNmb3JtPSJ0cmFuc2xhdGUoNC4zMzM1NiwtNS4xMTE5OSkiPiYjeGE7CQkJCTx0aXRsZSBpZD0idGl0bGUxNjY0MTUiPlNoZWV0LjEzODQ8L3RpdGxlPiYjeGE7CQkJCTxwYXRoIGlkPSJwYXRoMTY2NDE3IiBpbmtzY2FwZTpjb25uZWN0b3ItY3VydmF0dXJlPSIwIiBzdHlsZT0iZmlsbDojMDM5QkM2OyIgZD0iTTAsODMuMTVjMS4wMSw0LjU5LDMuNDIsOC4xOSw2LjkzLDEwLjY0ICAgICAgYzMuODgtMC4wOCw3LjA0LTAuNTQsOS40NC0xLjM3YzAuMzUtMC4xMywwLjc0LDAuMDYsMC44NywwLjQyYzAuMTIsMC4zNi0wLjA3LDAuNzQtMC40MywwLjg3Yy0wLjMyLDAuMTEtMC42NSwwLjIxLTAuOTksMC4zMSAgICAgIGwwLDBjLTEuODksMC41NC00LjEyLDAuOTItNi43MywxLjA5YzYuNjksMy40MywxNi4zNiwzLjM4LDI3LjQ3LTAuODljNi43My0yLjU5LDEzLjItNi40MywxOS4wMS0xMS4wN0wwLDgzLjE1eiIvPiYjeGE7CQkJPC9nPiYjeGE7CQk8L2c+JiN4YTsJCTxnIGlkPSJzaGFwZTEzODUtMTUiIHRyYW5zZm9ybT0idHJhbnNsYXRlKDE2Ljk1OSwtMzcuNTAzNikiPiYjeGE7CQkJPHRpdGxlIGlkPSJ0aXRsZTE2NjQyMSI+U2hlZXQuMTM4NTwvdGl0bGU+JiN4YTsJCQk8cGF0aCBpZD0icGF0aDE2NjQyMyIgaW5rc2NhcGU6Y29ubmVjdG9yLWN1cnZhdHVyZT0iMCIgc3R5bGU9ImZpbGw6IzM5NEQ1NDsiIGQ9Ik02LjIsOTguNTRjMS4xMywwLDIuMjEtMC4wMywzLjI0LTAuMDkgICAgIGMwLjA5LTAuMDEsMC4xNy0wLjAxLDAuMjYtMC4wMmMwLjAxLDAsMC4wMSwwLDAuMDEsMGMyLjYxLTAuMTYsNC44Ny0wLjUxLDYuNzUtMS4wNWwwLDBjMC4zNS0wLjA5LDAuNjgtMC4yLDEtMC4zMSAgICAgYzAuMzUtMC4xMiwwLjU0LTAuNTEsMC40Mi0wLjg3Yy0wLjEyLTAuMzUtMC41MS0wLjU0LTAuODctMC40MmMtMi40LDAuODMtNS41NiwxLjI5LTkuNDMsMS4zN2wwLDBjLTEuOTgsMC4wNS00LjEzLDAtNi40Ny0wLjE1ICAgICBsMCwwYy0wLjEyLTAuMDEtMC4yNC0wLjAyLTAuMzYtMC4wM2MtMC4zNy0wLjAyLTAuNywwLjI2LTAuNzIsMC42NGMtMC4wMywwLjM3LDAuMjUsMC43LDAuNjMsMC43MyAgICAgYzAuNDgsMC4wMywwLjk1LDAuMDYsMS40MSwwLjA4YzAuMDcsMCwwLjE0LDAuMDEsMC4yMiwwLjAxQzMuNjUsOTguNSw0Ljk2LDk4LjU0LDYuMiw5OC41NEw2LjIsOTguNTR6Ii8+JiN4YTsJCTwvZz4mI3hhOwkJPGcgaWQ9Imdyb3VwMTM4Ni0xNyIgdHJhbnNmb3JtPSJ0cmFuc2xhdGUoMjEuNDQyNiwtNTYuODI5NykiPiYjeGE7CQkJPHRpdGxlIGlkPSJ0aXRsZTE2NjQyNiI+Q29udGFpbmVyc184XzwvdGl0bGU+JiN4YTsJCQk8ZyBpZD0ic2hhcGUxMzg3LTE4Ij4mI3hhOwkJCQk8dGl0bGUgaWQ9InRpdGxlMTY2NDI4Ij5TaGVldC4xMzg3PC90aXRsZT4mI3hhOwkJCQk8cGF0aCBpZD0icGF0aDE2NjQzMCIgaW5rc2NhcGU6Y29ubmVjdG9yLWN1cnZhdHVyZT0iMCIgc3R5bGU9ImZpbGw6IzAwQUNEMzsiIGQ9Ik02LjQ0LDkxLjQ5aDAuNjF2Ni40SDYuNDRWOTEuNDl6IE01LjI4LDkxLjQ5ICAgICAgaDAuNjN2Ni40SDUuMjhWOTEuNDl6IE00LjExLDkxLjQ5aDAuNjN2Ni40SDQuMTFWOTEuNDl6IE0yLjk1LDkxLjQ5aDAuNjN2Ni40SDIuOTVMMi45NSw5MS40OXogTTEuNzgsOTEuNDloMC42M3Y2LjRIMS43OCAgICAgIEwxLjc4LDkxLjQ5eiBNMC42NCw5MS40OWgwLjYxdjYuNEgwLjY0TDAuNjQsOTEuNDl6IE0wLDkwLjg1aDcuNjl2Ny42OUgwVjkwLjg1eiIvPiYjeGE7CQkJPC9nPiYjeGE7CQkJPGcgaWQ9InNoYXBlMTM4OC0yMCIgdHJhbnNmb3JtPSJ0cmFuc2xhdGUoOC44NzE5LC04Ljg3MzE3KSI+JiN4YTsJCQkJPHRpdGxlIGlkPSJ0aXRsZTE2NjQzMyI+U2hlZXQuMTM4ODwvdGl0bGU+JiN4YTsJCQkJPHBhdGggaWQ9InBhdGgxNjY0MzUiIGlua3NjYXBlOmNvbm5lY3Rvci1jdXJ2YXR1cmU9IjAiIHN0eWxlPSJmaWxsOiMwMEFDRDM7IiBkPSJNNi40NCw5MS40OWgwLjYxdjYuNDFINi40NFY5MS40OXogICAgICAgTTUuMjgsOTEuNDloMC42M3Y2LjQxSDUuMjhWOTEuNDl6IE00LjExLDkxLjQ5aDAuNjN2Ni40MUg0LjExVjkxLjQ5eiBNMi45NSw5MS40OWgwLjYzdjYuNDFIMi45NUwyLjk1LDkxLjQ5eiBNMS43OCw5MS40OSAgICAgIGgwLjYzdjYuNDFIMS43OEwxLjc4LDkxLjQ5eiBNMC42NCw5MS40OWgwLjYxdjYuNDFIMC42NEwwLjY0LDkxLjQ5eiBNMCw5MC44NWg3LjY5djcuNjlIMFY5MC44NXoiLz4mI3hhOwkJCTwvZz4mI3hhOwkJCTxnIGlkPSJzaGFwZTEzODktMjIiIHRyYW5zZm9ybT0idHJhbnNsYXRlKDguODcxOSkiPiYjeGE7CQkJCTx0aXRsZSBpZD0idGl0bGUxNjY0MzgiPlNoZWV0LjEzODk8L3RpdGxlPiYjeGE7CQkJCTxwYXRoIGlkPSJwYXRoMTY2NDQwIiBpbmtzY2FwZTpjb25uZWN0b3ItY3VydmF0dXJlPSIwIiBzdHlsZT0iZmlsbDojMjBDMkVGOyIgZD0iTTYuNDQsOTEuNDloMC42MXY2LjRINi40NFY5MS40OXogTTUuMjgsOTEuNDkgICAgICBoMC42M3Y2LjRINS4yOFY5MS40OXogTTQuMTEsOTEuNDloMC42M3Y2LjRINC4xMVY5MS40OXogTTIuOTUsOTEuNDloMC42M3Y2LjRIMi45NUwyLjk1LDkxLjQ5eiBNMS43OCw5MS40OWgwLjYzdjYuNEgxLjc4ICAgICAgTDEuNzgsOTEuNDl6IE0wLjY0LDkxLjQ5aDAuNjF2Ni40SDAuNjRMMC42NCw5MS40OXogTTAsOTAuODVoNy42OXY3LjY5SDBWOTAuODV6Ii8+JiN4YTsJCQk8L2c+JiN4YTsJCQk8ZyBpZD0ic2hhcGUxMzkwLTI0IiB0cmFuc2Zvcm09InRyYW5zbGF0ZSgxNy43NDYzKSI+JiN4YTsJCQkJPHRpdGxlIGlkPSJ0aXRsZTE2NjQ0MyI+U2hlZXQuMTM5MDwvdGl0bGU+JiN4YTsJCQkJPHBhdGggaWQ9InBhdGgxNjY0NDUiIGlua3NjYXBlOmNvbm5lY3Rvci1jdXJ2YXR1cmU9IjAiIHN0eWxlPSJmaWxsOiMwMEFDRDM7IiBkPSJNNi40NCw5MS40OWgwLjYxdjYuNEg2LjQ0VjkxLjQ5eiBNNS4yOCw5MS40OSAgICAgIGgwLjYzdjYuNEg1LjI4VjkxLjQ5eiBNNC4xMSw5MS40OWgwLjYzdjYuNEg0LjExVjkxLjQ5eiBNMi45NSw5MS40OWgwLjYzdjYuNEgyLjk1TDIuOTUsOTEuNDl6IE0xLjc4LDkxLjQ5aDAuNjN2Ni40SDEuNzggICAgICBMMS43OCw5MS40OXogTTAuNjQsOTEuNDloMC42MXY2LjRIMC42NEwwLjY0LDkxLjQ5eiBNMCw5MC44NWg3LjY5djcuNjlIMFY5MC44NXoiLz4mI3hhOwkJCTwvZz4mI3hhOwkJCTxnIGlkPSJzaGFwZTEzOTEtMjYiIHRyYW5zZm9ybT0idHJhbnNsYXRlKDE3Ljc0NjMsLTguODczMTcpIj4mI3hhOwkJCQk8dGl0bGUgaWQ9InRpdGxlMTY2NDQ4Ij5TaGVldC4xMzkxPC90aXRsZT4mI3hhOwkJCQk8cGF0aCBpZD0icGF0aDE2NjQ1MCIgaW5rc2NhcGU6Y29ubmVjdG9yLWN1cnZhdHVyZT0iMCIgc3R5bGU9ImZpbGw6IzIwQzJFRjsiIGQ9Ik02LjQ0LDkxLjQ5aDAuNjF2Ni40MUg2LjQ0VjkxLjQ5eiAgICAgICBNNS4yOCw5MS40OWgwLjYzdjYuNDFINS4yOFY5MS40OXogTTQuMTEsOTEuNDloMC42M3Y2LjQxSDQuMTFWOTEuNDl6IE0yLjk1LDkxLjQ5aDAuNjN2Ni40MUgyLjk1TDIuOTUsOTEuNDl6IE0xLjc4LDkxLjQ5ICAgICAgaDAuNjN2Ni40MUgxLjc4TDEuNzgsOTEuNDl6IE0wLjY0LDkxLjQ5aDAuNjF2Ni40MUgwLjY0TDAuNjQsOTEuNDl6IE0wLDkwLjg1aDcuNjl2Ny42OUgwVjkwLjg1eiIvPiYjeGE7CQkJPC9nPiYjeGE7CQkJPGcgaWQ9InNoYXBlMTM5Mi0yOCIgdHJhbnNmb3JtPSJ0cmFuc2xhdGUoMjYuNjE4MikiPiYjeGE7CQkJCTx0aXRsZSBpZD0idGl0bGUxNjY0NTMiPlNoZWV0LjEzOTI8L3RpdGxlPiYjeGE7CQkJCTxwYXRoIGlkPSJwYXRoMTY2NDU1IiBpbmtzY2FwZTpjb25uZWN0b3ItY3VydmF0dXJlPSIwIiBzdHlsZT0iZmlsbDojMjBDMkVGOyIgZD0iTTYuNDQsOTEuNDloMC42MXY2LjRINi40NFY5MS40OXogTTUuMjgsOTEuNDkgICAgICBoMC42M3Y2LjRINS4yOFY5MS40OXogTTQuMTEsOTEuNDloMC42M3Y2LjRINC4xMVY5MS40OXogTTIuOTUsOTEuNDloMC42M3Y2LjRIMi45NUwyLjk1LDkxLjQ5eiBNMS43OCw5MS40OWgwLjYzdjYuNEgxLjc4ICAgICAgTDEuNzgsOTEuNDl6IE0wLjY0LDkxLjQ5aDAuNjF2Ni40SDAuNjRMMC42NCw5MS40OXogTTAsOTAuODVoNy42OXY3LjY5SDBWOTAuODV6Ii8+JiN4YTsJCQk8L2c+JiN4YTsJCQk8ZyBpZD0ic2hhcGUxMzkzLTMwIiB0cmFuc2Zvcm09InRyYW5zbGF0ZSgyNi42MTgyLC04Ljg3MzE3KSI+JiN4YTsJCQkJPHRpdGxlIGlkPSJ0aXRsZTE2NjQ1OCI+U2hlZXQuMTM5MzwvdGl0bGU+JiN4YTsJCQkJPHBhdGggaWQ9InBhdGgxNjY0NjAiIGlua3NjYXBlOmNvbm5lY3Rvci1jdXJ2YXR1cmU9IjAiIHN0eWxlPSJmaWxsOiMwMEFDRDM7IiBkPSJNNi40NCw5MS40OWgwLjYxdjYuNDFINi40NFY5MS40OXogICAgICAgTTUuMjgsOTEuNDloMC42M3Y2LjQxSDUuMjhWOTEuNDl6IE00LjExLDkxLjQ5aDAuNjN2Ni40MUg0LjExVjkxLjQ5eiBNMi45NSw5MS40OWgwLjYzdjYuNDFIMi45NUwyLjk1LDkxLjQ5eiBNMS43OCw5MS40OSAgICAgIGgwLjYzdjYuNDFIMS43OEwxLjc4LDkxLjQ5eiBNMC42NCw5MS40OWgwLjYxdjYuNDFIMC42NEwwLjY0LDkxLjQ5eiBNMCw5MC44NWg3LjY5djcuNjlIMFY5MC44NXoiLz4mI3hhOwkJCTwvZz4mI3hhOwkJCTxnIGlkPSJzaGFwZTEzOTQtMzIiIHRyYW5zZm9ybT0idHJhbnNsYXRlKDI2LjYxODIsLTE3Ljc0NjMpIj4mI3hhOwkJCQk8dGl0bGUgaWQ9InRpdGxlMTY2NDYzIj5TaGVldC4xMzk0PC90aXRsZT4mI3hhOwkJCQk8cGF0aCBpZD0icGF0aDE2NjQ2NSIgaW5rc2NhcGU6Y29ubmVjdG9yLWN1cnZhdHVyZT0iMCIgc3R5bGU9ImZpbGw6IzIwQzJFRjsiIGQ9Ik02LjQ0LDkxLjQ5aDAuNjF2Ni40MUg2LjQ0VjkxLjQ5eiAgICAgICBNNS4yOCw5MS40OWgwLjYzdjYuNDFINS4yOFY5MS40OXogTTQuMTEsOTEuNDloMC42M3Y2LjQxSDQuMTFWOTEuNDl6IE0yLjk1LDkxLjQ5aDAuNjN2Ni40MUgyLjk1TDIuOTUsOTEuNDl6IE0xLjc4LDkxLjQ5ICAgICAgaDAuNjN2Ni40MUgxLjc4TDEuNzgsOTEuNDl6IE0wLjY0LDkxLjQ5aDAuNjF2Ni40MUgwLjY0TDAuNjQsOTEuNDl6IE0wLDkwLjg1aDcuNjl2Ny42OUgwVjkwLjg1eiIvPiYjeGE7CQkJPC9nPiYjeGE7CQkJPGcgaWQ9InNoYXBlMTM5NS0zNCIgdHJhbnNmb3JtPSJ0cmFuc2xhdGUoMzUuNDkxNCkiPiYjeGE7CQkJCTx0aXRsZSBpZD0idGl0bGUxNjY0NjgiPlNoZWV0LjEzOTU8L3RpdGxlPiYjeGE7CQkJCTxwYXRoIGlkPSJwYXRoMTY2NDcwIiBpbmtzY2FwZTpjb25uZWN0b3ItY3VydmF0dXJlPSIwIiBzdHlsZT0iZmlsbDojMDBBQ0QzOyIgZD0iTTYuNDQsOTEuNDloMC42MXY2LjRINi40NFY5MS40OXogTTUuMjgsOTEuNDkgICAgICBoMC42M3Y2LjRINS4yOFY5MS40OXogTTQuMTEsOTEuNDloMC42M3Y2LjRINC4xMVY5MS40OXogTTIuOTUsOTEuNDloMC42M3Y2LjRIMi45NUwyLjk1LDkxLjQ5eiBNMS43OCw5MS40OWgwLjYzdjYuNEgxLjc4ICAgICAgTDEuNzgsOTEuNDl6IE0wLjY0LDkxLjQ5aDAuNjF2Ni40SDAuNjRMMC42NCw5MS40OXogTTAsOTAuODVoNy42OXY3LjY5SDBWOTAuODV6Ii8+JiN4YTsJCQk8L2c+JiN4YTsJCTwvZz4mI3hhOwkJPGcgaWQ9InNoYXBlMTM5Ni0zNiIgdHJhbnNmb3JtPSJ0cmFuc2xhdGUoMzUuNDAyNCwtNDAuMTIpIj4mI3hhOwkJCTx0aXRsZSBpZD0idGl0bGUxNjY0NzQiPlNoZWV0LjEzOTY8L3RpdGxlPiYjeGE7CQkJPHBhdGggaWQ9InBhdGgxNjY0NzYiIGlua3NjYXBlOmNvbm5lY3Rvci1jdXJ2YXR1cmU9IjAiIHN0eWxlPSJmaWxsOiNENEVERjE7IiBkPSJNMi4xMiw5NC4yOWMxLjE3LDAsMi4xMiwwLjk1LDIuMTIsMi4xMiAgICAgYzAsMS4xOC0wLjk1LDIuMTMtMi4xMiwyLjEzUzAsOTcuNTksMCw5Ni40MUMwLDk1LjI0LDAuOTUsOTQuMjksMi4xMiw5NC4yOXoiLz4mI3hhOwkJPC9nPiYjeGE7CQk8ZyBpZD0ic2hhcGUxMzk3LTM4IiB0cmFuc2Zvcm09InRyYW5zbGF0ZSgzNi4wMDQsLTQwLjcyMykiPiYjeGE7CQkJPHRpdGxlIGlkPSJ0aXRsZTE2NjQ3OSI+U2hlZXQuMTM5NzwvdGl0bGU+JiN4YTsJCQk8cGF0aCBpZD0icGF0aDE2NjQ4MSIgaW5rc2NhcGU6Y29ubmVjdG9yLWN1cnZhdHVyZT0iMCIgc3R5bGU9ImZpbGw6IzM5NEQ1NDsiIGQ9Ik0xLjUyLDk1LjVjMC4xOSwwLDAuMzgsMC4wNCwwLjU1LDAuMSAgICAgYy0wLjE5LDAuMTEtMC4zMSwwLjMxLTAuMzEsMC41NGMwLDAuMzQsMC4yOCwwLjYyLDAuNjIsMC42MmMwLjIzLDAsMC40NC0wLjEzLDAuNTQtMC4zM2MwLjA4LDAuMTgsMC4xMiwwLjM4LDAuMTIsMC41OSAgICAgYzAsMC44NC0wLjY4LDEuNTItMS41MiwxLjUyQzAuNjgsOTguNTQsMCw5Ny44NiwwLDk3LjAyUzAuNjgsOTUuNSwxLjUyLDk1LjV6Ii8+JiN4YTsJCTwvZz4mI3hhOwkJPGcgaWQ9InNoYXBlMTM5OC00MCIgdHJhbnNmb3JtPSJ0cmFuc2xhdGUoMCwtNDguMDcyMykiPiYjeGE7CQkJPHRpdGxlIGlkPSJ0aXRsZTE2NjQ4NCI+U2hlZXQuMTM5ODwvdGl0bGU+JiN4YTsJCQk8cGF0aCBpZD0icGF0aDE2NjQ4NiIgaW5rc2NhcGU6Y29ubmVjdG9yLWN1cnZhdHVyZT0iMCIgc3R5bGU9ImZpbGw6IzM5NEQ1NDsiIGQ9Ik0wLDk3Ljg1aDQ2LjQ3aDUuNzVoNDYuNDcgICAgIGMtMi4xNS0wLjU1LTYuOC0xLjI4LTYuMDMtNC4xYy0zLjkxLDQuNTItMTMuMzMsMy4xNy0xNS43MSwwLjk0Yy0yLjY1LDMuODUtMTguMDcsMi4zOS0xOS4xNC0wLjYxYy0zLjMyLDMuOS0xMy42MSwzLjktMTYuOTMsMCAgICAgYy0xLjA4LDIuOTktMTYuNDksNC40NS0xOS4xNCwwLjYxYy0yLjM4LDIuMjMtMTEuOCwzLjU4LTE1LjcxLTAuOTRDNi44LDk2LjU3LDIuMTUsOTcuMywwLDk3Ljg1eiIvPiYjeGE7CQk8L2c+JiN4YTsJCTxnIGlkPSJzaGFwZTEzOTktNDIiIHRyYW5zZm9ybT0idHJhbnNsYXRlKDE5LjAyODUsLTI5LjAyODYpIj4mI3hhOwkJCTx0aXRsZSBpZD0idGl0bGUxNjY0ODkiPlNoZWV0LjEzOTk8L3RpdGxlPiYjeGE7CQkJPHBhdGggaWQ9InBhdGgxNjY0OTEiIGlua3NjYXBlOmNvbm5lY3Rvci1jdXJ2YXR1cmU9IjAiIHN0eWxlPSJmaWxsOiNCRkRCRTA7IiBkPSJNMjQuMTQsOTguNDlDMTguODgsOTYsMTYsOTIuNjEsMTQuMzksODguOTEgICAgIGMtMS45NSwwLjU1LTQuMjksMC45MS03LjAyLDEuMDZjLTEuMDMsMC4wNi0yLjExLDAuMDktMy4yNCwwLjA5Yy0xLjMxLDAtMi42OS0wLjA0LTQuMTMtMC4xMmM0LjgyLDQuODIsMTAuNzUsOC41MywyMS43Miw4LjU5ICAgICBDMjIuNTMsOTguNTQsMjMuMzQsOTguNTIsMjQuMTQsOTguNDl6Ii8+JiN4YTsJCTwvZz4mI3hhOwkJPGcgaWQ9InNoYXBlMTQwMC00NCIgdHJhbnNmb3JtPSJ0cmFuc2xhdGUoMjYuMzk4MiwtMzUuMjQzNCkiPiYjeGE7CQkJPHRpdGxlIGlkPSJ0aXRsZTE2NjQ5NCI+U2hlZXQuMTQwMDwvdGl0bGU+JiN4YTsJCQk8cGF0aCBpZD0icGF0aDE2NjQ5NiIgaW5rc2NhcGU6Y29ubmVjdG9yLWN1cnZhdHVyZT0iMCIgc3R5bGU9ImZpbGw6I0Q0RURGMTsiIGQ9Ik04Ljk3LDk4LjU0Yy0wLjcyLTAuOTktMS40My0yLjIzLTEuOTQtMy40MiAgICAgYy0xLjk2LDAuNTYtNC4zLDAuOTItNy4wMywxLjA3QzEuODcsOTcuMjEsNC41NSw5OC4xNSw4Ljk3LDk4LjU0eiIvPiYjeGE7CQk8L2c+JiN4YTsJPC9nPiYjeGE7PC9nPiYjeGE7PC9zdmc+;horizontal=0;" vertex="1" parent="1">
          <mxGeometry x="796.79" y="1087.5" width="47.71" height="40" as="geometry" />
        </mxCell>
        <mxCell id="KOKp6EKpK6rq5gHab_TY-57" value="Automated&#xa;Testing" style="shape=image;verticalLabelPosition=bottom;labelBackgroundColor=#ffffff;verticalAlign=top;aspect=fixed;imageAspect=0;image=data:image/svg+xml,PHN2ZyB4bWxuczpkYz0iaHR0cDovL3B1cmwub3JnL2RjL2VsZW1lbnRzLzEuMS8iIHhtbG5zOmNjPSJodHRwOi8vY3JlYXRpdmVjb21tb25zLm9yZy9ucyMiIHhtbG5zOnJkZj0iaHR0cDovL3d3dy53My5vcmcvMTk5OS8wMi8yMi1yZGYtc3ludGF4LW5zIyIgeG1sbnM6c3ZnPSJodHRwOi8vd3d3LnczLm9yZy8yMDAwL3N2ZyIgeG1sbnM9Imh0dHA6Ly93d3cudzMub3JnLzIwMDAvc3ZnIiB4bWxuczp4bGluaz0iaHR0cDovL3d3dy53My5vcmcvMTk5OS94bGluayIgeG1sbnM6c29kaXBvZGk9Imh0dHA6Ly9zb2RpcG9kaS5zb3VyY2Vmb3JnZS5uZXQvRFREL3NvZGlwb2RpLTAuZHRkIiB4bWxuczppbmtzY2FwZT0iaHR0cDovL3d3dy5pbmtzY2FwZS5vcmcvbmFtZXNwYWNlcy9pbmtzY2FwZSIgdmVyc2lvbj0iMS4xIiBpZD0iTGF5ZXJfMSIgeD0iMHB4IiB5PSIwcHgiIHZpZXdCb3g9IjAgMCAxMTkuMTEwMDEgNjYuMDg5OTk2IiB4bWw6c3BhY2U9InByZXNlcnZlIiBzb2RpcG9kaTpkb2NuYW1lPSJhdXRvbWF0ZWRfdGVzdGluZ18xLnN2ZyIgd2lkdGg9IjExOS4xMTAwMSIgaGVpZ2h0PSI2Ni4wODk5OTYiIGlua3NjYXBlOnZlcnNpb249IjAuOTIuMyAoMjQwNTU0NiwgMjAxOC0wMy0xMSkiPjxtZXRhZGF0YSBpZD0ibWV0YWRhdGEzODU0MiI+PHJkZjpSREY+PGNjOldvcmsgcmRmOmFib3V0PSIiPjxkYzpmb3JtYXQ+aW1hZ2Uvc3ZnK3htbDwvZGM6Zm9ybWF0PjxkYzp0eXBlIHJkZjpyZXNvdXJjZT0iaHR0cDovL3B1cmwub3JnL2RjL2RjbWl0eXBlL1N0aWxsSW1hZ2UiLz48ZGM6dGl0bGUvPjwvY2M6V29yaz48L3JkZjpSREY+PC9tZXRhZGF0YT48ZGVmcyBpZD0iZGVmczM4NTQwIi8+PHNvZGlwb2RpOm5hbWVkdmlldyBwYWdlY29sb3I9IiNmZmZmZmYiIGJvcmRlcmNvbG9yPSIjNjY2NjY2IiBib3JkZXJvcGFjaXR5PSIxIiBvYmplY3R0b2xlcmFuY2U9IjEwIiBncmlkdG9sZXJhbmNlPSIxMCIgZ3VpZGV0b2xlcmFuY2U9IjEwIiBpbmtzY2FwZTpwYWdlb3BhY2l0eT0iMCIgaW5rc2NhcGU6cGFnZXNoYWRvdz0iMiIgaW5rc2NhcGU6d2luZG93LXdpZHRoPSIxOTIwIiBpbmtzY2FwZTp3aW5kb3ctaGVpZ2h0PSIxMDE3IiBpZD0ibmFtZWR2aWV3Mzg1MzgiIHNob3dncmlkPSJmYWxzZSIgZml0LW1hcmdpbi10b3A9IjAiIGZpdC1tYXJnaW4tbGVmdD0iMCIgZml0LW1hcmdpbi1yaWdodD0iMCIgZml0LW1hcmdpbi1ib3R0b209IjAiIGlua3NjYXBlOnpvb209IjUuODI4Mjc0MSIgaW5rc2NhcGU6Y3g9IjY4Ljc0MDQ4MyIgaW5rc2NhcGU6Y3k9IjEyLjk1MjU1NCIgaW5rc2NhcGU6d2luZG93LXg9Ii04IiBpbmtzY2FwZTp3aW5kb3cteT0iLTgiIGlua3NjYXBlOndpbmRvdy1tYXhpbWl6ZWQ9IjEiIGlua3NjYXBlOmN1cnJlbnQtbGF5ZXI9IkxheWVyXzEiLz4mI3hhOyYjeGE7PGcgaWQ9ImczODUzNSIgdHJhbnNmb3JtPSJ0cmFuc2xhdGUoLTI5OC40ODk5OSwtNzkuMzcwMDAzKSI+JiN4YTsJPGRlZnMgaWQ9ImRlZnMzODQzNCI+JiN4YTsJCTxyZWN0IGlkPSJTVkdJRF8zXyIgeD0iMjk4LjQ4OTk5IiB5PSI3OS4zNzAwMDMiIHdpZHRoPSIxMTkuNDQiIGhlaWdodD0iNjYuMTI5OTk3Ii8+JiN4YTsJPC9kZWZzPiYjeGE7CTxjbGlwUGF0aCBpZD0iU1ZHSURfNF8iPiYjeGE7CQk8dXNlIHhsaW5rOmhyZWY9IiNTVkdJRF8zXyIgc3R5bGU9Im92ZXJmbG93OnZpc2libGUiIGlkPSJ1c2UzODQzNiIgeD0iMCIgeT0iMCIgd2lkdGg9IjEwMCUiIGhlaWdodD0iMTAwJSIvPiYjeGE7CTwvY2xpcFBhdGg+JiN4YTsJPGcgY2xpcC1wYXRoPSJ1cmwoI1NWR0lEXzRfKSIgaWQ9ImczODUzMyI+JiN4YTsJCTxkZWZzIGlkPSJkZWZzMzg0NDAiPiYjeGE7CQkJPHJlY3QgaWQ9IlNWR0lEXzVfIiB4PSIyOTguNDg5OTkiIHk9Ijc5LjM3MDAwMyIgd2lkdGg9IjExOS40MyIgaGVpZ2h0PSI2Ni4xMjk5OTciLz4mI3hhOwkJPC9kZWZzPiYjeGE7CQk8Y2xpcFBhdGggaWQ9IlNWR0lEXzZfIj4mI3hhOwkJCTx1c2UgeGxpbms6aHJlZj0iI1NWR0lEXzVfIiBzdHlsZT0ib3ZlcmZsb3c6dmlzaWJsZSIgaWQ9InVzZTM4NDQyIiB4PSIwIiB5PSIwIiB3aWR0aD0iMTAwJSIgaGVpZ2h0PSIxMDAlIi8+JiN4YTsJCTwvY2xpcFBhdGg+JiN4YTsJCTxwYXRoIHN0eWxlPSJmaWxsOiNlNGYyZmIiIGQ9Im0gMzA2LjY0LDE0MC42NCBjIC0wLjQ0LDAuMjEgLTAuOTQsMC4zMSAtMS40MiwwLjMxIC0xLjMyLDAgLTIuNTEsLTAuNzcgLTMuMDcsLTEuOTYgLTAuNzUsLTEuNzEgLTAuMDIsLTMuNzQgMS42NSwtNC41NSAwLjQ0LC0wLjIzIDAuOTQsLTAuMzMgMS40MiwtMC4zMSAxLjYxLDAgMi45OSwxLjEzIDMuMzIsMi42OSAwLjMzLDEuNTYgLTAuNDYsMy4xNSAtMS45LDMuODIgeiBtIDQuNzgsLTIuMjggLTAuNzEsLTAuMjMgYyAwLjA2LC0wLjUyIDAuMDIsLTEuMDcgLTAuMDgsLTEuNTcgbCAwLjcxLC0wLjMxIGMgMC40NiwtMC4yMSAwLjY1LC0wLjc1IDAuNCwtMS4xOSBsIC0wLjQsLTAuODYgYyAtMC4xOSwtMC40NiAtMC43NSwtMC42NSAtMS4xNywtMC40IGwgLTAuNzEsMC4zMSBjIC0wLjMzLC0wLjQyIC0wLjczLC0wLjc5IC0xLjE3LC0xLjA5IGwgMC4yMywtMC43MSBjIDAuMTUsLTAuNDQgLTAuMDQsLTAuOTIgLTAuNDgsLTEuMTEgbCAtMC45NCwtMC4zMyBjIC0wLjQyLC0wLjE1IC0wLjkyLDAuMDYgLTEuMDksMC40OCBsIC0wLjI1LDAuNzEgYyAtMC41MiwtMC4wNiAtMS4wNCwtMC4wMiAtMS41NywwLjA4IGwgLTAuMzEsLTAuNzEgYyAtMC4xOSwtMC40NiAtMC43NSwtMC42NSAtMS4xNywtMC40IGwgLTAuODgsMC40IGMgLTAuNDYsMC4yMSAtMC42MywwLjc1IC0wLjQsMS4xOSBsIDAuMzEsMC42OSBjIC0wLjQyLDAuMzMgLTAuNzksMC43MyAtMS4wOSwxLjE5IGwgLTAuNzEsLTAuMjMgYyAtMC40MiwtMC4xNSAtMC45LDAuMDYgLTEuMDksMC40NiBsIC0wLjMxLDAuOTYgYyAtMC4wOCwwLjE5IC0wLjA4LDAuNDIgMCwwLjYzIDAuMDYsMC4yMSAwLjI1LDAuNCAwLjQ2LDAuNDYgbCAwLjcxLDAuMjMgYyAtMC4wNCwwLjUyIC0wLjAyLDEuMDcgMC4wOCwxLjU3IGwgLTAuNzEsMC4zMSBjIC0wLjQ2LDAuMjEgLTAuNjUsMC43NSAtMC40LDEuMTkgbCAwLjQsMC44NiBjIDAuMjMsMC40NCAwLjc1LDAuNjEgMS4xNywwLjQgbCAwLjcxLC0wLjMxIGMgMC4zMywwLjQyIDAuNzMsMC43NyAxLjE3LDEuMDkgbCAtMC4yMywwLjcxIGMgLTAuMDgsMC4xOSAtMC4wOCwwLjQyIDAsMC42MyAwLjA2LDAuMjMgMC4yNSwwLjQgMC40OCwwLjQ2IGwgMC45NCwwLjMxIGMgMC4xOSwwLjA4IDAuNDIsMC4wOCAwLjYzLDAgMC4yMywtMC4wNiAwLjQsLTAuMjMgMC40NiwtMC40NiBsIDAuMjUsLTAuNzEgYyAwLjUyLDAuMDQgMS4wNCwwLjAyIDEuNTcsLTAuMDggbCAwLjMxLDAuNzEgYyAwLjIxLDAuNDQgMC43MywwLjYxIDEuMTcsMC40IGwgMC44NiwtMC40IGMgMC40NiwtMC4xOSAwLjY1LC0wLjc1IDAuNCwtMS4xNyBsIC0wLjMxLC0wLjcxIGMgMC40MiwtMC4zMyAwLjc5LC0wLjczIDEuMTEsLTEuMTcgbCAwLjcxLDAuMjMgYyAwLjE5LDAuMDggMC40MiwwLjA4IDAuNjMsMCAwLjIzLC0wLjA4IDAuNCwtMC4yNSAwLjQ2LC0wLjQ4IGwgMC4zMSwtMC45NCBjIDAuMTMsLTAuNDIgLTAuMDYsLTAuODggLTAuNDYsLTEuMDkgeiIgY2xpcC1wYXRoPSJ1cmwoI1NWR0lEXzZfKSIgaWQ9InBhdGgzODQ0NSIgaW5rc2NhcGU6Y29ubmVjdG9yLWN1cnZhdHVyZT0iMCIvPiYjeGE7CQk8cGF0aCBzdHlsZT0iZmlsbDojZTRmMmZiIiBkPSJtIDMxNy4zMSwxNDIuMTIgYyAtMC4yNSwwLjA4IC0wLjUyLDAuMTUgLTAuNzksMC4xNSAtMC43MywtMC4wMiAtMS4zOCwtMC40NCAtMS43MSwtMS4wOSAtMC40NiwtMC45NiAtMC4wNCwtMi4wOSAwLjk0LC0yLjUzIDAuMjUsLTAuMDggMC41MiwtMC4xMyAwLjc3LC0wLjE1IDAuNzMsMC4wMiAxLjQsMC40NCAxLjczLDEuMTEgMC40LDAuOTQgLTAuMDIsMi4wNSAtMC45NCwyLjUxIHogbSAyLjU5LC0xLjI1IC0wLjQsLTAuMTUgdiAtMC44OCBsIDAuNCwtMC4xNSBjIDAuMjMsLTAuMTMgMC4zMywtMC40IDAuMjMsLTAuNjMgbCAtMC4yMywtMC40OCBjIC0wLjEsLTAuMjMgLTAuNCwtMC4zMyAtMC42MywtMC4yMyBsIC0wLjQsMC4xNyBjIC0wLjE3LC0wLjI1IC0wLjM4LC0wLjQ4IC0wLjYzLC0wLjY1IGwgMC4xNywtMC4zOCBjIDAuMSwtMC4yNyAtMC4wNCwtMC41NiAtMC4zMSwtMC42MyBsIC0wLjQ4LC0wLjE3IGMgLTAuMjUsLTAuMDggLTAuNTIsMC4wNiAtMC42MywwLjMxIGwgLTAuMTcsMC40IGggLTAuODYgbCAtMC4xNSwtMC40IGMgLTAuMTMsLTAuMjMgLTAuNCwtMC4zMyAtMC42NSwtMC4yMyBMIDMxNC43LDEzNyBjIC0wLjIzLDAuMTMgLTAuMzMsMC40IC0wLjIzLDAuNjMgbCAwLjE1LDAuNCBjIC0wLjI1LDAuMTcgLTAuNDYsMC4zOCAtMC42MywwLjYzIGwgLTAuNCwtMC4xNSBjIC0wLjI1LC0wLjA4IC0wLjUyLDAuMDQgLTAuNjMsMC4zMSBsIC0wLjE1LDAuNDYgYyAtMC4wOCwwLjE3IDAsMC4yMyAwLDAuNCAwLjA2LDAuMDggMC4xNSwwLjIzIDAuMjMsMC4yMyBsIDAuNCwwLjE3IHYgMC44NiBsIC0wLjQsMC4xNSBjIC0wLjIzLDAuMTMgLTAuMzMsMC40IC0wLjIzLDAuNjUgbCAwLjIzLDAuNDYgYyAwLjEzLDAuMjMgMC40LDAuMzMgMC42MywwLjIzIGwgMC40LC0wLjE1IGMgMC4xNywwLjI1IDAuMzgsMC40NiAwLjYzLDAuNjMgbCAtMC4xNywwLjQgYyAtMC4wNiwwLjEgLTAuMDYsMC4yNyAwLDAuMzggMC4wOCwwLjA4IDAuMTcsMC4yNSAwLjI1LDAuMjUgbCAwLjQ2LDAuMTUgYyAwLjE3LDAuMDggMC4yMywwIDAuNCwwIDAuMTMsMCAwLjIzLC0wLjEgMC4yMywtMC4yMyBsIDAuMTcsLTAuNCBoIDAuODYgbCAwLjE3LDAuNCBjIDAuMSwwLjIzIDAuMzgsMC4zMyAwLjYzLDAuMjMgbCAwLjQ2LC0wLjIzIGMgMC4yMywtMC4xMyAwLjMzLC0wLjQgMC4yMywtMC42MyBsIC0wLjE1LC0wLjQgYyAwLjI1LC0wLjE3IDAuNDYsLTAuMzggMC42MywtMC42MyBsIDAuNCwwLjE1IGMgMC4xNSwwLjA4IDAuMjMsMCAwLjQsMCAwLjA2LC0wLjA2IDAuMjMsLTAuMTUgMC4yMywtMC4yMyBsIDAuMTUsLTAuNDYgYyAwLjI1LC0wLjQgMC4xNywtMC43MSAtMC4xNSwtMC43OSB6IiBjbGlwLXBhdGg9InVybCgjU1ZHSURfNl8pIiBpZD0icGF0aDM4NDQ3IiBpbmtzY2FwZTpjb25uZWN0b3ItY3VydmF0dXJlPSIwIi8+JiN4YTsJCTxwYXRoIHN0eWxlPSJmaWxsOiNlNGYyZmIiIGQ9Im0gMzIxLjAxLDEyOS40OCBjIC0wLjc3LDAuMzMgLTEuNjEsMC41MiAtMi40NCwwLjU2IC0yLjIxLC0wLjA0IC00LjIyLC0xLjMyIC01LjE4LC0zLjMgLTEuMzQsLTIuOSAtMC4wNiwtNi4zMyAyLjgyLC03LjYyIDAuNzcsLTAuMzYgMS42MSwtMC41MiAyLjQ0LC0wLjU2IDIuMjEsMC4wNCA0LjIyLDEuMzIgNS4xOCwzLjMgMS4zMiwyLjg4IDAuMDYsNi4zMSAtMi44Miw3LjYyIHogbSA4LC0zLjg0IC0xLjE3LC0wLjQ4IGMgMC4wOCwtMC44OCAwLjA2LC0xLjc4IC0wLjA4LC0yLjY1IGwgMS4xNywtMC41NiBjIDAuNzMsLTAuMzYgMS4wNCwtMS4yMyAwLjcxLC0xLjk2IGwgLTAuNjksLTEuNDggYyAtMC4zMywtMC43MSAtMS4xNywtMS4wMiAtMS44OCwtMC43MSBsIC0xLjE5LDAuNTQgYyAtMC41NCwtMC42OSAtMS4yMSwtMS4zMiAtMS45NiwtMS44IGwgMC40OCwtMS4xOSBjIDAuMzEsLTAuNzUgLTAuMDgsLTEuNjEgLTAuODgsLTEuODggbCAtMS40OCwtMC41NCBjIC0wLjc1LC0wLjIzIC0xLjU1LDAuMTUgLTEuODgsMC44NiBsIC0wLjQ4LDEuMTkgYyAtMC44OCwtMC4xIC0xLjc4LC0wLjA4IC0yLjY3LDAuMDYgbCAtMC41NCwtMS4xNyBjIC0wLjM2LC0wLjczIC0xLjIzLC0xLjA0IC0xLjk2LC0wLjcxIGwgLTEuNDgsMC43MSBjIC0wLjczLDAuMzYgLTEuMDQsMS4yMyAtMC43MSwxLjk2IGwgMC41NCwxLjE3IGMgLTAuNjksMC41NiAtMS4zMiwxLjIzIC0xLjgsMS45NiBsIC0xLjE5LC0wLjQ2IGMgLTAuNzUsLTAuMjMgLTEuNTUsMC4xNSAtMS44OCwwLjg2IGwgLTAuNTQsMS41IGMgLTAuMTksMC4zMyAtMC4xNSwwLjc3IDAuMDYsMS4wOSAwLjE5LDAuMzMgMC40NiwwLjYxIDAuNzksMC43OSBsIDEuMTcsMC40NiBjIC0wLjA4LDAuOSAtMC4wNiwxLjggMC4wOCwyLjY3IGwgLTEuMTcsMC41NCBjIC0wLjcxLDAuMzMgLTEuMDIsMS4xNyAtMC43MSwxLjkgbCAwLjcxLDEuNDggYyAwLjMzLDAuNzEgMS4xNywxLjAyIDEuODgsMC43MSBsIDEuMTcsLTAuNTQgYyAwLjU2LDAuNjkgMS4yMywxLjMgMS45NiwxLjggbCAtMC40NiwxLjE3IGMgLTAuMTcsMC4zNiAtMC4xNSwwLjc3IDAuMDgsMS4xMSAwLjE3LDAuMzMgMC40NCwwLjYxIDAuNzcsMC43OSBsIDEuNDgsMC41NCBjIDAuMzYsMC4xNyAwLjc5LDAuMTUgMS4xMSwtMC4wOCAwLjMzLC0wLjE3IDAuNjEsLTAuNDQgMC43OSwtMC43NyBsIDAuNDYsLTEuMTkgYyAwLjksMC4xIDEuOCwwLjA2IDIuNjcsLTAuMDYgbCAwLjU0LDEuMTcgYyAwLjM2LDAuNzMgMS4yMywxLjA0IDEuOTYsMC43MSBsIDEuNSwtMC43MSBjIDAuNzEsLTAuMzYgMS4wMiwtMS4yMyAwLjcxLC0xLjk2IGwgLTAuNTYsLTEuMTcgYyAwLjcxLC0wLjU2IDEuMzIsLTEuMjMgMS44MiwtMS45NiBsIDEuMTcsMC40NiBjIDAuMzYsMC4xNyAwLjc3LDAuMTUgMS4xMSwtMC4wOCAwLjMzLC0wLjE3IDAuNjEsLTAuNDQgMC43NywtMC43NyBsIDAuNTYsLTEuNSBjIDAuMjUsLTAuNjUgLTAuMTUsLTEuNTEgLTAuODYsLTEuODIgeiIgY2xpcC1wYXRoPSJ1cmwoI1NWR0lEXzZfKSIgaWQ9InBhdGgzODQ0OSIgaW5rc2NhcGU6Y29ubmVjdG9yLWN1cnZhdHVyZT0iMCIvPiYjeGE7CQk8cGF0aCBzdHlsZT0iZmlsbDojNDRiM2U2IiBkPSJtIDM1NS4wNCwxMDAuODkgYyAtMC45OCwwIC0xLjQ2LC0xLjE3IC0wLjc5LC0xLjg2IDAuNjksLTAuNjkgMS44NiwtMC4yMSAxLjg2LDAuNzcgLTAuMDEsMC41OCAtMC40OSwxLjA5IC0xLjA3LDEuMDkgeiBtIDMuMjQsLTEuNzQgaCAtMC41MiBjIC0wLjEzLC0wLjAyIC0wLjI1LC0wLjEgLTAuMjksLTAuMjMgbCAtMC4wOCwtMC4yNSBjIC0wLjA2LC0wLjEzIC0wLjA0LC0wLjI1IDAuMDQsLTAuMzYgbCAwLjM4LC0wLjQgYyAwLjEsLTAuMDggMC4xLC0wLjIxIDAsLTAuMjkgbCAtMC41NiwtMC41NiBjIC0wLjA2LC0wLjA4IC0wLjIxLC0wLjA4IC0wLjI5LDAgbCAtMC40LDAuNCBjIC0wLjA4LDAuMDggLTAuMjMsMC4xIC0wLjMzLDAuMDQgbCAtMC4yNywtMC4wOCBjIC0wLjEzLC0wLjA2IC0wLjIxLC0wLjE3IC0wLjIxLC0wLjMxIHYgLTAuNTIgYyAwLC0wLjEzIC0wLjEsLTAuMjMgLTAuMjMsLTAuMjEgaCAtMC44MSBjIC0wLjEzLC0wLjAyIC0wLjIzLDAuMDggLTAuMjEsMC4yMSB2IDAuNTIgYyAwLDAuMTUgLTAuMSwwLjI1IC0wLjIzLDAuMzEgbCAtMC4yNSwwLjA4IGMgLTAuMTMsMC4wNCAtMC4yNSwwLjAyIC0wLjM2LC0wLjA0IGwgLTAuNCwtMC40IGMgLTAuMDYsLTAuMDggLTAuMjEsLTAuMDggLTAuMjksMCBsIC0wLjU2LDAuNTYgYyAtMC4wOCwwLjA4IC0wLjA4LDAuMjEgMCwwLjI5IGwgMC40LDAuNCBjIDAuMDgsMC4wOCAwLjEsMC4yMyAwLjA0LDAuMzYgbCAtMC4wOCwwLjI1IGMgLTAuMDYsMC4xMyAtMC4xNywwLjIxIC0wLjMxLDAuMjMgaCAtMC41MiBjIC0wLjEzLC0wLjAyIC0wLjIzLDAuMDggLTAuMjEsMC4yMSB2IDAuODEgYyAtMC4wMiwwLjEzIDAuMDgsMC4yMyAwLjIxLDAuMjMgaCAwLjUyIGMgMC4xNSwwIDAuMjUsMC4wOCAwLjMxLDAuMjEgbCAwLjA4LDAuMjcgYyAwLjA0LDAuMSAwLjAyLDAuMjUgLTAuMDQsMC4zMyBsIC0wLjQsMC40IGMgLTAuMDgsMC4wOCAtMC4wOCwwLjIxIDAsMC4yOSBsIDAuNTYsMC41NiBjIDAuMDgsMC4xIDAuMjMsMC4xIDAuMjksMCBsIDAuNCwtMC4zOCBjIDAuMDgsLTAuMSAwLjIzLC0wLjEzIDAuMzYsLTAuMDQgbCAwLjI1LDAuMDggYyAwLjEzLDAuMDQgMC4yMywwLjE3IDAuMjMsMC4yOSB2IDAuNTIgYyAtMC4wMiwwLjEzIDAuMDgsMC4yMyAwLjIxLDAuMjMgaCAwLjgxIGMgMC4xMywwIDAuMjMsLTAuMSAwLjIzLC0wLjIzIHYgLTAuNTIgYyAwLC0wLjEzIDAuMDgsLTAuMjUgMC4yMSwtMC4yOSBsIDAuMjcsLTAuMDggYyAwLjEsLTAuMDYgMC4yNSwtMC4wNCAwLjMzLDAuMDQgbCAwLjQsMC4zOCBjIDAuMDgsMC4xIDAuMjMsMC4xIDAuMjksMCBsIDAuNTYsLTAuNTYgYyAwLjEsLTAuMDggMC4xLC0wLjIxIDAsLTAuMjkgbCAtMC40LC0wLjQgYyAtMC4wOCwtMC4wOCAtMC4xLC0wLjIzIC0wLjA0LC0wLjMzIGwgMC4wOCwtMC4yNyBjIDAuMDYsLTAuMTMgMC4xNywtMC4yMSAwLjMxLC0wLjIxIGggMC41MiBjIDAuMTMsMCAwLjIzLC0wLjEgMC4yMSwtMC4yMyB2IC0wLjgxIGMgMCwtMC4xMiAtMC4wOSwtMC4yMSAtMC4yMSwtMC4yMSB6IiBjbGlwLXBhdGg9InVybCgjU1ZHSURfNl8pIiBpZD0icGF0aDM4NDUxIiBpbmtzY2FwZTpjb25uZWN0b3ItY3VydmF0dXJlPSIwIi8+JiN4YTsJCTxwYXRoIHN0eWxlPSJmaWxsOiNiMGJlYzUiIGQ9Im0gMzU1LjA4LDEzMy40MSBjIC0wLjg0LDMuNDMgLTEuNjksNi44NSAtMi41MywxMC4yOCBoIDIzLjUgYyAtMC44MSwtMy40MyAtMS42OSwtNi44NSAtMi41MSwtMTAuMjggeiIgY2xpcC1wYXRoPSJ1cmwoI1NWR0lEXzZfKSIgaWQ9InBhdGgzODQ1MyIgaW5rc2NhcGU6Y29ubmVjdG9yLWN1cnZhdHVyZT0iMCIvPiYjeGE7CQk8cGF0aCBzdHlsZT0iZmlsbDojZThlOGU4IiBkPSJtIDM3Ny41LDE0My41IGggLTI2LjQgYyAtMC42NSwwIC0xLjIxLDAuNjUgLTEuMjEsMS40NCB2IDAuNTIgaCAyOC44MyB2IC0wLjUyIGMgLTAuMDEsLTAuODQgLTAuNTgsLTEuNDQgLTEuMjIsLTEuNDQgeiIgY2xpcC1wYXRoPSJ1cmwoI1NWR0lEXzZfKSIgaWQ9InBhdGgzODQ1NSIgaW5rc2NhcGU6Y29ubmVjdG9yLWN1cnZhdHVyZT0iMCIvPiYjeGE7CQk8cGF0aCBzdHlsZT0iZmlsbDojZThlOGU4IiBkPSJtIDMyNC41OCwxMjkuMzYgdiA1LjY4IGMgMCwxLjExIDAuOSwyLjAxIDIuMDEsMi4wMSBIIDQwMiBjIDEuMTEsMCAxLjk4LC0wLjkgMS45OCwtMi4wMSB2IC01LjY4IHoiIGNsaXAtcGF0aD0idXJsKCNTVkdJRF82XykiIGlkPSJwYXRoMzg0NTciIGlua3NjYXBlOmNvbm5lY3Rvci1jdXJ2YXR1cmU9IjAiLz4mI3hhOwkJPHBhdGggc3R5bGU9ImZpbGw6IzU0NmU3YSIgZD0iTSA0MDMuOTgsMTI5LjM2IFYgODEuMzggYyAwLC0xLjExIC0wLjg4LC0yLjAxIC0xLjk4LC0yLjAxIGggLTc1LjQxIGMgLTEuMTEsMCAtMi4wMSwwLjkgLTIuMDEsMi4wMSB2IDQ3Ljk4IHoiIGNsaXAtcGF0aD0idXJsKCNTVkdJRF82XykiIGlkPSJwYXRoMzg0NTkiIGlua3NjYXBlOmNvbm5lY3Rvci1jdXJ2YXR1cmU9IjAiLz4mI3hhOwkJPHJlY3QgeD0iMzI3Ljg0IiB5PSI4Mi40ODAwMDMiIHN0eWxlPSJmaWxsOiNiZGRkZjQiIHdpZHRoPSI3Mi44NjAwMDEiIGhlaWdodD0iNDMuNjM5OTk5IiBjbGlwLXBhdGg9InVybCgjU1ZHSURfNl8pIiBpZD0icmVjdDM4NDYxIi8+JiN4YTsJCTxyZWN0IHg9IjMyNy44NCIgeT0iODIuNDgwMDAzIiBzdHlsZT0iZmlsbDojOTVjOGVjIiB3aWR0aD0iNzIuODYwMDAxIiBoZWlnaHQ9IjcuMzY5OTk5OSIgY2xpcC1wYXRoPSJ1cmwoI1NWR0lEXzZfKSIgaWQ9InJlY3QzODQ2MyIvPiYjeGE7CQk8cmVjdCB4PSIzMjcuODQiIHk9IjEyMy44MiIgc3R5bGU9ImZpbGw6Izk1YzhlYyIgd2lkdGg9IjcyLjg2MDAwMSIgaGVpZ2h0PSIyLjI2IiBjbGlwLXBhdGg9InVybCgjU1ZHSURfNl8pIiBpZD0icmVjdDM4NDY1Ii8+JiN4YTsJCTxwYXRoIHN0eWxlPSJmaWxsOiNmZmZmZmYiIGQ9Im0gMzM0LjI1LDg3LjgzIDEuNjksLTEuNjkgLTEuNjksLTEuNjkgMC41MiwtMC41MiAyLjE3LDIuMTcgLTIuMTcsMi4xNSB6IG0gLTEuOTIsMCAtMS42OSwtMS42OSAxLjY5LC0xLjY5IC0wLjUyLC0wLjUyIC0yLjE1LDIuMTcgMi4xNSwyLjE1IHoiIGNsaXAtcGF0aD0idXJsKCNTVkdJRF82XykiIGlkPSJwYXRoMzg0NjciIGlua3NjYXBlOmNvbm5lY3Rvci1jdXJ2YXR1cmU9IjAiLz4mI3hhOwkJPHJlY3QgeD0iMzI5LjY2IiB5PSI5Mi4wMjk5OTkiIHN0eWxlPSJmaWxsOiNmZmZmZmYiIHdpZHRoPSIzMy4yNTk5OTgiIGhlaWdodD0iMjkuNTQwMDAxIiBjbGlwLXBhdGg9InVybCgjU1ZHSURfNl8pIiBpZD0icmVjdDM4NDY5Ii8+JiN4YTsJCTxyZWN0IHg9IjM2NS4wOSIgeT0iOTIuMDI5OTk5IiBzdHlsZT0iZmlsbDojZmZmZmZmIiB3aWR0aD0iMzMuMjU5OTk4IiBoZWlnaHQ9IjI5LjU0MDAwMSIgY2xpcC1wYXRoPSJ1cmwoI1NWR0lEXzZfKSIgaWQ9InJlY3QzODQ3MSIvPiYjeGE7CQk8cmVjdCB4PSIzNjcuNDI5OTkiIHk9IjkzLjc2MDAwMiIgc3R5bGU9ImZpbGw6I2VjZWZmMCIgd2lkdGg9IjE2Ljg0IiBoZWlnaHQ9IjIuMTMwMDAwMSIgY2xpcC1wYXRoPSJ1cmwoI1NWR0lEXzZfKSIgaWQ9InJlY3QzODQ3MyIvPiYjeGE7CQk8cmVjdCB4PSIzODUuNTE5OTkiIHk9IjkzLjc2MDAwMiIgc3R5bGU9ImZpbGw6I2VjZWZmMCIgd2lkdGg9IjExLjIiIGhlaWdodD0iMi4xMzAwMDAxIiBjbGlwLXBhdGg9InVybCgjU1ZHSURfNl8pIiBpZD0icmVjdDM4NDc1Ii8+JiN4YTsJCTxyZWN0IHg9IjM2Ny40Mjk5OSIgeT0iOTcuMTkwMDAyIiBzdHlsZT0iZmlsbDojZWNlZmYwIiB3aWR0aD0iMTIuMDUiIGhlaWdodD0iMi4xMzAwMDAxIiBjbGlwLXBhdGg9InVybCgjU1ZHSURfNl8pIiBpZD0icmVjdDM4NDc3Ii8+JiN4YTsJCTxyZWN0IHg9IjM4MC43NSIgeT0iOTcuMjY5OTk3IiBzdHlsZT0iZmlsbDojZWNlZmYwIiB3aWR0aD0iMTAuNTciIGhlaWdodD0iMi4xMzAwMDAxIiBjbGlwLXBhdGg9InVybCgjU1ZHSURfNl8pIiBpZD0icmVjdDM4NDc5Ii8+JiN4YTsJCTxyZWN0IHg9IjM2Ny40Mjk5OSIgeT0iMTAwLjYxIiBzdHlsZT0iZmlsbDojZWNlZmYwIiB3aWR0aD0iMTYiIGhlaWdodD0iMi4xMzAwMDAxIiBjbGlwLXBhdGg9InVybCgjU1ZHSURfNl8pIiBpZD0icmVjdDM4NDgxIi8+JiN4YTsJCTxyZWN0IHg9IjM4NC42NDAwMSIgeT0iMTAwLjYxIiBzdHlsZT0iZmlsbDojZWNlZmYwIiB3aWR0aD0iNC41MTAwMDAyIiBoZWlnaHQ9IjIuMTMwMDAwMSIgY2xpcC1wYXRoPSJ1cmwoI1NWR0lEXzZfKSIgaWQ9InJlY3QzODQ4MyIvPiYjeGE7CQk8cmVjdCB4PSIzNjcuNDI5OTkiIHk9IjEwNC4wOCIgc3R5bGU9ImZpbGw6I2VjZWZmMCIgd2lkdGg9IjIwLjYzOTk5OSIgaGVpZ2h0PSIyLjEzMDAwMDEiIGNsaXAtcGF0aD0idXJsKCNTVkdJRF82XykiIGlkPSJyZWN0Mzg0ODUiLz4mI3hhOwkJPHJlY3QgeD0iMzY3LjQyOTk5IiB5PSIxMDcuNTEiIHN0eWxlPSJmaWxsOiNlY2VmZjAiIHdpZHRoPSIxMS45MyIgaGVpZ2h0PSIyLjEzMDAwMDEiIGNsaXAtcGF0aD0idXJsKCNTVkdJRF82XykiIGlkPSJyZWN0Mzg0ODciLz4mI3hhOwkJPHJlY3QgeD0iMzgwLjQ4MDAxIiB5PSIxMDcuNTEiIHN0eWxlPSJmaWxsOiNlY2VmZjAiIHdpZHRoPSI3LjU3OTk5OTkiIGhlaWdodD0iMi4xMzAwMDAxIiBjbGlwLXBhdGg9InVybCgjU1ZHSURfNl8pIiBpZD0icmVjdDM4NDg5Ii8+JiN4YTsJCTxyZWN0IHg9IjM2Ny40Mjk5OSIgeT0iMTEwLjkzIiBzdHlsZT0iZmlsbDojZWNlZmYwIiB3aWR0aD0iMjAuNjM5OTk5IiBoZWlnaHQ9IjIuMTMwMDAwMSIgY2xpcC1wYXRoPSJ1cmwoI1NWR0lEXzZfKSIgaWQ9InJlY3QzODQ5MSIvPiYjeGE7CQk8cmVjdCB4PSIzNjcuNDI5OTkiIHk9IjExNC40IiBzdHlsZT0iZmlsbDojZWNlZmYwIiB3aWR0aD0iMjEuNzMiIGhlaWdodD0iMi4xMzAwMDAxIiBjbGlwLXBhdGg9InVybCgjU1ZHSURfNl8pIiBpZD0icmVjdDM4NDkzIi8+JiN4YTsJCTxyZWN0IHg9IjM2Ny40Mjk5OSIgeT0iMTE3LjgzIiBzdHlsZT0iZmlsbDojZWNlZmYwIiB3aWR0aD0iMjYuNTkiIGhlaWdodD0iMi4xMzAwMDAxIiBjbGlwLXBhdGg9InVybCgjU1ZHSURfNl8pIiBpZD0icmVjdDM4NDk1Ii8+JiN4YTsJCTxyZWN0IHg9IjMzMS40ODAwMSIgeT0iOTMuNTEwMDAyIiBzdHlsZT0iZmlsbDojZWNlZmYwIiB3aWR0aD0iMTYuODQiIGhlaWdodD0iMi4xMDk5OTk5IiBjbGlwLXBhdGg9InVybCgjU1ZHSURfNl8pIiBpZD0icmVjdDM4NDk3Ii8+JiN4YTsJCTxyZWN0IHg9IjM0OS41NzAwMSIgeT0iOTMuNTEwMDAyIiBzdHlsZT0iZmlsbDojZWNlZmYwIiB3aWR0aD0iMTEuMiIgaGVpZ2h0PSIyLjEwOTk5OTkiIGNsaXAtcGF0aD0idXJsKCNTVkdJRF82XykiIGlkPSJyZWN0Mzg0OTkiLz4mI3hhOwkJPHJlY3QgeD0iMzMxLjQ4MDAxIiB5PSI5Ni45ODAwMDMiIHN0eWxlPSJmaWxsOiNlY2VmZjAiIHdpZHRoPSIxMi4wNyIgaGVpZ2h0PSIyLjEzMDAwMDEiIGNsaXAtcGF0aD0idXJsKCNTVkdJRF82XykiIGlkPSJyZWN0Mzg1MDEiLz4mI3hhOwkJPHJlY3QgeD0iMzQ0Ljc5OTk5IiB5PSI5Ny4wNTk5OTgiIHN0eWxlPSJmaWxsOiNlY2VmZjAiIHdpZHRoPSIxMC41NyIgaGVpZ2h0PSIyLjEzMDAwMDEiIGNsaXAtcGF0aD0idXJsKCNTVkdJRF82XykiIGlkPSJyZWN0Mzg1MDMiLz4mI3hhOwkJPHJlY3QgeD0iMzMxLjQ4MDAxIiB5PSIxMDAuNDEiIHN0eWxlPSJmaWxsOiNlY2VmZjAiIHdpZHRoPSIxNiIgaGVpZ2h0PSIyLjEzMDAwMDEiIGNsaXAtcGF0aD0idXJsKCNTVkdJRF82XykiIGlkPSJyZWN0Mzg1MDUiLz4mI3hhOwkJPHJlY3QgeD0iMzQ4LjY5IiB5PSIxMDAuNDEiIHN0eWxlPSJmaWxsOiNlY2VmZjAiIHdpZHRoPSI0LjUxMDAwMDIiIGhlaWdodD0iMi4xMzAwMDAxIiBjbGlwLXBhdGg9InVybCgjU1ZHSURfNl8pIiBpZD0icmVjdDM4NTA3Ii8+JiN4YTsJCTxyZWN0IHg9IjMzMS40ODAwMSIgeT0iMTAzLjg3IiBzdHlsZT0iZmlsbDojZWNlZmYwIiB3aWR0aD0iMjAuNjYiIGhlaWdodD0iMi4xMzAwMDAxIiBjbGlwLXBhdGg9InVybCgjU1ZHSURfNl8pIiBpZD0icmVjdDM4NTA5Ii8+JiN4YTsJCTxyZWN0IHg9IjMzMS40ODAwMSIgeT0iMTA3LjMiIHN0eWxlPSJmaWxsOiNlY2VmZjAiIHdpZHRoPSIxMS45MyIgaGVpZ2h0PSIyLjEzMDAwMDEiIGNsaXAtcGF0aD0idXJsKCNTVkdJRF82XykiIGlkPSJyZWN0Mzg1MTEiLz4mI3hhOwkJPHJlY3QgeD0iMzQ0LjU3MDAxIiB5PSIxMDcuMyIgc3R5bGU9ImZpbGw6I2VjZWZmMCIgd2lkdGg9IjcuNTk5OTk5OSIgaGVpZ2h0PSIyLjEzMDAwMDEiIGNsaXAtcGF0aD0idXJsKCNTVkdJRF82XykiIGlkPSJyZWN0Mzg1MTMiLz4mI3hhOwkJPHJlY3QgeD0iMzMxLjQ4MDAxIiB5PSIxMTAuNzIiIHN0eWxlPSJmaWxsOiNlY2VmZjAiIHdpZHRoPSIyMC42NiIgaGVpZ2h0PSIyLjEzMDAwMDEiIGNsaXAtcGF0aD0idXJsKCNTVkdJRF82XykiIGlkPSJyZWN0Mzg1MTUiLz4mI3hhOwkJPHJlY3QgeD0iMzMxLjQ4MDAxIiB5PSIxMTQuMTkiIHN0eWxlPSJmaWxsOiNlY2VmZjAiIHdpZHRoPSIyMS43MyIgaGVpZ2h0PSIyLjEzMDAwMDEiIGNsaXAtcGF0aD0idXJsKCNTVkdJRF82XykiIGlkPSJyZWN0Mzg1MTciLz4mI3hhOwkJPHJlY3QgeD0iMzMxLjQ4MDAxIiB5PSIxMTcuNjIiIHN0eWxlPSJmaWxsOiNlY2VmZjAiIHdpZHRoPSIyNi41OSIgaGVpZ2h0PSIyLjEzMDAwMDEiIGNsaXAtcGF0aD0idXJsKCNTVkdJRF82XykiIGlkPSJyZWN0Mzg1MTkiLz4mI3hhOwkJPHJlY3QgeD0iMzI3Ljg0IiB5PSIxMjMuODIiIHN0eWxlPSJmaWxsOiM5NWM4ZWMiIHdpZHRoPSIzLjU4OTk5OTkiIGhlaWdodD0iMi4yNiIgY2xpcC1wYXRoPSJ1cmwoI1NWR0lEXzZfKSIgaWQ9InJlY3QzODUyMSIvPiYjeGE7CQk8cGF0aCBzdHlsZT0iZmlsbDojYmRkZGY0IiBkPSJtIDM5NC41OCw4My45NyBjIDAsMC4zNiAtMC4yOSwwLjY1IC0wLjY1LDAuNjUgLTAuMzgsMCAtMC42NywtMC4yOSAtMC42NywtMC42NSAwLC0wLjM2IDAuMjksLTAuNjUgMC42NywtMC42NSAwLjM2LDAgMC42NSwwLjI5IDAuNjUsMC42NSB6IiBjbGlwLXBhdGg9InVybCgjU1ZHSURfNl8pIiBpZD0icGF0aDM4NTIzIiBpbmtzY2FwZTpjb25uZWN0b3ItY3VydmF0dXJlPSIwIi8+JiN4YTsJCTxwYXRoIHN0eWxlPSJmaWxsOiNiZGRkZjQiIGQ9Im0gMzk2LjkyLDgzLjk3IGMgMCwwLjM2IC0wLjI5LDAuNjUgLTAuNjUsMC42NSAtMC4zNiwwIC0wLjY1LC0wLjI5IC0wLjY1LC0wLjY1IDAsLTAuMzYgMC4yOSwtMC42NSAwLjY1LC0wLjY1IDAuMzYsMCAwLjY1LDAuMjkgMC42NSwwLjY1IHoiIGNsaXAtcGF0aD0idXJsKCNTVkdJRF82XykiIGlkPSJwYXRoMzg1MjUiIGlua3NjYXBlOmNvbm5lY3Rvci1jdXJ2YXR1cmU9IjAiLz4mI3hhOwkJPHBhdGggc3R5bGU9ImZpbGw6I2JkZGRmNCIgZD0ibSAzOTkuMjIsODMuOTcgYyAwLDAuMzYgLTAuMjksMC42NSAtMC42NSwwLjY1IC0wLjM2LDAgLTAuNjUsLTAuMjkgLTAuNjUsLTAuNjUgMCwtMC4zNiAwLjI5LC0wLjY1IDAuNjUsLTAuNjUgMC4zNiwwIDAuNjUsMC4yOSAwLjY1LDAuNjUgeiIgY2xpcC1wYXRoPSJ1cmwoI1NWR0lEXzZfKSIgaWQ9InBhdGgzODUyNyIgaW5rc2NhcGU6Y29ubmVjdG9yLWN1cnZhdHVyZT0iMCIvPiYjeGE7CQk8cGF0aCBzdHlsZT0iZmlsbDojODFjNzg0IiBkPSJtIDQwMy4zNiwxMTYuOTcgYyAtNS43NCwwIC0xMC45MywzLjQ3IC0xMy4xMiw4Ljc3IC0yLjE5LDUuMzMgLTAuOTgsMTEuNDMgMy4wOSwxNS41IDQuMDcsNC4wNSAxMC4xNyw1LjI4IDE1LjUsMy4wNyA1LjMxLC0yLjE5IDguNzcsLTcuMzkgOC43NywtMTMuMTQgMCwtNy44NSAtNi4zNywtMTQuMjQgLTE0LjI0LC0xNC4yIHoiIGNsaXAtcGF0aD0idXJsKCNTVkdJRF82XykiIGlkPSJwYXRoMzg1MjkiIGlua3NjYXBlOmNvbm5lY3Rvci1jdXJ2YXR1cmU9IjAiLz4mI3hhOwkJPHBvbHlnb24gc3R5bGU9ImZpbGw6I2ZmZmZmZiIgcG9pbnRzPSIzOTcuNjUsMTI5Ljg0IDQwMS4wOCwxMzMuMjYgNDA4LjU4LDEyNS43NiA0MTAuNzUsMTI3Ljk2IDQwMS4wOCwxMzcuNjMgMzk1LjQ4LDEzMi4wMSAiIGNsaXAtcGF0aD0idXJsKCNTVkdJRF82XykiIGlkPSJwb2x5Z29uMzg1MzEiLz4mI3hhOwk8L2c+JiN4YTs8L2c+JiN4YTs8L3N2Zz4=;horizontal=0;" vertex="1" parent="1">
          <mxGeometry x="922.5" y="1087.5" width="54.09" height="30" as="geometry" />
        </mxCell>
        <mxCell id="KOKp6EKpK6rq5gHab_TY-58" value="Api Testing" style="shape=image;verticalLabelPosition=bottom;labelBackgroundColor=#ffffff;verticalAlign=top;aspect=fixed;imageAspect=0;image=data:image/svg+xml,PHN2ZyB4bWxuczpjYz0iaHR0cDovL2NyZWF0aXZlY29tbW9ucy5vcmcvbnMjIiB4bWxuczpkYz0iaHR0cDovL3B1cmwub3JnL2RjL2VsZW1lbnRzLzEuMS8iIHhtbG5zOmlua3NjYXBlPSJodHRwOi8vd3d3Lmlua3NjYXBlLm9yZy9uYW1lc3BhY2VzL2lua3NjYXBlIiB4bWxuczpyZGY9Imh0dHA6Ly93d3cudzMub3JnLzE5OTkvMDIvMjItcmRmLXN5bnRheC1ucyMiIHhtbG5zOnNvZGlwb2RpPSJodHRwOi8vc29kaXBvZGkuc291cmNlZm9yZ2UubmV0L0RURC9zb2RpcG9kaS0wLmR0ZCIgeG1sbnM6c3ZnPSJodHRwOi8vd3d3LnczLm9yZy8yMDAwL3N2ZyIgeG1sbnM9Imh0dHA6Ly93d3cudzMub3JnLzIwMDAvc3ZnIiB4bWxuczp4bGluaz0iaHR0cDovL3d3dy53My5vcmcvMTk5OS94bGluayIgdmVyc2lvbj0iMS4xIiBpZD0ic3ZnMTE1MDM4IiBpbmtzY2FwZTp2ZXJzaW9uPSIwLjkyLjMgKDI0MDU1NDYsIDIwMTgtMDMtMTEpIiBzb2RpcG9kaTpkb2NuYW1lPSJhcGlfdGVzdGluZy5zdmciIHg9IjBweCIgeT0iMHB4IiB2aWV3Qm94PSIwIDAgNTMuMDggNDAuNTQiIHN0eWxlPSJlbmFibGUtYmFja2dyb3VuZDpuZXcgMCAwIDUzLjA4IDQwLjU0OyIgeG1sOnNwYWNlPSJwcmVzZXJ2ZSI+JiN4YTs8c29kaXBvZGk6bmFtZWR2aWV3IGJvcmRlcmNvbG9yPSIjNjY2NjY2IiBib3JkZXJvcGFjaXR5PSIxIiBmaXQtbWFyZ2luLWJvdHRvbT0iMCIgZml0LW1hcmdpbi1sZWZ0PSIwIiBmaXQtbWFyZ2luLXJpZ2h0PSIwIiBmaXQtbWFyZ2luLXRvcD0iMCIgZ3JpZHRvbGVyYW5jZT0iMTAiIGd1aWRldG9sZXJhbmNlPSIxMCIgaWQ9Im5hbWVkdmlldzExNTA0MCIgaW5rc2NhcGU6Y3VycmVudC1sYXllcj0ic3ZnMTE1MDM4IiBpbmtzY2FwZTpjeD0iMzUuMzg3MzY2IiBpbmtzY2FwZTpjeT0iMjcuMDIzNTczIiBpbmtzY2FwZTpwYWdlb3BhY2l0eT0iMCIgaW5rc2NhcGU6cGFnZXNoYWRvdz0iMiIgaW5rc2NhcGU6d2luZG93LWhlaWdodD0iMTAxNyIgaW5rc2NhcGU6d2luZG93LW1heGltaXplZD0iMSIgaW5rc2NhcGU6d2luZG93LXdpZHRoPSIxOTIwIiBpbmtzY2FwZTp3aW5kb3cteD0iLTgiIGlua3NjYXBlOndpbmRvdy15PSItOCIgaW5rc2NhcGU6em9vbT0iMTMuMzUwODkxIiBvYmplY3R0b2xlcmFuY2U9IjEwIiBwYWdlY29sb3I9IiNmZmZmZmYiIHNob3dncmlkPSJmYWxzZSI+JiN4YTsJPC9zb2RpcG9kaTpuYW1lZHZpZXc+JiN4YTs8ZyBpZD0iZzExNTAzNiIgdHJhbnNmb3JtPSJ0cmFuc2xhdGUoLTQuMDgsLTQuMDc3NDI5KSI+JiN4YTsJPHRpdGxlIGlkPSJ0aXRsZTExNTAwOCI+UGFnZS0xPC90aXRsZT4mI3hhOwk8ZyBpZD0iZ3JvdXAyNzczLTEiIHRyYW5zZm9ybT0idHJhbnNsYXRlKDQuMDgsLTQuMDgpIj4mI3hhOwkJPHRpdGxlIGlkPSJ0aXRsZTExNTAxMCI+QVBJIFRlc3Rpbmc8L3RpdGxlPiYjeGE7CQk8ZyBpZD0ic2hhcGUyNzc0LTIiIHRyYW5zZm9ybT0idHJhbnNsYXRlKDEzLjczMDQsLTI3LjExMjYpIj4mI3hhOwkJCTx0aXRsZSBpZD0idGl0bGUxMTUwMTIiPlNoZWV0LjI3NzQ8L3RpdGxlPiYjeGE7CQkJPHBhdGggaWQ9InBhdGgxMTUwMTQiIGlua3NjYXBlOmNvbm5lY3Rvci1jdXJ2YXR1cmU9IjAiIHN0eWxlPSJmaWxsOiMzRjU3NjU7IiBkPSJNMjUuNDIsNDUuMDJ2LTkuNzVIMFY0OC43aDE1LjE3ICAgICBDMTcuOTYsNDYuNTIsMjEuNTksNDUuMTIsMjUuNDIsNDUuMDJ6Ii8+JiN4YTsJCTwvZz4mI3hhOwkJPGcgaWQ9Imdyb3VwMjc3NS00IiB0cmFuc2Zvcm09InRyYW5zbGF0ZSgyNC45NzM1KSI+JiN4YTsJCQk8dGl0bGUgaWQ9InRpdGxlMTE1MDE3Ij5TaGVldC4yNzc1PC90aXRsZT4mI3hhOwkJCTxnIGlkPSJzaGFwZTI3NzYtNSI+JiN4YTsJCQkJPHRpdGxlIGlkPSJ0aXRsZTExNTAxOSI+U2hlZXQuMjc3NjwvdGl0bGU+JiN4YTsJCQkJPHBhdGggaWQ9InBhdGgxMTUwMjEiIGlua3NjYXBlOmNvbm5lY3Rvci1jdXJ2YXR1cmU9IjAiIHN0eWxlPSJmaWxsOiMzRjU3NjU7IiBkPSJNMjguMTEsMzQuODdsLTAuMTUtMi42M2gtMS40OWwtMi4zNCwyLjE0ICAgICAgYzAuMTUsNS4zNy0zLjk4LDkuOTUtOS40LDEwLjNjLTUuNTMsMC4zNC0xMC4zLTMuODktMTAuNjUtOS40MWMtMC4zNS01LjUyLDMuODgtMTAuMyw5LjQtMTAuNjRjMi42NC0wLjE1LDUuMDgsMC42OSw2Ljk3LDIuMjQgICAgICBsMi43My0yLjg5bC0wLjk0LTAuODVsLTEuMywxLjI1Yy0wLjQ5LTAuMzUtMS4wNC0wLjY1LTEuNTktMC45bDAuNC0xLjc0bC0yLjQ5LTAuODRsLTAuNjksMS42NGMtMC42LTAuMTUtMS4yNS0wLjItMS44OS0wLjI1ICAgICAgbC0wLjMtMS43NGwtMi42NCwwLjE1djEuNzljLTAuNTUsMC4xLTEuMDksMC4yNS0xLjY0LDAuNDVsLTAuOS0xLjU1bC0yLjM4LDEuMTVsMC42NCwxLjY5Yy0wLjU5LDAuMzUtMS4wOSwwLjc5LTEuNTksMS4yNCAgICAgIGwtMS40NC0xLjA0bC0xLjc0LDEuOTlsMS4yNCwxLjI5Yy0wLjMsMC40NS0wLjYsMC45NS0wLjg1LDEuNDRsLTEuNzktMC4zOUwwLjQsMzEuMjRsMS42NCwwLjc1Yy0wLjE1LDAuNi0wLjIsMS4xNC0wLjI1LDEuNzkgICAgICBMMCwzNC4wM2wwLjE1LDIuNjRsMS43OSwwLjA1YzAuMSwwLjY0LDAuMywxLjI5LDAuNSwxLjk0TDAuOSwzOS41NWwxLjE5LDIuMzlsMS42NC0wLjY1YzAuMywwLjUsMC43LDAuOTUsMS4wNSwxLjRsLTEuMSwxLjQ0ICAgICAgbDEuOTksMS43NGwxLjI5LTEuMTljMC41LDAuMzQsMS4wNSwwLjY0LDEuNiwwLjk0bC0wLjQ1LDEuNzRsMi40OSwwLjg1bDAuNzQtMS41OWMwLjYsMC4xNCwxLjI1LDAuMjQsMS44OSwwLjI5bDAuMjUsMS43OSAgICAgIGwyLjY0LTAuMTRsMC4wNS0xLjhjMC41NS0wLjEsMS4xNC0wLjI0LDEuNjQtMC4zOWwwLjksMS41NGwyLjM4LTEuMTVsLTAuNTktMS42NGMwLjU5LTAuMzUsMS4xNC0wLjc0LDEuNjQtMS4xOWwxLjQ0LDEuMDkgICAgICBsMS43NC0xLjk5bC0xLjE5LTEuMjljMC4zLTAuNDUsMC41OS0wLjk1LDAuODQtMS4zOWwxLjc0LDAuNDlsMC45LTIuNDhsLTEuNTktMC43NWMwLjItMC43NSwwLjMtMS41NCwwLjM1LTIuMzlMMjguMTEsMzQuODd6Ii8+JiN4YTsJCQk8L2c+JiN4YTsJCQk8ZyBpZD0ic2hhcGUyNzc3LTciIHRyYW5zZm9ybT0idHJhbnNsYXRlKDYuMDE5NSwtNy43NjA2OCkiPiYjeGE7CQkJCTx0aXRsZSBpZD0idGl0bGUxMTUwMjQiPlNoZWV0LjI3Nzc8L3RpdGxlPiYjeGE7CQkJCTxwYXRoIGlkPSJwYXRoMTE1MDI2IiBpbmtzY2FwZTpjb25uZWN0b3ItY3VydmF0dXJlPSIwIiBzdHlsZT0iZmlsbDojM0Y1NzY1OyIgZD0iTTcuNzEsNDguN0wwLDQxLjM0TDIuMjQsMzlsNS41Miw1LjI4ICAgICAgbDExLjY5LTExLjA1bDIuMTksMi4zNEw3LjcxLDQ4Ljd6Ii8+JiN4YTsJCQk8L2c+JiN4YTsJCTwvZz4mI3hhOwkJPGcgaWQ9InNoYXBlMjc3OC05IiB0cmFuc2Zvcm09InRyYW5zbGF0ZSgwLC04LjIwODQxKSI+JiN4YTsJCQk8dGl0bGUgaWQ9InRpdGxlMTE1MDMwIj5TaGVldC4yNzc4PC90aXRsZT4mI3hhOwkJCTxwYXRoIGlkPSJwYXRoMTE1MDMyIiBpbmtzY2FwZTpjb25uZWN0b3ItY3VydmF0dXJlPSIwIiBzdHlsZT0iZmlsbDojM0Y1NzY1OyIgZD0iTTIyLjkzLDQyLjc4YzAtMy43MywxLjI1LTcuMjEsMy4yOS05Ljk1SDAgICAgIFY0OC43aDIzLjk4QzIzLjMzLDQ2Ljc2LDIyLjkzLDQ0Ljg3LDIyLjkzLDQyLjc4eiIvPiYjeGE7CQk8L2c+JiN4YTsJPC9nPiYjeGE7PC9nPiYjeGE7PC9zdmc+;horizontal=0;" vertex="1" parent="1">
          <mxGeometry x="859" y="1087.5" width="53" height="41" as="geometry" />
        </mxCell>
        <mxCell id="KOKp6EKpK6rq5gHab_TY-59" value="GitActions" style="shape=image;verticalLabelPosition=bottom;labelBackgroundColor=#ffffff;verticalAlign=top;aspect=fixed;imageAspect=0;image=data:image/svg+xml,PHN2ZyB4bWxuczpjYz0iaHR0cDovL2NyZWF0aXZlY29tbW9ucy5vcmcvbnMjIiB4bWxuczpkYz0iaHR0cDovL3B1cmwub3JnL2RjL2VsZW1lbnRzLzEuMS8iIHhtbG5zOmlua3NjYXBlPSJodHRwOi8vd3d3Lmlua3NjYXBlLm9yZy9uYW1lc3BhY2VzL2lua3NjYXBlIiB4bWxuczpyZGY9Imh0dHA6Ly93d3cudzMub3JnLzE5OTkvMDIvMjItcmRmLXN5bnRheC1ucyMiIHhtbG5zOnNvZGlwb2RpPSJodHRwOi8vc29kaXBvZGkuc291cmNlZm9yZ2UubmV0L0RURC9zb2RpcG9kaS0wLmR0ZCIgeG1sbnM6c3ZnPSJodHRwOi8vd3d3LnczLm9yZy8yMDAwL3N2ZyIgeG1sbnM9Imh0dHA6Ly93d3cudzMub3JnLzIwMDAvc3ZnIiB4bWxuczp4bGluaz0iaHR0cDovL3d3dy53My5vcmcvMTk5OS94bGluayIgdmVyc2lvbj0iMS4xIiBpZD0ic3ZnMTIyNjgwIiBpbmtzY2FwZTp2ZXJzaW9uPSIwLjkyLjMgKDI0MDU1NDYsIDIwMTgtMDMtMTEpIiBzb2RpcG9kaTpkb2NuYW1lPSJjb2RlX2F1dG9tYXRlLnN2ZyIgeD0iMHB4IiB5PSIwcHgiIHZpZXdCb3g9IjAgMCA0NSA0Mi40OCIgc3R5bGU9ImVuYWJsZS1iYWNrZ3JvdW5kOm5ldyAwIDAgNDUgNDIuNDg7IiB4bWw6c3BhY2U9InByZXNlcnZlIj4mI3hhOzxzb2RpcG9kaTpuYW1lZHZpZXcgYm9yZGVyY29sb3I9IiM2NjY2NjYiIGJvcmRlcm9wYWNpdHk9IjEiIGZpdC1tYXJnaW4tYm90dG9tPSIwIiBmaXQtbWFyZ2luLWxlZnQ9IjAiIGZpdC1tYXJnaW4tcmlnaHQ9IjAiIGZpdC1tYXJnaW4tdG9wPSIwIiBncmlkdG9sZXJhbmNlPSIxMCIgZ3VpZGV0b2xlcmFuY2U9IjEwIiBpZD0ibmFtZWR2aWV3MTIyNjgyIiBpbmtzY2FwZTpjdXJyZW50LWxheWVyPSJzdmcxMjI2ODAiIGlua3NjYXBlOmN4PSIyOS45OTk5ODUiIGlua3NjYXBlOmN5PSIyOC4zMTk5ODciIGlua3NjYXBlOnBhZ2VvcGFjaXR5PSIwIiBpbmtzY2FwZTpwYWdlc2hhZG93PSIyIiBpbmtzY2FwZTp3aW5kb3ctaGVpZ2h0PSIxMDE3IiBpbmtzY2FwZTp3aW5kb3ctbWF4aW1pemVkPSIxIiBpbmtzY2FwZTp3aW5kb3ctd2lkdGg9IjE5MjAiIGlua3NjYXBlOndpbmRvdy14PSItOCIgaW5rc2NhcGU6d2luZG93LXk9Ii04IiBpbmtzY2FwZTp6b29tPSIxNC43ODUxMzgiIG9iamVjdHRvbGVyYW5jZT0iMTAiIHBhZ2Vjb2xvcj0iI2ZmZmZmZiIgc2hvd2dyaWQ9ImZhbHNlIj4mI3hhOwk8L3NvZGlwb2RpOm5hbWVkdmlldz4mI3hhOzxnIGlkPSJnMTIyNjc4IiB0cmFuc2Zvcm09InRyYW5zbGF0ZSgtMC43NSwtMC43NSkiPiYjeGE7CTx0aXRsZSBpZD0idGl0bGUxMjI2NTEiPlBhZ2UtMTwvdGl0bGU+JiN4YTsJPGcgaWQ9Imdyb3VwMjg5Mi0xIiB0cmFuc2Zvcm09InRyYW5zbGF0ZSgwLjc1LC0wLjc1KSI+JiN4YTsJCTx0aXRsZSBpZD0idGl0bGUxMjI2NTMiPkNvZGUgQXV0b21hdGU8L3RpdGxlPiYjeGE7CQk8ZyBpZD0ic2hhcGUyODkzLTIiIHRyYW5zZm9ybT0idHJhbnNsYXRlKDEyLjM5NzUsLTE3LjUyNzUpIj4mI3hhOwkJCTx0aXRsZSBpZD0idGl0bGUxMjI2NTUiPnBhdGg4MjQ5PC90aXRsZT4mI3hhOwkJCSYjeGE7CQkJCTxwYXRoIGlkPSJwYXRoMTIyNjU3IiBpbmtzY2FwZTpjb25uZWN0b3ItY3VydmF0dXJlPSIwIiBzdHlsZT0iZmlsbDojRkZGRkZGO3N0cm9rZTojNTU2QThBO3N0cm9rZS13aWR0aDoxLjU7c3Ryb2tlLW1pdGVybGltaXQ6MzsiIGQ9IiAgICAgTTIwLjMyLDM2LjQzbC0xLjY3LTEuMDVjLTAuNC0wLjE5LTAuNDMtMS43NS0wLjQ5LTIuMDVjLTAuMTUtMC41NSwwLjE3LTEuMTEsMC43Mi0xLjI2YzAuMDEsMCwwLjAyLTAuMDEsMC4wMy0wLjAxbDEuNjMtMC43NSAgICAgYzAuMy0wLjIxLDAuNDUtMC41NywwLjM4LTAuOTNsLTAuNi0xLjU0Yy0wLjEyLTAuMjktMC40Ni0wLjQzLTAuNzUtMC4zMWwtMC4wNCwwbC0xLjgzLDAuNDNjLTEuMTUsMC4zNy0yLjc2LTEuNS0yLjM0LTIuNDUgICAgIGwwLjY3LTEuNzJjMC4xMy0wLjM4LTAuMDItMC43OS0wLjM2LTFsLTEuNDQtMC41Yy0wLjMyLTAuMTUtMC43LTAuMDYtMC45MSwwLjIybC0wLjg5LDEuNzZjLTAuMjMsMC40My0wLjY5LDAuNjktMS4xOCwwLjY0ICAgICBjLTAuMzItMC4wNC0xLjEzLTAuMS0xLjEzLTAuMWMtMC40OCwwLjAxLTAuOTItMC4yNi0xLjEzLTAuNjlMOC4yLDIzLjI2Yy0wLjE4LTAuMjUtMC41LTAuMzctMC43OS0wLjI5bC0xLjU1LDAuNiAgICAgYy0wLjI4LDAuMTQtMC4zOSwwLjQ3LTAuMjcsMC43NWwwLjM1LDEuOTdjMC4xNiwwLjY4LTAuODIsMS42NC0xLDEuOTFjLTAuMzQsMC4zOC0wLjg5LDAuNTEtMS4zNywwLjMyTDEuNywyNy43NyAgICAgYy0wLjM1LTAuMDMtMC42OCwwLjE0LTAuODYsMC40NGwtMC43NSwxLjVjLTAuMDEsMC4zNSwwLjE2LDAuNjcsMC40NCwwLjg3bDEuNywxLjA0YzAuNTYsMC4zNCwwLjQ5LDEuNjksMC42MiwyLjE0ICAgICBjMCwwLjM3LTAuMDcsMC43NS0wLjg0LDEuMDVMMC4yOSwzNS43QzAuMDQsMzUuODgtMC4wOCwzNi4yLDAsMzYuNDlsMC42MSwxLjU1YzAuMTMsMC4yNywwLjQsMC40NCwwLjcsMC40NGwxLjktMC41OCAgICAgYzAuNjktMC4xNiwwLjk3LDAsMS4xNywwLjMzYzAuMTksMC4zMywxLjM1LDEuNjUsMS4yLDIuMWwtMC43NSwxLjg2Yy0wLjAzLDAuMzUsMC4xNCwwLjY4LDAuNDQsMC44NWwxLjM2LDAuNjQgICAgIGMwLjMxLDAuMTYsMC43LDAuMDgsMC45Mi0wLjE5bDAuOTEtMS43N2MwLjIzLTAuNDIsMC42OS0wLjY3LDEuMTctMC42MmwxLjExLDAuMDljMC40OCwwLjEyLDAuNzUsMC4wNywxLjEzLDAuN2wwLjg4LDEuNzIgICAgIGMwLDAsMC41MSwwLjM2LDAuODEsMC4yOGwxLjQ1LTAuMzljMC4zNS0wLjE3LDAuNTItMC41NywwLjM4LTAuOTRsLTAuNDItMS44MmMtMC4xOS0wLjQ3LTAuMDQtMS4wMSwwLjM3LTEuMyAgICAgYzAuMTctMC4yOSwxLjE2LTEuMzIsMS42LTEuMTZsMi4zMiwwLjg0YzAuMjksMC4wMiwwLjU2LTAuMDksMC43NS0wLjMxbDAuNzUtMS40OUMyMC44NywzNi45NiwyMC42OCwzNi41NywyMC4zMiwzNi40M3ogICAgICBNMTEuODYsMzcuMjRjLTEuOTUsMC44MS00LjE5LTAuMS01LjAxLTIuMDVjLTAuMDUtMC4xMi0wLjEtMC4yMy0wLjEzLTAuMzVjLTAuNzItMi4wMiwwLjMtNC4yNSwyLjMxLTUuMDEgICAgIGMyLjAzLTAuODYsNC4zNywwLjA5LDUuMjMsMi4xMmMwLjAxLDAuMDEsMC4wMSwwLjAzLDAuMDIsMC4wNGMwLDAuMDMsMCwwLjA3LDAsMC4xQzE0Ljk4LDM0LjE4LDEzLjkxLDM2LjQ0LDExLjg2LDM3LjI0eiIvPiYjeGE7CQk8L2c+JiN4YTsJCTxnIGlkPSJzaGFwZTI4OTQtNCIgdHJhbnNmb3JtPSJ0cmFuc2xhdGUoMTUuMDksLTAuNzIzMDAyKSI+JiN4YTsJCQk8dGl0bGUgaWQ9InRpdGxlMTIyNjYwIj5wYXRoODI1MTwvdGl0bGU+JiN4YTsJCQk8cGF0aCBpZD0icGF0aDEyMjY2MiIgaW5rc2NhcGU6Y29ubmVjdG9yLWN1cnZhdHVyZT0iMCIgc3R5bGU9ImZpbGw6IzJCQzdGNDsiIGQ9Ik03LjksNDMuOTVjMC4zNiwwLjA0LDAuNzMsMC4wNCwxLjA5LDAgICAgIGMwLjI3LTAuMDYsMC40Ni0wLjMsMC40NC0wLjU3bDAuMDYtMS4zM2MtMC4wNS0wLjM3LDAuMTgtMC43MiwwLjU0LTAuODJjMC4xNy0wLjE2LDEuMTQtMC41NCwxLjUtMC4yN2wxLjI0LDAuNzQgICAgIGMwLjIsMC4wOCwwLjQyLDAuMDYsMC41OS0wLjA2bDAuOC0wLjg2YzAuMTEtMC4yMywwLjA1LTAuNTEtMC4xNC0wLjY3bC0wLjk2LTEuMDRjLTAuMjQtMC4yMS0wLjI5LTAuNTYtMC4xNC0wLjg0ICAgICBjLTAuMDEsMCwwLjM5LTEuMzIsMC45NC0xLjQxbDEuMjYtMC4yMWMwLjI1LTAuMDksMC40Mi0wLjMxLDAuNDQtMC41N2wtMC4xMS0xLjE3Yy0wLjAzLTAuMjMtMC4yMy0wLjM5LTAuNDYtMC4zNiAgICAgYzAsMCwwLDAtMC4wMSwwbC0xLjM1LTAuMDZjLTAuMzYsMC4wMy0wLjctMC4yLTAuODItMC41NGMtMC4xNi0wLjE3LTAuMjMtMC40Mi0wLjM5LTAuNmMtMC4xMS0wLjMzLTAuMDktMC42OSwwLjA1LTFsMC44LTEuMDYgICAgIGMwLjE2LTAuMjMsMC4xNC0wLjU0LTAuMDUtMC43NWwtMC45LTAuNjJjLTAuMTktMC4xNy0wLjQ4LTAuMTctMC42NywwbC0wLjk3LDEuMDVjLTAuMjQsMC4yNS0wLjYxLDAuMzQtMC45MywwLjIxICAgICBjLTAuMjEtMC4xLTAuNDMtMC4xNi0wLjY2LTAuMmMwLDAtMC42Ny0wLjQ1LTAuNzUtMC43NWwtMC4yLTEuNDdjLTAuMDctMC4yMS0wLjI3LTAuMzUtMC40OS0wLjM1bC0xLjE4LDAuMTIgICAgIGMtMC4yMywwLjAzLTAuMzksMC4yMy0wLjM2LDAuNDZjMCwwLDAsMCwwLDAuMDFsLTAuMTQsMS40MmMwLDAuODQtMC44OCwwLjk5LTEuMDYsMS4xNWMtMC4zMSwwLjItMC43MSwwLjE4LTEtMC4wNUwyLjgsMzAuNiAgICAgYy0wLjIzLTAuMDktMC41LTAuMDMtMC42NywwLjE0bC0wLjgsMC45Yy0wLjA2LDAuMjMtMC4wMSwwLjQ5LDAuMTQsMC42N2wwLjk5LDEuMDJjMC45NywwLjY0LTAuMTcsMi4xLTAuNzUsMi4xNmwtMS4zNSwwLjI3ICAgICBDMC4xNSwzNS44MywwLDM2LjAzLDAsMzYuMjVsMC4xMiwxLjE4YzAuMDMsMC4yMSwwLjE5LDAuMzgsMC40LDAuNDRsMS40Mi0wLjAxYzAuNSwwLDAuNjYsMC4yLDAuNzUsMC40NSAgICAgYzAuMTQsMC4yNCwwLjI3LDAuNDksMC4zOSwwLjc1YzAuMjMsMC4yNiwwLjI0LDAuNjQsMC4wNSwwLjkybC0wLjg4LDEuMTVjLTAuMDksMC4yMy0wLjAzLDAuNSwwLjE0LDAuNjdsMC44MSwwLjcgICAgIGMwLjE5LDAuMTcsMC40OCwwLjE3LDAuNjcsMGwwLjk3LTEuMDVjMC4yNC0wLjI1LDAuNjEtMC4zNCwwLjkzLTAuMjFsMC43NSwwLjI4YzAuMzQsMCwwLjQ5LDAuMTksMC42NCwwLjdsMC4yOCwxLjM1ICAgICBDNy40Myw0My41OCw3LjQxLDQzLjkxLDcuOSw0My45NXogTTEwLjcxLDM1LjkxYzAuMDgsMS41Ny0xLjA5LDIuOTItMi42NSwzLjA4Yy0xLjUsMC4xOC0yLjg2LTAuODgtMy4wNS0yLjM4ICAgICBjMC0wLjA4LDAtMC4xNywwLTAuMjZjLTAuMTEtMS41MywxLjAzLTIuODcsMi41Ni0zYzEuNTYtMC4xOCwyLjk3LDAuOTQsMy4xNSwyLjV2MC4wNkwxMC43MSwzNS45MXoiLz4mI3hhOwkJCTxwYXRoIGlkPSJwYXRoMTIyNjY0IiBpbmtzY2FwZTpjb25uZWN0b3ItY3VydmF0dXJlPSIwIiBzdHlsZT0iZmlsbDpub25lOyIgZD0iTTcuOSw0My45NWMwLjM2LDAuMDQsMC43MywwLjA0LDEuMDksMCAgICAgYzAuMjctMC4wNiwwLjQ2LTAuMywwLjQ0LTAuNTdsMC4wNi0xLjMzYy0wLjA1LTAuMzcsMC4xOC0wLjcyLDAuNTQtMC44MmMwLjE3LTAuMTYsMS4xNC0wLjU0LDEuNS0wLjI3bDEuMjQsMC43NCAgICAgYzAuMiwwLjA4LDAuNDIsMC4wNiwwLjU5LTAuMDZsMC44LTAuODZjMC4xMS0wLjIzLDAuMDUtMC41MS0wLjE0LTAuNjdsLTAuOTYtMS4wNGMtMC4yNC0wLjIxLTAuMjktMC41Ni0wLjE0LTAuODQgICAgIGMtMC4wMSwwLDAuMzktMS4zMiwwLjk0LTEuNDFsMS4yNi0wLjIxYzAuMjUtMC4wOSwwLjQyLTAuMzEsMC40NC0wLjU3bC0wLjExLTEuMTdjLTAuMDMtMC4yMy0wLjIzLTAuMzktMC40Ni0wLjM2ICAgICBjMCwwLDAsMC0wLjAxLDBsLTEuMzUtMC4wNmMtMC4zNiwwLjAzLTAuNy0wLjItMC44Mi0wLjU0Yy0wLjE2LTAuMTctMC4yMy0wLjQyLTAuMzktMC42Yy0wLjExLTAuMzMtMC4wOS0wLjY5LDAuMDUtMWwwLjgtMS4wNiAgICAgYzAuMTYtMC4yMywwLjE0LTAuNTQtMC4wNS0wLjc1bC0wLjktMC42MmMtMC4xOS0wLjE3LTAuNDgtMC4xNy0wLjY3LDBsLTAuOTcsMS4wNWMtMC4yNCwwLjI1LTAuNjEsMC4zNC0wLjkzLDAuMjEgICAgIGMtMC4yMS0wLjEtMC40My0wLjE2LTAuNjYtMC4yYzAsMC0wLjY3LTAuNDUtMC43NS0wLjc1bC0wLjItMS40N2MtMC4wNy0wLjIxLTAuMjctMC4zNS0wLjQ5LTAuMzVsLTEuMTgsMC4xMiAgICAgYy0wLjIzLDAuMDMtMC4zOSwwLjIzLTAuMzYsMC40NmMwLDAsMCwwLDAsMC4wMWwtMC4xNCwxLjQyYzAsMC44NC0wLjg4LDAuOTktMS4wNiwxLjE1Yy0wLjMxLDAuMi0wLjcxLDAuMTgtMS0wLjA1TDIuOCwzMC42ICAgICBjLTAuMjMtMC4wOS0wLjUtMC4wMy0wLjY3LDAuMTRsLTAuOCwwLjljLTAuMDYsMC4yMy0wLjAxLDAuNDksMC4xNCwwLjY3bDAuOTksMS4wMmMwLjk3LDAuNjQtMC4xNywyLjEtMC43NSwyLjE2bC0xLjM1LDAuMjcgICAgIEMwLjE1LDM1LjgzLDAsMzYuMDMsMCwzNi4yNWwwLjEyLDEuMThjMC4wMywwLjIxLDAuMTksMC4zOCwwLjQsMC40NGwxLjQyLTAuMDFjMC41LDAsMC42NiwwLjIsMC43NSwwLjQ1ICAgICBjMC4xNCwwLjI0LDAuMjcsMC40OSwwLjM5LDAuNzVjMC4yMywwLjI2LDAuMjQsMC42NCwwLjA1LDAuOTJsLTAuODgsMS4xNWMtMC4wOSwwLjIzLTAuMDMsMC41LDAuMTQsMC42N2wwLjgxLDAuNyAgICAgYzAuMTksMC4xNywwLjQ4LDAuMTcsMC42NywwbDAuOTctMS4wNWMwLjI0LTAuMjUsMC42MS0wLjM0LDAuOTMtMC4yMWwwLjc1LDAuMjhjMC4zNCwwLDAuNDksMC4xOSwwLjY0LDAuN2wwLjI4LDEuMzUgICAgIEM3LjQzLDQzLjU4LDcuNDEsNDMuOTEsNy45LDQzLjk1IE0xMC43MSwzNS45MWMwLjA4LDEuNTctMS4wOSwyLjkyLTIuNjUsMy4wOGMtMS41LDAuMTgtMi44Ni0wLjg4LTMuMDUtMi4zOCAgICAgYzAtMC4wOCwwLTAuMTcsMC0wLjI2Yy0wLjExLTEuNTMsMS4wMy0yLjg3LDIuNTYtM2MxLjU2LTAuMTgsMi45NywwLjk0LDMuMTUsMi41djAuMDYiLz4mI3hhOwkJPC9nPiYjeGE7CQk8ZyBpZD0ic2hhcGUyODk1LTciIHRyYW5zZm9ybT0idHJhbnNsYXRlKDM0LjQ0NzUpIj4mI3hhOwkJCTx0aXRsZSBpZD0idGl0bGUxMjI2NjciPnBhdGg4MjUzPC90aXRsZT4mI3hhOwkJCTxwYXRoIGlkPSJwYXRoMTIyNjY5IiBpbmtzY2FwZTpjb25uZWN0b3ItY3VydmF0dXJlPSIwIiBzdHlsZT0iZmlsbDojNTU2QThBOyIgZD0iTTAuMDUsNDIuNDhoMC4zOSAgICAgYzEuMTYtMC4wMywyLjI2LTAuNTEsMy4wNy0xLjM0YzAuNzUtMC43NSwxLjAzLTIuMDYsMS4wMy00LjM5di03LjJjMC4wMi0xLjc2LDAuNTctMy40OCwxLjU4LTQuOTJjMC41NS0wLjg5LDEuNC0xLjU2LDIuNC0xLjg4ICAgICBjLTIuNjQtMC45LTMuOTgtMy4xMi0zLjk4LTYuNjJWOC43OGMwLTIuMzUtMC4zMS0zLjY3LTEuMDUtNC40M0MyLjY2LDMuNTIsMS41NCwzLjA0LDAuMzcsM0gwbDAuMTEtMS41aDAuMzggICAgIGMxLjUzLDAuMDgsMi45OCwwLjczLDQuMDYsMS44MUM1LjU4LDQuMzYsNi4wNSw2LDYuMDUsOC43OHY3LjMyYzAsMy4xNiwxLjI4LDQuOTQsMy44OSw1LjQzbDAuNjEsMC4xMXYyLjE2bC0wLjU4LDAuMTIgICAgIGMtMS4wMywwLjEtMS45NiwwLjY1LTIuNTQsMS41Yy0wLjg2LDEuMi0xLjM0LDIuNjMtMS4zOCw0LjF2Ny4yYzAsMi43Ny0wLjQzLDQuMzktMS41LDUuNDRjLTEuMDMsMS4wOC0yLjQ0LDEuNzMtMy45MywxLjgySDAuMjYgICAgIEwwLjA1LDQyLjQ4eiIvPiYjeGE7CQk8L2c+JiN4YTsJCTxnIGlkPSJzaGFwZTI4OTYtOSI+JiN4YTsJCQk8dGl0bGUgaWQ9InRpdGxlMTIyNjcyIj5wYXRoODI1NTwvdGl0bGU+JiN4YTsJCQk8cGF0aCBpZD0icGF0aDEyMjY3NCIgaW5rc2NhcGU6Y29ubmVjdG9yLWN1cnZhdHVyZT0iMCIgc3R5bGU9ImZpbGw6IzU1NkE4QTsiIGQ9Ik0xMC41LDQyLjQ4aC0wLjM5ICAgICBjLTEuMTYtMC4wMy0yLjI2LTAuNTEtMy4wNy0xLjM0Yy0wLjc1LTAuNzUtMS4wMy0yLjA2LTEuMDMtNC4zOXYtNy4yYy0wLjAyLTEuNzYtMC41Ny0zLjQ4LTEuNTgtNC45MiAgICAgYy0wLjU1LTAuODktMS40LTEuNTYtMi40LTEuODhjMi42NC0wLjksMy45OC0zLjEyLDMuOTgtNi42MlY4Ljc4YzAtMi4zNSwwLjMxLTMuNjcsMS4wNS00LjQzQzcuODksMy41Miw5LjAxLDMuMDQsMTAuMTgsM2gwLjM3ICAgICBsLTAuMTEtMS41aC0wLjM4QzguNTMsMS41OCw3LjA4LDIuMjMsNiwzLjMxQzQuOTcsNC4zNiw0LjUsNiw0LjUsOC43OHY3LjMyYzAsMy4xMy0xLjI4LDQuOTQtMy44OSw1LjQzTDAsMjEuNjV2Mi4xNWwwLjU4LDAuMTIgICAgIGMxLjAzLDAuMSwxLjk2LDAuNjUsMi41NCwxLjVjMC44NiwxLjIsMS4zNCwyLjYzLDEuMzgsNC4xdjcuMmMwLDIuNzcsMC40Myw0LjM5LDEuNSw1LjQ0YzEuMDMsMS4wOCwyLjQ0LDEuNzMsMy45MywxLjgyaDAuMzYgICAgIEwxMC41LDQyLjQ4eiIvPiYjeGE7CQk8L2c+JiN4YTsJPC9nPiYjeGE7PC9nPiYjeGE7PC9zdmc+;horizontal=0;" vertex="1" parent="1">
          <mxGeometry x="985.71" y="1085.5" width="34.29" height="32" as="geometry" />
        </mxCell>
      </root>
    </mxGraphModel>
  </diagram>
</mxfile>
